<?xml version="1.0" standalone="no"?>
<!DOCTYPE svg PUBLIC "-//W3C//DTD SVG 1.1//EN" "http://www.w3.org/Graphics/SVG/1.1/DTD/svg11.dtd" >
<svg xmlns="http://www.w3.org/2000/svg" xmlns:xlink="http://www.w3.org/1999/xlink" version="1.1">
<metadata>
Created by FontForge 20170731 at Tue May  1 03:07:53 2018
 By Aleksey,,,
(c) 2015-2017 Apple Inc. All rights reserved.
</metadata>
<defs>
<font id="SFProDisplay-Light" horiz-adv-x="1674" >
  <font-face 
    font-family="SF Pro Display"
    font-weight="300"
    font-stretch="normal"
    units-per-em="2048"
    panose-1="0 0 4 0 0 0 0 0 0 0"
    ascent="1638"
    descent="-410"
    x-height="1040"
    cap-height="1443"
    bbox="-403 -494 2501 2169"
    underline-thickness="95"
    underline-position="-463"
    unicode-range="U+0020-1F189"
  />
<missing-glyph horiz-adv-x="2048" 
d="M99 -494v308h1848v-308h-1848zM99 -67v308h1848v-308h-1848zM99 361v307h1848v-307h-1848zM99 788v307h1848v-307h-1848zM99 1215v308h1848v-308h-1848zM99 1642v308h1848v-308h-1848z" />
    <glyph glyph-name="uni2780" unicode="&#x31;&#x20dd;" 
d="M917 390h-102v589h-6l-170 -114v95l176 119h102v-689zM836 55q111 0 210 33.5t181.5 94.5t142.5 144.5t93 183t33 209.5t-33 209.5t-93 183t-142.5 144.5t-181.5 94.5t-210 33.5t-210 -33.5t-181.5 -94.5t-142.5 -144.5t-93 -183t-33 -209.5t33 -209.5t93 -183
t142.5 -144.5t181.5 -94.5t210 -33.5zM836 -46q-127 0 -241.5 39t-210.5 109.5t-166.5 166.5t-109.5 210.5t-39 241.5t39 241.5t109.5 210.5t166.5 166.5t210.5 109.5t241.5 39t241.5 -39t210.5 -109.5t166.5 -166.5t109.5 -210.5t39 -241.5t-39 -241.5t-109.5 -210.5
t-166.5 -166.5t-210.5 -109.5t-241.5 -39z" />
    <glyph glyph-name="uni2781" unicode="&#x32;&#x20dd;" 
d="M701 884h-99v5q0 53 27.5 99t79.5 75t128 29q69 0 120.5 -24.5t80 -67t28.5 -97.5q0 -62 -34.5 -111t-87.5 -105l-193 -209v-5h331v-83h-473v64l272 289q35 37 59 73t24 80q0 51 -36.5 83t-92.5 32q-62 0 -98 -36t-36 -86v-2.5v-2.5zM836 55q111 0 210 33.5t181.5 94.5
t142.5 144.5t93 183t33 209.5t-33 209.5t-93 183t-142.5 144.5t-181.5 94.5t-210 33.5t-210 -33.5t-181.5 -94.5t-142.5 -144.5t-93 -183t-33 -209.5t33 -209.5t93 -183t142.5 -144.5t181.5 -94.5t210 -33.5zM836 -46q-127 0 -241.5 39t-210.5 109.5t-166.5 166.5
t-109.5 210.5t-39 241.5t39 241.5t109.5 210.5t166.5 166.5t210.5 109.5t241.5 39t241.5 -39t210.5 -109.5t166.5 -166.5t109.5 -210.5t39 -241.5t-39 -241.5t-109.5 -210.5t-166.5 -166.5t-210.5 -109.5t-241.5 -39z" />
    <glyph glyph-name="uni2782" unicode="&#x33;&#x20dd;" 
d="M758 706v79h78q56 0 93.5 33.5t37.5 83.5q-1 49 -38 80t-95 31q-56 0 -93 -29.5t-40 -70.5h-96q2 50 30 90.5t79 64.5t122 24q69 0 121.5 -23t81.5 -63t30 -90q0 -46 -21 -81t-53 -56t-62 -26v-5q37 -4 73.5 -24t60.5 -56t25 -88q1 -62 -33.5 -107.5t-93 -70.5
t-131.5 -25t-127 24.5t-84.5 65.5t-33.5 91h96q4 -43 46 -72t103 -30q70 0 113 36t43 91q-1 53 -42.5 88t-107.5 35h-82zM836 55q111 0 210 33.5t181.5 94.5t142.5 144.5t93 183t33 209.5t-33 209.5t-93 183t-142.5 144.5t-181.5 94.5t-210 33.5t-210 -33.5t-181.5 -94.5
t-142.5 -144.5t-93 -183t-33 -209.5t33 -209.5t93 -183t142.5 -144.5t181.5 -94.5t210 -33.5zM836 -46q-127 0 -241.5 39t-210.5 109.5t-166.5 166.5t-109.5 210.5t-39 241.5t39 241.5t109.5 210.5t166.5 166.5t210.5 109.5t241.5 39t241.5 -39t210.5 -109.5t166.5 -166.5
t109.5 -210.5t39 -241.5t-39 -241.5t-109.5 -210.5t-166.5 -166.5t-210.5 -109.5t-241.5 -39z" />
    <glyph glyph-name="uni2783" unicode="&#x34;&#x20dd;" 
d="M834 1079h151v-465h97v-82h-97v-142h-97v142h-349v84q29 51 66 110.5t77.5 121.5t79.5 121.5t72 109.5zM637 614h251v387h-6q-26 -38 -58.5 -87.5t-67 -102.5t-65.5 -103t-54 -90v-4zM836 55q111 0 210 33.5t181.5 94.5t142.5 144.5t93 183t33 209.5t-33 209.5t-93 183
t-142.5 144.5t-181.5 94.5t-210 33.5t-210 -33.5t-181.5 -94.5t-142.5 -144.5t-93 -183t-33 -209.5t33 -209.5t93 -183t142.5 -144.5t181.5 -94.5t210 -33.5zM836 -46q-127 0 -241.5 39t-210.5 109.5t-166.5 166.5t-109.5 210.5t-39 241.5t39 241.5t109.5 210.5t166.5 166.5
t210.5 109.5t241.5 39t241.5 -39t210.5 -109.5t166.5 -166.5t109.5 -210.5t39 -241.5t-39 -241.5t-109.5 -210.5t-166.5 -166.5t-210.5 -109.5t-241.5 -39z" />
    <glyph glyph-name="uni2784" unicode="&#x35;&#x20dd;" 
d="M595 557h96q9 -47 52.5 -73t95.5 -26q42 0 77 19t56.5 54t21.5 83q0 44 -20.5 77t-55.5 51t-77 18q-52 0 -86.5 -22.5t-54.5 -53.5h-91l32 395h416v-82h-332l-19 -225h5q16 24 56 45.5t98 21.5q64 0 116 -27t83 -77t31 -119q0 -72 -33 -125.5t-92 -83.5t-136 -30
q-67 0 -120 23.5t-84 64.5t-35 92zM836 55q111 0 210 33.5t181.5 94.5t142.5 144.5t93 183t33 209.5t-33 209.5t-93 183t-142.5 144.5t-181.5 94.5t-210 33.5t-210 -33.5t-181.5 -94.5t-142.5 -144.5t-93 -183t-33 -209.5t33 -209.5t93 -183t142.5 -144.5t181.5 -94.5
t210 -33.5zM836 -46q-127 0 -241.5 39t-210.5 109.5t-166.5 166.5t-109.5 210.5t-39 241.5t39 241.5t109.5 210.5t166.5 166.5t210.5 109.5t241.5 39t241.5 -39t210.5 -109.5t166.5 -166.5t109.5 -210.5t39 -241.5t-39 -241.5t-109.5 -210.5t-166.5 -166.5t-210.5 -109.5
t-241.5 -39z" />
    <glyph glyph-name="uni2785" unicode="&#x36;&#x20dd;" 
d="M861 382q-56 0 -107.5 19.5t-92.5 61t-64.5 108t-23.5 159.5q0 114 35 196.5t100 127t155 44.5q65 0 118 -23t88 -64.5t45 -96.5h-106q-13 44 -52 70t-94 26q-91 0 -138.5 -76.5t-47.5 -209.5h2q21 53 76.5 88.5t132.5 35.5q70 0 123.5 -29.5t84.5 -80t31 -115.5
q0 -70 -34.5 -124.5t-94.5 -85.5t-136 -31zM859 470q46 0 82.5 19.5t58 53t21.5 75.5t-21 75t-57 52t-83 19q-46 0 -83 -18.5t-58.5 -51t-21.5 -72.5q0 -42 21.5 -76.5t58 -55t82.5 -20.5zM836 55q111 0 210 33.5t181.5 94.5t142.5 144.5t93 183t33 209.5t-33 209.5t-93 183
t-142.5 144.5t-181.5 94.5t-210 33.5t-210 -33.5t-181.5 -94.5t-142.5 -144.5t-93 -183t-33 -209.5t33 -209.5t93 -183t142.5 -144.5t181.5 -94.5t210 -33.5zM836 -46q-127 0 -241.5 39t-210.5 109.5t-166.5 166.5t-109.5 210.5t-39 241.5t39 241.5t109.5 210.5t166.5 166.5
t210.5 109.5t241.5 39t241.5 -39t210.5 -109.5t166.5 -166.5t109.5 -210.5t39 -241.5t-39 -241.5t-109.5 -210.5t-166.5 -166.5t-210.5 -109.5t-241.5 -39z" />
    <glyph glyph-name="uni2786" unicode="&#x37;&#x20dd;" 
d="M613 1072h473v-85l-296 -604h-109l300 601v5h-368v83zM836 55q111 0 210 33.5t181.5 94.5t142.5 144.5t93 183t33 209.5t-33 209.5t-93 183t-142.5 144.5t-181.5 94.5t-210 33.5t-210 -33.5t-181.5 -94.5t-142.5 -144.5t-93 -183t-33 -209.5t33 -209.5t93 -183
t142.5 -144.5t181.5 -94.5t210 -33.5zM836 -46q-127 0 -241.5 39t-210.5 109.5t-166.5 166.5t-109.5 210.5t-39 241.5t39 241.5t109.5 210.5t166.5 166.5t210.5 109.5t241.5 39t241.5 -39t210.5 -109.5t166.5 -166.5t109.5 -210.5t39 -241.5t-39 -241.5t-109.5 -210.5
t-166.5 -166.5t-210.5 -109.5t-241.5 -39z" />
    <glyph glyph-name="uni2787" unicode="&#x38;&#x20dd;" 
d="M837 452q47 0 83.5 17t57.5 47t21 68t-21 67.5t-57.5 46.5t-83.5 17q-48 0 -85 -17t-58 -46.5t-21 -67.5t21 -68t58 -47t85 -17zM837 786q59 0 97.5 33t38.5 83q0 51 -38 83t-98 32t-98.5 -32t-38.5 -83q0 -50 38.5 -83t98.5 -33zM835 377q-78 0 -137 25.5t-92.5 71
t-33.5 105.5q0 64 42 111.5t108 61.5v4q-56 17 -89 58.5t-33 96.5q0 53 30.5 94t84 64t122.5 23q68 0 121.5 -23t84 -64t30.5 -94q0 -54 -33 -96.5t-89 -58.5v-4q66 -14 108 -61.5t42 -110.5q0 -60 -34 -106t-94 -71.5t-138 -25.5zM836 55q111 0 210 33.5t181.5 94.5
t142.5 144.5t93 183t33 209.5t-33 209.5t-93 183t-142.5 144.5t-181.5 94.5t-210 33.5t-210 -33.5t-181.5 -94.5t-142.5 -144.5t-93 -183t-33 -209.5t33 -209.5t93 -183t142.5 -144.5t181.5 -94.5t210 -33.5zM836 -46q-127 0 -241.5 39t-210.5 109.5t-166.5 166.5
t-109.5 210.5t-39 241.5t39 241.5t109.5 210.5t166.5 166.5t210.5 109.5t241.5 39t241.5 -39t210.5 -109.5t166.5 -166.5t109.5 -210.5t39 -241.5t-39 -241.5t-109.5 -210.5t-166.5 -166.5t-210.5 -109.5t-241.5 -39z" />
    <glyph glyph-name="uni2788" unicode="&#x39;&#x20dd;" 
d="M837 382q-66 0 -120 23t-89 64t-44 95h106q13 -44 52 -69.5t96 -25.5q85 0 136 73t49 214h-1q-20 -55 -76.5 -89.5t-130.5 -34.5q-68 0 -123 29t-87 79.5t-32 116.5q0 69 34.5 123.5t95 86t136.5 31.5q52 0 103.5 -18.5t92.5 -59t66 -107t25 -163.5q0 -114 -34.5 -196.5
t-99.5 -127t-155 -44.5zM839 715q46 0 83.5 19t59 51.5t21.5 72.5q0 42 -21.5 76.5t-58.5 54.5t-83 20q-45 0 -82 -19.5t-58.5 -53.5t-21.5 -75q0 -42 21 -75t57.5 -52t82.5 -19zM836 55q111 0 210 33.5t181.5 94.5t142.5 144.5t93 183t33 209.5t-33 209.5t-93 183
t-142.5 144.5t-181.5 94.5t-210 33.5t-210 -33.5t-181.5 -94.5t-142.5 -144.5t-93 -183t-33 -209.5t33 -209.5t93 -183t142.5 -144.5t181.5 -94.5t210 -33.5zM836 -46q-127 0 -241.5 39t-210.5 109.5t-166.5 166.5t-109.5 210.5t-39 241.5t39 241.5t109.5 210.5t166.5 166.5
t210.5 109.5t241.5 39t241.5 -39t210.5 -109.5t166.5 -166.5t109.5 -210.5t39 -241.5t-39 -241.5t-109.5 -210.5t-166.5 -166.5t-210.5 -109.5t-241.5 -39z" />
    <glyph glyph-name="uni24B6" unicode="A&#x20dd;" 
d="M724 682h225l-109 312h-8zM630 406h-104l251 689h118l251 -689h-104l-69 199h-273zM836 55q111 0 210 33.5t181.5 94.5t142.5 144.5t93 183t33 209.5t-33 209.5t-93 183t-142.5 144.5t-181.5 94.5t-210 33.5t-210 -33.5t-181.5 -94.5t-142.5 -144.5t-93 -183t-33 -209.5
t33 -209.5t93 -183t142.5 -144.5t181.5 -94.5t210 -33.5zM836 -46q-127 0 -241.5 39t-210.5 109.5t-166.5 166.5t-109.5 210.5t-39 241.5t39 241.5t109.5 210.5t166.5 166.5t210.5 109.5t241.5 39t241.5 -39t210.5 -109.5t166.5 -166.5t109.5 -210.5t39 -241.5t-39 -241.5
t-109.5 -210.5t-166.5 -166.5t-210.5 -109.5t-241.5 -39z" />
    <glyph glyph-name="uni24B7" unicode="B&#x20dd;" 
d="M606 389v689h277q94 0 150 -47t56 -123q0 -62 -33.5 -101t-84.5 -51v-5q67 -7 112 -50.5t45 -118.5q0 -91 -67.5 -142t-178.5 -51h-276zM707 999v-218h125q78 0 117 30t39 80t-33 79t-94 29h-154zM707 707v-239h134q95 0 138.5 29t43.5 88q0 56 -38 89t-109 33h-169z
M836 55q111 0 210 33.5t181.5 94.5t142.5 144.5t93 183t33 209.5t-33 209.5t-93 183t-142.5 144.5t-181.5 94.5t-210 33.5t-210 -33.5t-181.5 -94.5t-142.5 -144.5t-93 -183t-33 -209.5t33 -209.5t93 -183t142.5 -144.5t181.5 -94.5t210 -33.5zM836 -46q-127 0 -241.5 39
t-210.5 109.5t-166.5 166.5t-109.5 210.5t-39 241.5t39 241.5t109.5 210.5t166.5 166.5t210.5 109.5t241.5 39t241.5 -39t210.5 -109.5t166.5 -166.5t109.5 -210.5t39 -241.5t-39 -241.5t-109.5 -210.5t-166.5 -166.5t-210.5 -109.5t-241.5 -39z" />
    <glyph glyph-name="uni24B8" unicode="C&#x20dd;" 
d="M1024 596h104q-9 -66 -48 -116.5t-101 -79t-142 -28.5q-94 0 -165.5 45t-111 126t-39.5 187t39.5 187t111 126t165.5 45q80 0 143.5 -29.5t102 -82t46.5 -121.5h-102q-6 44 -31.5 77.5t-66 52.5t-90.5 19q-64 0 -112.5 -34.5t-75.5 -96t-27 -143.5t27 -143.5t75.5 -96
t112.5 -34.5q74 0 125 39.5t60 100.5zM836 55q111 0 210 33.5t181.5 94.5t142.5 144.5t93 183t33 209.5t-33 209.5t-93 183t-142.5 144.5t-181.5 94.5t-210 33.5t-210 -33.5t-181.5 -94.5t-142.5 -144.5t-93 -183t-33 -209.5t33 -209.5t93 -183t142.5 -144.5t181.5 -94.5
t210 -33.5zM836 -46q-127 0 -241.5 39t-210.5 109.5t-166.5 166.5t-109.5 210.5t-39 241.5t39 241.5t109.5 210.5t166.5 166.5t210.5 109.5t241.5 39t241.5 -39t210.5 -109.5t166.5 -166.5t109.5 -210.5t39 -241.5t-39 -241.5t-109.5 -210.5t-166.5 -166.5t-210.5 -109.5
t-241.5 -39z" />
    <glyph glyph-name="uni24B9" unicode="D&#x20dd;" 
d="M602 1071h238q156 0 236.5 -89.5t80.5 -249.5q0 -163 -80.5 -252.5t-236.5 -89.5h-238v681zM705 988v-515h123q109 0 165.5 65t56.5 193q0 125 -56.5 191t-165.5 66h-123zM836 55q111 0 210 33.5t181.5 94.5t142.5 144.5t93 183t33 209.5t-33 209.5t-93 183t-142.5 144.5
t-181.5 94.5t-210 33.5t-210 -33.5t-181.5 -94.5t-142.5 -144.5t-93 -183t-33 -209.5t33 -209.5t93 -183t142.5 -144.5t181.5 -94.5t210 -33.5zM836 -46q-127 0 -241.5 39t-210.5 109.5t-166.5 166.5t-109.5 210.5t-39 241.5t39 241.5t109.5 210.5t166.5 166.5t210.5 109.5
t241.5 39t241.5 -39t210.5 -109.5t166.5 -166.5t109.5 -210.5t39 -241.5t-39 -241.5t-109.5 -210.5t-166.5 -166.5t-210.5 -109.5t-241.5 -39z" />
    <glyph glyph-name="uni24BA" unicode="E&#x20dd;" 
d="M1063 469v-83h-445v689h445v-83h-343v-216h324v-79h-324v-228h343zM836 55q111 0 210 33.5t181.5 94.5t142.5 144.5t93 183t33 209.5t-33 209.5t-93 183t-142.5 144.5t-181.5 94.5t-210 33.5t-210 -33.5t-181.5 -94.5t-142.5 -144.5t-93 -183t-33 -209.5t33 -209.5
t93 -183t142.5 -144.5t181.5 -94.5t210 -33.5zM836 -46q-127 0 -241.5 39t-210.5 109.5t-166.5 166.5t-109.5 210.5t-39 241.5t39 241.5t109.5 210.5t166.5 166.5t210.5 109.5t241.5 39t241.5 -39t210.5 -109.5t166.5 -166.5t109.5 -210.5t39 -241.5t-39 -241.5
t-109.5 -210.5t-166.5 -166.5t-210.5 -109.5t-241.5 -39z" />
    <glyph glyph-name="uni24BB" unicode="F&#x20dd;" 
d="M749 386h-103v689h439v-84h-336v-229h308v-82h-308v-294zM836 55q111 0 210 33.5t181.5 94.5t142.5 144.5t93 183t33 209.5t-33 209.5t-93 183t-142.5 144.5t-181.5 94.5t-210 33.5t-210 -33.5t-181.5 -94.5t-142.5 -144.5t-93 -183t-33 -209.5t33 -209.5t93 -183
t142.5 -144.5t181.5 -94.5t210 -33.5zM836 -46q-127 0 -241.5 39t-210.5 109.5t-166.5 166.5t-109.5 210.5t-39 241.5t39 241.5t109.5 210.5t166.5 166.5t210.5 109.5t241.5 39t241.5 -39t210.5 -109.5t166.5 -166.5t109.5 -210.5t39 -241.5t-39 -241.5t-109.5 -210.5
t-166.5 -166.5t-210.5 -109.5t-241.5 -39z" />
    <glyph glyph-name="uni24BC" unicode="G&#x20dd;" 
d="M1026 616v52h-182v77h280v-108q0 -78 -33 -137.5t-96.5 -93.5t-155.5 -34q-94 0 -166 45t-112 126t-40 187t40 187t112 126t166 45q78 0 140 -28t101 -78.5t48 -116.5h-102q-7 40 -32.5 71.5t-65 49.5t-88.5 18q-65 0 -113.5 -34t-75.5 -96t-27 -144t27 -143.5t75.5 -96
t113.5 -34.5q89 0 137.5 44t48.5 116zM836 55q111 0 210 33.5t181.5 94.5t142.5 144.5t93 183t33 209.5t-33 209.5t-93 183t-142.5 144.5t-181.5 94.5t-210 33.5t-210 -33.5t-181.5 -94.5t-142.5 -144.5t-93 -183t-33 -209.5t33 -209.5t93 -183t142.5 -144.5t181.5 -94.5
t210 -33.5zM836 -46q-127 0 -241.5 39t-210.5 109.5t-166.5 166.5t-109.5 210.5t-39 241.5t39 241.5t109.5 210.5t166.5 166.5t210.5 109.5t241.5 39t241.5 -39t210.5 -109.5t166.5 -166.5t109.5 -210.5t39 -241.5t-39 -241.5t-109.5 -210.5t-166.5 -166.5t-210.5 -109.5
t-241.5 -39z" />
    <glyph glyph-name="uni24BD" unicode="H&#x20dd;" 
d="M1116 386h-102v314h-355v-314h-103v689h103v-292h355v292h102v-689zM836 55q111 0 210 33.5t181.5 94.5t142.5 144.5t93 183t33 209.5t-33 209.5t-93 183t-142.5 144.5t-181.5 94.5t-210 33.5t-210 -33.5t-181.5 -94.5t-142.5 -144.5t-93 -183t-33 -209.5t33 -209.5
t93 -183t142.5 -144.5t181.5 -94.5t210 -33.5zM836 -46q-127 0 -241.5 39t-210.5 109.5t-166.5 166.5t-109.5 210.5t-39 241.5t39 241.5t109.5 210.5t166.5 166.5t210.5 109.5t241.5 39t241.5 -39t210.5 -109.5t166.5 -166.5t109.5 -210.5t39 -241.5t-39 -241.5
t-109.5 -210.5t-166.5 -166.5t-210.5 -109.5t-241.5 -39z" />
    <glyph glyph-name="uni24BE" unicode="I&#x20dd;" 
d="M888 386h-104v689h104v-689zM836 55q111 0 210 33.5t181.5 94.5t142.5 144.5t93 183t33 209.5t-33 209.5t-93 183t-142.5 144.5t-181.5 94.5t-210 33.5t-210 -33.5t-181.5 -94.5t-142.5 -144.5t-93 -183t-33 -209.5t33 -209.5t93 -183t142.5 -144.5t181.5 -94.5
t210 -33.5zM836 -46q-127 0 -241.5 39t-210.5 109.5t-166.5 166.5t-109.5 210.5t-39 241.5t39 241.5t109.5 210.5t166.5 166.5t210.5 109.5t241.5 39t241.5 -39t210.5 -109.5t166.5 -166.5t109.5 -210.5t39 -241.5t-39 -241.5t-109.5 -210.5t-166.5 -166.5t-210.5 -109.5
t-241.5 -39z" />
    <glyph glyph-name="uni24BF" unicode="J&#x20dd;" 
d="M586 566h100q1 -46 34 -75.5t83 -29.5q58 0 88 35t30 94v485h102v-482q0 -104 -59 -162t-161 -58q-68 0 -116 25.5t-74 69.5t-27 98zM836 55q111 0 210 33.5t181.5 94.5t142.5 144.5t93 183t33 209.5t-33 209.5t-93 183t-142.5 144.5t-181.5 94.5t-210 33.5t-210 -33.5
t-181.5 -94.5t-142.5 -144.5t-93 -183t-33 -209.5t33 -209.5t93 -183t142.5 -144.5t181.5 -94.5t210 -33.5zM836 -46q-127 0 -241.5 39t-210.5 109.5t-166.5 166.5t-109.5 210.5t-39 241.5t39 241.5t109.5 210.5t166.5 166.5t210.5 109.5t241.5 39t241.5 -39t210.5 -109.5
t166.5 -166.5t109.5 -210.5t39 -241.5t-39 -241.5t-109.5 -210.5t-166.5 -166.5t-210.5 -109.5t-241.5 -39z" />
    <glyph glyph-name="uni24C0" unicode="&#x212a;&#x20dd;" 
d="M1126 1075l-270 -295l285 -394h-127l-234 327l-87 -91v-236h-102v689h102v-333h5l310 333h118zM836 55q111 0 210 33.5t181.5 94.5t142.5 144.5t93 183t33 209.5t-33 209.5t-93 183t-142.5 144.5t-181.5 94.5t-210 33.5t-210 -33.5t-181.5 -94.5t-142.5 -144.5t-93 -183
t-33 -209.5t33 -209.5t93 -183t142.5 -144.5t181.5 -94.5t210 -33.5zM836 -46q-127 0 -241.5 39t-210.5 109.5t-166.5 166.5t-109.5 210.5t-39 241.5t39 241.5t109.5 210.5t166.5 166.5t210.5 109.5t241.5 39t241.5 -39t210.5 -109.5t166.5 -166.5t109.5 -210.5t39 -241.5
t-39 -241.5t-109.5 -210.5t-166.5 -166.5t-210.5 -109.5t-241.5 -39z" />
    <glyph glyph-name="uni24C1" unicode="L&#x20dd;" 
d="M1092 472v-86h-433v689h103v-603h330zM836 55q111 0 210 33.5t181.5 94.5t142.5 144.5t93 183t33 209.5t-33 209.5t-93 183t-142.5 144.5t-181.5 94.5t-210 33.5t-210 -33.5t-181.5 -94.5t-142.5 -144.5t-93 -183t-33 -209.5t33 -209.5t93 -183t142.5 -144.5t181.5 -94.5
t210 -33.5zM836 -46q-127 0 -241.5 39t-210.5 109.5t-166.5 166.5t-109.5 210.5t-39 241.5t39 241.5t109.5 210.5t166.5 166.5t210.5 109.5t241.5 39t241.5 -39t210.5 -109.5t166.5 -166.5t109.5 -210.5t39 -241.5t-39 -241.5t-109.5 -210.5t-166.5 -166.5t-210.5 -109.5
t-241.5 -39z" />
    <glyph glyph-name="uni24C2" unicode="M&#x20dd;" 
d="M590 386h-92v689h109l228 -565h4l227 565h108v-689h-92v521h-6l-201 -507h-78l-201 507h-6v-521zM836 55q111 0 210 33.5t181.5 94.5t142.5 144.5t93 183t33 209.5t-33 209.5t-93 183t-142.5 144.5t-181.5 94.5t-210 33.5t-210 -33.5t-181.5 -94.5t-142.5 -144.5
t-93 -183t-33 -209.5t33 -209.5t93 -183t142.5 -144.5t181.5 -94.5t210 -33.5zM836 -46q-127 0 -241.5 39t-210.5 109.5t-166.5 166.5t-109.5 210.5t-39 241.5t39 241.5t109.5 210.5t166.5 166.5t210.5 109.5t241.5 39t241.5 -39t210.5 -109.5t166.5 -166.5t109.5 -210.5
t39 -241.5t-39 -241.5t-109.5 -210.5t-166.5 -166.5t-210.5 -109.5t-241.5 -39z" />
    <glyph glyph-name="uni24C3" unicode="N&#x20dd;" 
d="M657 386h-98v689h95l356 -528h5v528h98v-689h-95l-356 529h-5v-529zM836 55q111 0 210 33.5t181.5 94.5t142.5 144.5t93 183t33 209.5t-33 209.5t-93 183t-142.5 144.5t-181.5 94.5t-210 33.5t-210 -33.5t-181.5 -94.5t-142.5 -144.5t-93 -183t-33 -209.5t33 -209.5
t93 -183t142.5 -144.5t181.5 -94.5t210 -33.5zM836 -46q-127 0 -241.5 39t-210.5 109.5t-166.5 166.5t-109.5 210.5t-39 241.5t39 241.5t109.5 210.5t166.5 166.5t210.5 109.5t241.5 39t241.5 -39t210.5 -109.5t166.5 -166.5t109.5 -210.5t39 -241.5t-39 -241.5
t-109.5 -210.5t-166.5 -166.5t-210.5 -109.5t-241.5 -39z" />
    <glyph glyph-name="uni24C4" unicode="O&#x20dd;" 
d="M836 456q63 0 112 33t77 94t28 147t-28 147t-77 94t-112 33t-112 -33t-77.5 -94t-28.5 -147t28.5 -147t77.5 -94t112 -33zM836 372q-91 0 -164 43t-115 123t-42 192t42 192t115 123t164 43t163.5 -43t115 -123t42.5 -192t-42.5 -192t-115 -123t-163.5 -43zM836 55
q111 0 210 33.5t181.5 94.5t142.5 144.5t93 183t33 209.5t-33 209.5t-93 183t-142.5 144.5t-181.5 94.5t-210 33.5t-210 -33.5t-181.5 -94.5t-142.5 -144.5t-93 -183t-33 -209.5t33 -209.5t93 -183t142.5 -144.5t181.5 -94.5t210 -33.5zM836 -46q-127 0 -241.5 39
t-210.5 109.5t-166.5 166.5t-109.5 210.5t-39 241.5t39 241.5t109.5 210.5t166.5 166.5t210.5 109.5t241.5 39t241.5 -39t210.5 -109.5t166.5 -166.5t109.5 -210.5t39 -241.5t-39 -241.5t-109.5 -210.5t-166.5 -166.5t-210.5 -109.5t-241.5 -39z" />
    <glyph glyph-name="uni24C5" unicode="P&#x20dd;" 
d="M892 1075q71 0 123.5 -29t80.5 -78.5t28 -112.5t-28 -112.5t-80.5 -78t-123.5 -28.5h-165v-250h-102v689h267zM1019 855q0 64 -38 101t-103 37h-151v-276h151q65 0 103 37t38 101zM836 55q111 0 210 33.5t181.5 94.5t142.5 144.5t93 183t33 209.5t-33 209.5t-93 183
t-142.5 144.5t-181.5 94.5t-210 33.5t-210 -33.5t-181.5 -94.5t-142.5 -144.5t-93 -183t-33 -209.5t33 -209.5t93 -183t142.5 -144.5t181.5 -94.5t210 -33.5zM836 -46q-127 0 -241.5 39t-210.5 109.5t-166.5 166.5t-109.5 210.5t-39 241.5t39 241.5t109.5 210.5t166.5 166.5
t210.5 109.5t241.5 39t241.5 -39t210.5 -109.5t166.5 -166.5t109.5 -210.5t39 -241.5t-39 -241.5t-109.5 -210.5t-166.5 -166.5t-210.5 -109.5t-241.5 -39z" />
    <glyph glyph-name="uni24C6" unicode="Q&#x20dd;" 
d="M1121 311h-102l-62 84q-55 -23 -121 -23q-91 0 -164 43t-115 123t-42 192t42 192t115 123t164 43t163.5 -43t115 -123t42.5 -192q0 -100 -34 -174.5t-93 -119.5zM836 456q38 0 68 12l-88 122h101l57 -78q37 34 58 90t21 128q0 86 -28 147t-77 94t-112 33t-112 -33
t-77.5 -94t-28.5 -147t28.5 -147t77.5 -94t112 -33zM836 55q111 0 210 33.5t181.5 94.5t142.5 144.5t93 183t33 209.5t-33 209.5t-93 183t-142.5 144.5t-181.5 94.5t-210 33.5t-210 -33.5t-181.5 -94.5t-142.5 -144.5t-93 -183t-33 -209.5t33 -209.5t93 -183t142.5 -144.5
t181.5 -94.5t210 -33.5zM836 -46q-127 0 -241.5 39t-210.5 109.5t-166.5 166.5t-109.5 210.5t-39 241.5t39 241.5t109.5 210.5t166.5 166.5t210.5 109.5t241.5 39t241.5 -39t210.5 -109.5t166.5 -166.5t109.5 -210.5t39 -241.5t-39 -241.5t-109.5 -210.5t-166.5 -166.5
t-210.5 -109.5t-241.5 -39z" />
    <glyph glyph-name="uni24C7" unicode="R&#x20dd;" 
d="M865 1075q73 0 126 -26.5t82 -73.5t29 -111q0 -74 -41.5 -125t-100.5 -69l153 -284h-115l-140 269h-159v-269h-101v689h267zM699 733h151q67 0 106.5 33.5t39.5 95.5t-39.5 97t-103.5 35h-154v-261zM836 55q111 0 210 33.5t181.5 94.5t142.5 144.5t93 183t33 209.5
t-33 209.5t-93 183t-142.5 144.5t-181.5 94.5t-210 33.5t-210 -33.5t-181.5 -94.5t-142.5 -144.5t-93 -183t-33 -209.5t33 -209.5t93 -183t142.5 -144.5t181.5 -94.5t210 -33.5zM836 -46q-127 0 -241.5 39t-210.5 109.5t-166.5 166.5t-109.5 210.5t-39 241.5t39 241.5
t109.5 210.5t166.5 166.5t210.5 109.5t241.5 39t241.5 -39t210.5 -109.5t166.5 -166.5t109.5 -210.5t39 -241.5t-39 -241.5t-109.5 -210.5t-166.5 -166.5t-210.5 -109.5t-241.5 -39z" />
    <glyph glyph-name="uni24C8" unicode="S&#x20dd;" 
d="M563 575h101q3 -35 26.5 -62.5t62 -43.5t85.5 -16q72 0 118.5 33.5t46.5 85.5q0 39 -31.5 65.5t-98.5 43.5l-115 27q-175 41 -175 181q0 59 32.5 104.5t90 71t133.5 25.5q74 0 131.5 -25t90 -69t33.5 -103h-98q-5 51 -49 84t-109 33q-43 0 -77.5 -15.5t-54.5 -42
t-20 -58.5q0 -34 30 -60.5t83 -39.5l114 -26q100 -24 145.5 -68.5t45.5 -118.5q0 -64 -33.5 -110.5t-94.5 -72t-145 -25.5q-80 0 -139.5 25t-93 70.5t-35.5 106.5zM836 55q111 0 210 33.5t181.5 94.5t142.5 144.5t93 183t33 209.5t-33 209.5t-93 183t-142.5 144.5
t-181.5 94.5t-210 33.5t-210 -33.5t-181.5 -94.5t-142.5 -144.5t-93 -183t-33 -209.5t33 -209.5t93 -183t142.5 -144.5t181.5 -94.5t210 -33.5zM836 -46q-127 0 -241.5 39t-210.5 109.5t-166.5 166.5t-109.5 210.5t-39 241.5t39 241.5t109.5 210.5t166.5 166.5t210.5 109.5
t241.5 39t241.5 -39t210.5 -109.5t166.5 -166.5t109.5 -210.5t39 -241.5t-39 -241.5t-109.5 -210.5t-166.5 -166.5t-210.5 -109.5t-241.5 -39z" />
    <glyph glyph-name="uni24C9" unicode="T&#x20dd;" 
d="M888 366h-104v605h-219v84h542v-84h-219v-605zM836 55q111 0 210 33.5t181.5 94.5t142.5 144.5t93 183t33 209.5t-33 209.5t-93 183t-142.5 144.5t-181.5 94.5t-210 33.5t-210 -33.5t-181.5 -94.5t-142.5 -144.5t-93 -183t-33 -209.5t33 -209.5t93 -183t142.5 -144.5
t181.5 -94.5t210 -33.5zM836 -46q-127 0 -241.5 39t-210.5 109.5t-166.5 166.5t-109.5 210.5t-39 241.5t39 241.5t109.5 210.5t166.5 166.5t210.5 109.5t241.5 39t241.5 -39t210.5 -109.5t166.5 -166.5t109.5 -210.5t39 -241.5t-39 -241.5t-109.5 -210.5t-166.5 -166.5
t-210.5 -109.5t-241.5 -39z" />
    <glyph glyph-name="uni24CA" unicode="U&#x20dd;" 
d="M836 436q78 0 127.5 45.5t49.5 125.5v446h102v-453q0 -76 -35 -131.5t-98 -86.5t-146 -31t-146 31t-98 86.5t-35 131.5v453h102v-446q0 -80 49.5 -125.5t127.5 -45.5zM836 55q111 0 210 33.5t181.5 94.5t142.5 144.5t93 183t33 209.5t-33 209.5t-93 183t-142.5 144.5
t-181.5 94.5t-210 33.5t-210 -33.5t-181.5 -94.5t-142.5 -144.5t-93 -183t-33 -209.5t33 -209.5t93 -183t142.5 -144.5t181.5 -94.5t210 -33.5zM836 -46q-127 0 -241.5 39t-210.5 109.5t-166.5 166.5t-109.5 210.5t-39 241.5t39 241.5t109.5 210.5t166.5 166.5t210.5 109.5
t241.5 39t241.5 -39t210.5 -109.5t166.5 -166.5t109.5 -210.5t39 -241.5t-39 -241.5t-109.5 -210.5t-166.5 -166.5t-210.5 -109.5t-241.5 -39z" />
    <glyph glyph-name="uni24CB" unicode="V&#x20dd;" 
d="M773 364l-253 689h118l195 -581h6l195 581h118l-253 -689h-126zM836 55q111 0 210 33.5t181.5 94.5t142.5 144.5t93 183t33 209.5t-33 209.5t-93 183t-142.5 144.5t-181.5 94.5t-210 33.5t-210 -33.5t-181.5 -94.5t-142.5 -144.5t-93 -183t-33 -209.5t33 -209.5t93 -183
t142.5 -144.5t181.5 -94.5t210 -33.5zM836 -46q-127 0 -241.5 39t-210.5 109.5t-166.5 166.5t-109.5 210.5t-39 241.5t39 241.5t109.5 210.5t166.5 166.5t210.5 109.5t241.5 39t241.5 -39t210.5 -109.5t166.5 -166.5t109.5 -210.5t39 -241.5t-39 -241.5t-109.5 -210.5
t-166.5 -166.5t-210.5 -109.5t-241.5 -39z" />
    <glyph glyph-name="uni24CC" unicode="W&#x20dd;" 
d="M836 903l-148 -539h-100l-188 689h112l129 -554h6l145 554h93l145 -554h5l129 554h112l-187 -689h-101l-148 539h-4zM836 55q111 0 210 33.5t181.5 94.5t142.5 144.5t93 183t33 209.5t-33 209.5t-93 183t-142.5 144.5t-181.5 94.5t-210 33.5t-210 -33.5t-181.5 -94.5
t-142.5 -144.5t-93 -183t-33 -209.5t33 -209.5t93 -183t142.5 -144.5t181.5 -94.5t210 -33.5zM836 -46q-127 0 -241.5 39t-210.5 109.5t-166.5 166.5t-109.5 210.5t-39 241.5t39 241.5t109.5 210.5t166.5 166.5t210.5 109.5t241.5 39t241.5 -39t210.5 -109.5t166.5 -166.5
t109.5 -210.5t39 -241.5t-39 -241.5t-109.5 -210.5t-166.5 -166.5t-210.5 -109.5t-241.5 -39z" />
    <glyph glyph-name="uni24CD" unicode="X&#x20dd;" 
d="M1123 1079l-232 -346l228 -343h-119l-173 268h-5l-174 -268h-114l228 346l-226 343h122l171 -271h6l171 271h117zM836 55q111 0 210 33.5t181.5 94.5t142.5 144.5t93 183t33 209.5t-33 209.5t-93 183t-142.5 144.5t-181.5 94.5t-210 33.5t-210 -33.5t-181.5 -94.5
t-142.5 -144.5t-93 -183t-33 -209.5t33 -209.5t93 -183t142.5 -144.5t181.5 -94.5t210 -33.5zM836 -46q-127 0 -241.5 39t-210.5 109.5t-166.5 166.5t-109.5 210.5t-39 241.5t39 241.5t109.5 210.5t166.5 166.5t210.5 109.5t241.5 39t241.5 -39t210.5 -109.5t166.5 -166.5
t109.5 -210.5t39 -241.5t-39 -241.5t-109.5 -210.5t-166.5 -166.5t-210.5 -109.5t-241.5 -39z" />
    <glyph glyph-name="uni24CE" unicode="Y&#x20dd;" 
d="M888 387h-103v281l-252 407h116l186 -308h4l186 308h113l-250 -405v-283zM836 55q111 0 210 33.5t181.5 94.5t142.5 144.5t93 183t33 209.5t-33 209.5t-93 183t-142.5 144.5t-181.5 94.5t-210 33.5t-210 -33.5t-181.5 -94.5t-142.5 -144.5t-93 -183t-33 -209.5t33 -209.5
t93 -183t142.5 -144.5t181.5 -94.5t210 -33.5zM836 -46q-127 0 -241.5 39t-210.5 109.5t-166.5 166.5t-109.5 210.5t-39 241.5t39 241.5t109.5 210.5t166.5 166.5t210.5 109.5t241.5 39t241.5 -39t210.5 -109.5t166.5 -166.5t109.5 -210.5t39 -241.5t-39 -241.5
t-109.5 -210.5t-166.5 -166.5t-210.5 -109.5t-241.5 -39z" />
    <glyph glyph-name="uni24CF" unicode="Z&#x20dd;" 
d="M573 390v71l387 528v6h-375v84h499v-71l-385 -528v-6h394v-84h-520zM836 55q111 0 210 33.5t181.5 94.5t142.5 144.5t93 183t33 209.5t-33 209.5t-93 183t-142.5 144.5t-181.5 94.5t-210 33.5t-210 -33.5t-181.5 -94.5t-142.5 -144.5t-93 -183t-33 -209.5t33 -209.5
t93 -183t142.5 -144.5t181.5 -94.5t210 -33.5zM836 -46q-127 0 -241.5 39t-210.5 109.5t-166.5 166.5t-109.5 210.5t-39 241.5t39 241.5t109.5 210.5t166.5 166.5t210.5 109.5t241.5 39t241.5 -39t210.5 -109.5t166.5 -166.5t109.5 -210.5t39 -241.5t-39 -241.5
t-109.5 -210.5t-166.5 -166.5t-210.5 -109.5t-241.5 -39z" />
    <glyph glyph-name="u1F10B" unicode="&#x23;&#x20dd;" 
d="M836 461q73 0 117 72t44 198q0 125 -44 197.5t-117 72.5t-117 -72.5t-44 -197.5q0 -126 44 -198t117 -72zM836 373q-76 0 -134.5 43t-91.5 123t-33 192q0 111 33 191t91.5 123t134.5 43t134.5 -43t91.5 -123t33 -191q0 -112 -33 -192t-91.5 -123t-134.5 -43zM836 55
q111 0 210 33.5t181.5 94.5t142.5 144.5t93 183t33 209.5t-33 209.5t-93 183t-142.5 144.5t-181.5 94.5t-210 33.5t-210 -33.5t-181.5 -94.5t-142.5 -144.5t-93 -183t-33 -209.5t33 -209.5t93 -183t142.5 -144.5t181.5 -94.5t210 -33.5zM836 -46q-127 0 -241.5 39
t-210.5 109.5t-166.5 166.5t-109.5 210.5t-39 241.5t39 241.5t109.5 210.5t166.5 166.5t210.5 109.5t241.5 39t241.5 -39t210.5 -109.5t166.5 -166.5t109.5 -210.5t39 -241.5t-39 -241.5t-109.5 -210.5t-166.5 -166.5t-210.5 -109.5t-241.5 -39z" />
    <glyph glyph-name="u1F10C" unicode="&#x30;&#x20dd;&#x25cf;" 
d="M833 441q-76 0 -120.5 76.5t-44.5 213.5q0 136 44.5 213t120.5 77t120.5 -77t44.5 -213q0 -137 -44.5 -213.5t-120.5 -76.5zM833 340q87 0 151.5 47.5t100 135t35.5 208.5q0 120 -35.5 207.5t-100 135t-151.5 47.5q-86 0 -151 -47.5t-100.5 -135t-35.5 -207.5
q0 -121 35.5 -208.5t100.5 -135t151 -47.5zM836 -46q-127 0 -241.5 39t-210.5 109.5t-166.5 166.5t-109.5 210.5t-39 241.5t39 241.5t109.5 210.5t166.5 166.5t210.5 109.5t241.5 39t241.5 -39t210.5 -109.5t166.5 -166.5t109.5 -210.5t39 -241.5t-39 -241.5t-109.5 -210.5
t-166.5 -166.5t-210.5 -109.5t-241.5 -39z" />
    <glyph glyph-name="uni278A" unicode="&#x31;&#x20dd;&#x25cf;" 
d="M929 360v751h-118l-190 -130v-114l186 126h2v-633h120zM836 -46q-127 0 -241.5 39t-210.5 109.5t-166.5 166.5t-109.5 210.5t-39 241.5t39 241.5t109.5 210.5t166.5 166.5t210.5 109.5t241.5 39t241.5 -39t210.5 -109.5t166.5 -166.5t109.5 -210.5t39 -241.5t-39 -241.5
t-109.5 -210.5t-166.5 -166.5t-210.5 -109.5t-241.5 -39z" />
    <glyph glyph-name="uni278B" unicode="&#x32;&#x20dd;&#x25cf;" 
d="M693 892v8q1 53 38 90.5t100 37.5q56 0 94.5 -33t38.5 -86q0 -47 -24.5 -84.5t-61.5 -77.5l-294 -313v-75h518v99h-354v1l216 231q55 59 88 110t33 116q0 60 -32 107t-89 74t-131 27q-84 0 -141 -32t-86 -83t-30 -109v-8h117zM836 -46q-127 0 -241.5 39t-210.5 109.5
t-166.5 166.5t-109.5 210.5t-39 241.5t39 241.5t109.5 210.5t166.5 166.5t210.5 109.5t241.5 39t241.5 -39t210.5 -109.5t166.5 -166.5t109.5 -210.5t39 -241.5t-39 -241.5t-109.5 -210.5t-166.5 -166.5t-210.5 -109.5t-241.5 -39z" />
    <glyph glyph-name="uni278C" unicode="&#x33;&#x20dd;&#x25cf;" 
d="M746 699h93q67 0 110 -36t44 -92q0 -58 -44 -94t-118 -36q-64 1 -107.5 32.5t-50.5 74.5h-112q4 -57 37 -103t92 -73t140 -27q79 0 144 27.5t103 77.5t37 119q-1 57 -26.5 96t-63.5 61t-77 26v1q32 7 65 30t55 60.5t22 87.5q-1 55 -33.5 99t-89.5 70t-133 26
q-78 0 -133.5 -27t-87 -72t-34.5 -102h114q5 43 42.5 74t96.5 31q62 0 100 -32.5t38 -82.5q0 -51 -38 -85.5t-98 -34.5h-87v-96zM836 -46q-127 0 -241.5 39t-210.5 109.5t-166.5 166.5t-109.5 210.5t-39 241.5t39 241.5t109.5 210.5t166.5 166.5t210.5 109.5t241.5 39
t241.5 -39t210.5 -109.5t166.5 -166.5t109.5 -210.5t39 -241.5t-39 -241.5t-109.5 -210.5t-166.5 -166.5t-210.5 -109.5t-241.5 -39z" />
    <glyph glyph-name="uni278D" unicode="&#x34;&#x20dd;&#x25cf;" 
d="M829 1111q-99 -152 -183.5 -282.5t-135.5 -219.5v-97h375v-152h116v152h104v98h-104v501h-172zM885 610h-259v2q25 42 57.5 94.5t68.5 107.5t70 106.5t62 92.5h1v-403zM836 -46q-127 0 -241.5 39t-210.5 109.5t-166.5 166.5t-109.5 210.5t-39 241.5t39 241.5t109.5 210.5
t166.5 166.5t210.5 109.5t241.5 39t241.5 -39t210.5 -109.5t166.5 -166.5t109.5 -210.5t39 -241.5t-39 -241.5t-109.5 -210.5t-166.5 -166.5t-210.5 -109.5t-241.5 -39z" />
    <glyph glyph-name="uni278E" unicode="&#x35;&#x20dd;&#x25cf;" 
d="M568 547q3 -57 37.5 -102.5t93 -72t132.5 -26.5q84 0 148 32.5t100.5 91.5t36.5 138q0 75 -34 130t-91.5 85t-126.5 30q-61 0 -103 -22.5t-61 -47.5h-1l19 231h355v97h-455l-34 -434h106q19 31 56 55.5t92 24.5q44 0 80 -19t57.5 -53.5t21.5 -80.5q0 -50 -22.5 -86
t-59 -55.5t-78.5 -19.5q-36 0 -69.5 12.5t-57 35.5t-29.5 56h-113zM836 -46q-127 0 -241.5 39t-210.5 109.5t-166.5 166.5t-109.5 210.5t-39 241.5t39 241.5t109.5 210.5t166.5 166.5t210.5 109.5t241.5 39t241.5 -39t210.5 -109.5t166.5 -166.5t109.5 -210.5t39 -241.5
t-39 -241.5t-109.5 -210.5t-166.5 -166.5t-210.5 -109.5t-241.5 -39z" />
    <glyph glyph-name="uni278F" unicode="&#x36;&#x20dd;&#x25cf;" 
d="M866 349q84 0 150 34t104 93.5t38 135.5q0 70 -33.5 125.5t-92.5 87.5t-135 32q-82 0 -142 -37t-82 -93h-2q-1 139 49.5 219.5t147.5 80.5q57 0 98 -26.5t56 -72.5h124q-11 60 -49.5 106t-97.5 71.5t-131 25.5q-99 0 -170 -48t-109.5 -138t-38.5 -215q0 -100 25.5 -172
t70 -118.5t101.5 -68.5t119 -22zM864 452q-48 0 -86.5 21t-61.5 57t-23 81q0 43 23 76.5t62 53.5t88 20t87 -20t60 -54.5t22 -79.5q0 -43 -23 -78t-62 -56t-86 -21zM836 -46q-127 0 -241.5 39t-210.5 109.5t-166.5 166.5t-109.5 210.5t-39 241.5t39 241.5t109.5 210.5
t166.5 166.5t210.5 109.5t241.5 39t241.5 -39t210.5 -109.5t166.5 -166.5t109.5 -210.5t39 -241.5t-39 -241.5t-109.5 -210.5t-166.5 -166.5t-210.5 -109.5t-241.5 -39z" />
    <glyph glyph-name="uni2790" unicode="&#x37;&#x20dd;&#x25cf;" 
d="M588 1104v-100h395v-2l-328 -649h129l321 652v99h-517zM836 -46q-127 0 -241.5 39t-210.5 109.5t-166.5 166.5t-109.5 210.5t-39 241.5t39 241.5t109.5 210.5t166.5 166.5t210.5 109.5t241.5 39t241.5 -39t210.5 -109.5t166.5 -166.5t109.5 -210.5t39 -241.5t-39 -241.5
t-109.5 -210.5t-166.5 -166.5t-210.5 -109.5t-241.5 -39z" />
    <glyph glyph-name="uni2791" unicode="&#x38;&#x20dd;&#x25cf;" 
d="M834 796q-62 0 -101.5 33.5t-39.5 85.5q0 53 39.5 86t101.5 33q61 0 101 -33t40 -86q0 -52 -40 -85.5t-101 -33.5zM834 436q-49 0 -87.5 18t-60.5 49t-22 70t22 69.5t60.5 48.5t87.5 18t87 -18t60 -48.5t22 -69.5t-22 -70t-60 -49t-87 -18zM834 345q85 0 150 28t102 78
t37 116q0 68 -44 119.5t-117 67.5v1q61 19 95.5 65t34.5 106q0 58 -33 103.5t-91 71t-134 25.5t-134 -25.5t-91 -71t-33 -103.5q0 -60 34.5 -105.5t95.5 -65.5v-1q-73 -16 -117 -67.5t-44 -119.5q0 -66 36.5 -116t102 -78t150.5 -28zM836 -46q-127 0 -241.5 39t-210.5 109.5
t-166.5 166.5t-109.5 210.5t-39 241.5t39 241.5t109.5 210.5t166.5 166.5t210.5 109.5t241.5 39t241.5 -39t210.5 -109.5t166.5 -166.5t109.5 -210.5t39 -241.5t-39 -241.5t-109.5 -210.5t-166.5 -166.5t-210.5 -109.5t-241.5 -39z" />
    <glyph glyph-name="uni2792" unicode="&#x39;&#x20dd;&#x25cf;" 
d="M840 349q99 0 170.5 48.5t109.5 138t38 213.5q0 105 -27 178t-72.5 118t-101.5 65.5t-115 20.5q-85 0 -150.5 -34t-103.5 -93.5t-38 -136.5q0 -72 35 -127.5t94.5 -86.5t134.5 -31q79 0 139 36.5t83 94.5h2q1 -145 -51.5 -223t-146.5 -78q-59 0 -100 26t-55 71h-124
q10 -59 48.5 -104t98 -70.5t132.5 -25.5zM842 720q-49 0 -87 19.5t-60 54t-22 78.5t23 79t61.5 55.5t86.5 20.5q49 0 87.5 -21t61 -56.5t22.5 -80.5q0 -43 -23 -76.5t-62 -53t-88 -19.5zM836 -46q-127 0 -241.5 39t-210.5 109.5t-166.5 166.5t-109.5 210.5t-39 241.5
t39 241.5t109.5 210.5t166.5 166.5t210.5 109.5t241.5 39t241.5 -39t210.5 -109.5t166.5 -166.5t109.5 -210.5t39 -241.5t-39 -241.5t-109.5 -210.5t-166.5 -166.5t-210.5 -109.5t-241.5 -39z" />
    <glyph glyph-name="u1F130" unicode="A&#x20de;" 
d="M724 668h225l-109 312h-8zM630 392h-104l251 689h118l251 -689h-104l-69 199h-273zM335 1462h1002q68 0 121.5 -31t85 -84.5t31.5 -120.5v-1009q0 -67 -31.5 -120t-85 -84t-121.5 -31h-1002q-67 0 -121 31t-86 84t-32 120v1009q0 67 32 120.5t86 84.5t121 31zM1474 1225
q0 41 -19 74t-52.5 51.5t-75.5 18.5h-982q-64 0 -105.5 -40.5t-41.5 -103.5v-1006q0 -63 41.5 -103.5t105.5 -40.5h982q64 0 105.5 40.5t41.5 103.5v1006z" />
    <glyph glyph-name="u1F131" unicode="B&#x20de;" 
d="M606 389v689h277q94 0 150 -47t56 -123q0 -62 -33.5 -101t-84.5 -51v-5q67 -7 112 -50.5t45 -118.5q0 -91 -67.5 -142t-178.5 -51h-276zM707 999v-218h125q78 0 117 30t39 80t-33 79t-94 29h-154zM707 707v-239h134q95 0 138.5 29t43.5 88q0 56 -38 89t-109 33h-169z
M335 1462h1002q68 0 121.5 -31t85 -84.5t31.5 -120.5v-1009q0 -67 -31.5 -120t-85 -84t-121.5 -31h-1002q-67 0 -121 31t-86 84t-32 120v1009q0 67 32 120.5t86 84.5t121 31zM1474 1225q0 41 -19 74t-52.5 51.5t-75.5 18.5h-982q-64 0 -105.5 -40.5t-41.5 -103.5v-1006
q0 -63 41.5 -103.5t105.5 -40.5h982q64 0 105.5 40.5t41.5 103.5v1006z" />
    <glyph glyph-name="u1F132" unicode="C&#x20de;" 
d="M1024 596h104q-9 -66 -48 -116.5t-101 -79t-142 -28.5q-94 0 -165.5 45t-111 126t-39.5 187t39.5 187t111 126t165.5 45q80 0 143.5 -29.5t102 -82t46.5 -121.5h-102q-6 44 -31.5 77.5t-66 52.5t-90.5 19q-64 0 -112.5 -34.5t-75.5 -96t-27 -143.5t27 -143.5t75.5 -96
t112.5 -34.5q74 0 125 39.5t60 100.5zM335 1462h1002q68 0 121.5 -31t85 -84.5t31.5 -120.5v-1009q0 -67 -31.5 -120t-85 -84t-121.5 -31h-1002q-67 0 -121 31t-86 84t-32 120v1009q0 67 32 120.5t86 84.5t121 31zM1474 1225q0 41 -19 74t-52.5 51.5t-75.5 18.5h-982
q-64 0 -105.5 -40.5t-41.5 -103.5v-1006q0 -63 41.5 -103.5t105.5 -40.5h982q64 0 105.5 40.5t41.5 103.5v1006z" />
    <glyph glyph-name="u1F133" unicode="D&#x20de;" 
d="M587 1071h238q155 0 235.5 -89.5t80.5 -249.5q0 -163 -80.5 -252.5t-235.5 -89.5h-238v681zM689 988v-515h123q222 0 222 258q0 125 -56.5 191t-165.5 66h-123zM335 1462h1002q68 0 121.5 -31t85 -84.5t31.5 -120.5v-1009q0 -67 -31.5 -120t-85 -84t-121.5 -31h-1002
q-67 0 -121 31t-86 84t-32 120v1009q0 67 32 120.5t86 84.5t121 31zM1474 1225q0 41 -19 74t-52.5 51.5t-75.5 18.5h-982q-64 0 -105.5 -40.5t-41.5 -103.5v-1006q0 -63 41.5 -103.5t105.5 -40.5h982q64 0 105.5 40.5t41.5 103.5v1006z" />
    <glyph glyph-name="u1F134" unicode="E&#x20de;" 
d="M1063 469v-83h-445v689h445v-83h-343v-216h324v-79h-324v-228h343zM335 1462h1002q68 0 121.5 -31t85 -84.5t31.5 -120.5v-1009q0 -67 -31.5 -120t-85 -84t-121.5 -31h-1002q-67 0 -121 31t-86 84t-32 120v1009q0 67 32 120.5t86 84.5t121 31zM1474 1225q0 41 -19 74
t-52.5 51.5t-75.5 18.5h-982q-64 0 -105.5 -40.5t-41.5 -103.5v-1006q0 -63 41.5 -103.5t105.5 -40.5h982q64 0 105.5 40.5t41.5 103.5v1006z" />
    <glyph glyph-name="u1F135" unicode="F&#x20de;" 
d="M749 386h-103v689h439v-84h-336v-229h308v-82h-308v-294zM335 1462h1002q68 0 121.5 -31t85 -84.5t31.5 -120.5v-1009q0 -67 -31.5 -120t-85 -84t-121.5 -31h-1002q-67 0 -121 31t-86 84t-32 120v1009q0 67 32 120.5t86 84.5t121 31zM1474 1225q0 41 -19 74t-52.5 51.5
t-75.5 18.5h-982q-64 0 -105.5 -40.5t-41.5 -103.5v-1006q0 -63 41.5 -103.5t105.5 -40.5h982q64 0 105.5 40.5t41.5 103.5v1006z" />
    <glyph glyph-name="u1F136" unicode="G&#x20de;" 
d="M1026 616v52h-182v77h280v-108q0 -78 -33 -137.5t-96.5 -93.5t-155.5 -34q-94 0 -166 45t-112 126t-40 187t40 187t112 126t166 45q78 0 140 -28t101 -78.5t48 -116.5h-102q-7 40 -32.5 71.5t-65 49.5t-88.5 18q-65 0 -113.5 -34t-75.5 -96t-27 -144t27 -143.5t75.5 -96
t113.5 -34.5q89 0 137.5 44t48.5 116zM335 1462h1002q68 0 121.5 -31t85 -84.5t31.5 -120.5v-1009q0 -67 -31.5 -120t-85 -84t-121.5 -31h-1002q-67 0 -121 31t-86 84t-32 120v1009q0 67 32 120.5t86 84.5t121 31zM1474 1225q0 41 -19 74t-52.5 51.5t-75.5 18.5h-982
q-64 0 -105.5 -40.5t-41.5 -103.5v-1006q0 -63 41.5 -103.5t105.5 -40.5h982q64 0 105.5 40.5t41.5 103.5v1006z" />
    <glyph glyph-name="u1F137" unicode="H&#x20de;" 
d="M1116 386h-102v314h-355v-314h-103v689h103v-292h355v292h102v-689zM335 1462h1002q68 0 121.5 -31t85 -84.5t31.5 -120.5v-1009q0 -67 -31.5 -120t-85 -84t-121.5 -31h-1002q-67 0 -121 31t-86 84t-32 120v1009q0 67 32 120.5t86 84.5t121 31zM1474 1225q0 41 -19 74
t-52.5 51.5t-75.5 18.5h-982q-64 0 -105.5 -40.5t-41.5 -103.5v-1006q0 -63 41.5 -103.5t105.5 -40.5h982q64 0 105.5 40.5t41.5 103.5v1006z" />
    <glyph glyph-name="u1F138" unicode="I&#x20de;" 
d="M888 386h-104v689h104v-689zM335 1462h1002q68 0 121.5 -31t85 -84.5t31.5 -120.5v-1009q0 -67 -31.5 -120t-85 -84t-121.5 -31h-1002q-67 0 -121 31t-86 84t-32 120v1009q0 67 32 120.5t86 84.5t121 31zM1474 1225q0 41 -19 74t-52.5 51.5t-75.5 18.5h-982
q-64 0 -105.5 -40.5t-41.5 -103.5v-1006q0 -63 41.5 -103.5t105.5 -40.5h982q64 0 105.5 40.5t41.5 103.5v1006z" />
    <glyph glyph-name="u1F139" unicode="J&#x20de;" 
d="M586 566h100q1 -46 34 -75.5t83 -29.5q58 0 88 35t30 94v485h102v-482q0 -104 -59 -162t-161 -58q-68 0 -116 25.5t-74 69.5t-27 98zM335 1462h1002q68 0 121.5 -31t85 -84.5t31.5 -120.5v-1009q0 -67 -31.5 -120t-85 -84t-121.5 -31h-1002q-67 0 -121 31t-86 84t-32 120
v1009q0 67 32 120.5t86 84.5t121 31zM1474 1225q0 41 -19 74t-52.5 51.5t-75.5 18.5h-982q-64 0 -105.5 -40.5t-41.5 -103.5v-1006q0 -63 41.5 -103.5t105.5 -40.5h982q64 0 105.5 40.5t41.5 103.5v1006z" />
    <glyph glyph-name="u1F13A" unicode="&#x212a;&#x20de;" 
d="M1126 1075l-270 -295l285 -394h-127l-234 327l-87 -91v-236h-102v689h102v-333h5l310 333h118zM335 1462h1002q68 0 121.5 -31t85 -84.5t31.5 -120.5v-1009q0 -67 -31.5 -120t-85 -84t-121.5 -31h-1002q-67 0 -121 31t-86 84t-32 120v1009q0 67 32 120.5t86 84.5t121 31z
M1474 1225q0 41 -19 74t-52.5 51.5t-75.5 18.5h-982q-64 0 -105.5 -40.5t-41.5 -103.5v-1006q0 -63 41.5 -103.5t105.5 -40.5h982q64 0 105.5 40.5t41.5 103.5v1006z" />
    <glyph glyph-name="u1F13B" unicode="L&#x20de;" 
d="M1099 472v-86h-433v689h103v-603h330zM335 1462h1002q68 0 121.5 -31t85 -84.5t31.5 -120.5v-1009q0 -67 -31.5 -120t-85 -84t-121.5 -31h-1002q-67 0 -121 31t-86 84t-32 120v1009q0 67 32 120.5t86 84.5t121 31zM1474 1225q0 41 -19 74t-52.5 51.5t-75.5 18.5h-982
q-64 0 -105.5 -40.5t-41.5 -103.5v-1006q0 -63 41.5 -103.5t105.5 -40.5h982q64 0 105.5 40.5t41.5 103.5v1006z" />
    <glyph glyph-name="u1F13C" unicode="M&#x20de;" 
d="M590 386h-92v689h109l228 -565h4l227 565h108v-689h-92v521h-6l-201 -507h-78l-201 507h-6v-521zM335 1462h1002q68 0 121.5 -31t85 -84.5t31.5 -120.5v-1009q0 -67 -31.5 -120t-85 -84t-121.5 -31h-1002q-67 0 -121 31t-86 84t-32 120v1009q0 67 32 120.5t86 84.5
t121 31zM1474 1225q0 41 -19 74t-52.5 51.5t-75.5 18.5h-982q-64 0 -105.5 -40.5t-41.5 -103.5v-1006q0 -63 41.5 -103.5t105.5 -40.5h982q64 0 105.5 40.5t41.5 103.5v1006z" />
    <glyph glyph-name="u1F13D" unicode="N&#x20de;" 
d="M657 386h-98v689h95l356 -528h5v528h98v-689h-95l-356 529h-5v-529zM335 1462h1002q68 0 121.5 -31t85 -84.5t31.5 -120.5v-1009q0 -67 -31.5 -120t-85 -84t-121.5 -31h-1002q-67 0 -121 31t-86 84t-32 120v1009q0 67 32 120.5t86 84.5t121 31zM1474 1225q0 41 -19 74
t-52.5 51.5t-75.5 18.5h-982q-64 0 -105.5 -40.5t-41.5 -103.5v-1006q0 -63 41.5 -103.5t105.5 -40.5h982q64 0 105.5 40.5t41.5 103.5v1006z" />
    <glyph glyph-name="u1F13E" unicode="O&#x20de;" 
d="M836 456q63 0 112 33t77 94t28 147t-28 147t-77 94t-112 33t-112 -33t-77.5 -94t-28.5 -147t28.5 -147t77.5 -94t112 -33zM836 372q-91 0 -164 43t-115 123t-42 192t42 192t115 123t164 43t163.5 -43t115 -123t42.5 -192t-42.5 -192t-115 -123t-163.5 -43zM335 1462h1002
q68 0 121.5 -31t85 -84.5t31.5 -120.5v-1009q0 -67 -31.5 -120t-85 -84t-121.5 -31h-1002q-67 0 -121 31t-86 84t-32 120v1009q0 67 32 120.5t86 84.5t121 31zM1474 1225q0 41 -19 74t-52.5 51.5t-75.5 18.5h-982q-64 0 -105.5 -40.5t-41.5 -103.5v-1006q0 -63 41.5 -103.5
t105.5 -40.5h982q64 0 105.5 40.5t41.5 103.5v1006z" />
    <glyph glyph-name="u1F13F" unicode="P&#x20de;" 
d="M892 1075q71 0 123.5 -29t80.5 -78.5t28 -112.5t-28 -112.5t-80.5 -78t-123.5 -28.5h-165v-250h-102v689h267zM1019 855q0 64 -38 101t-103 37h-151v-276h151q65 0 103 37t38 101zM335 1462h1002q68 0 121.5 -31t85 -84.5t31.5 -120.5v-1009q0 -67 -31.5 -120t-85 -84
t-121.5 -31h-1002q-67 0 -121 31t-86 84t-32 120v1009q0 67 32 120.5t86 84.5t121 31zM1474 1225q0 41 -19 74t-52.5 51.5t-75.5 18.5h-982q-64 0 -105.5 -40.5t-41.5 -103.5v-1006q0 -63 41.5 -103.5t105.5 -40.5h982q64 0 105.5 40.5t41.5 103.5v1006z" />
    <glyph glyph-name="u1F140" unicode="Q&#x20de;" 
d="M1121 311h-102l-62 84q-55 -23 -121 -23q-91 0 -164 43t-115 123t-42 192t42 192t115 123t164 43t163.5 -43t115 -123t42.5 -192q0 -100 -34 -174.5t-93 -119.5zM836 456q38 0 68 12l-88 122h101l57 -78q37 34 58 90t21 128q0 86 -28 147t-77 94t-112 33t-112 -33
t-77.5 -94t-28.5 -147t28.5 -147t77.5 -94t112 -33zM335 1462h1002q68 0 121.5 -31t85 -84.5t31.5 -120.5v-1009q0 -67 -31.5 -120t-85 -84t-121.5 -31h-1002q-67 0 -121 31t-86 84t-32 120v1009q0 67 32 120.5t86 84.5t121 31zM1474 1225q0 41 -19 74t-52.5 51.5
t-75.5 18.5h-982q-64 0 -105.5 -40.5t-41.5 -103.5v-1006q0 -63 41.5 -103.5t105.5 -40.5h982q64 0 105.5 40.5t41.5 103.5v1006z" />
    <glyph glyph-name="u1F141" unicode="R&#x20de;" 
d="M865 1075q73 0 126 -26.5t82 -73.5t29 -111q0 -74 -41.5 -125t-100.5 -69l153 -284h-115l-140 269h-159v-269h-101v689h267zM699 733h151q67 0 106.5 33.5t39.5 95.5t-39.5 97t-103.5 35h-154v-261zM335 1462h1002q68 0 121.5 -31t85 -84.5t31.5 -120.5v-1009
q0 -67 -31.5 -120t-85 -84t-121.5 -31h-1002q-67 0 -121 31t-86 84t-32 120v1009q0 67 32 120.5t86 84.5t121 31zM1474 1225q0 41 -19 74t-52.5 51.5t-75.5 18.5h-982q-64 0 -105.5 -40.5t-41.5 -103.5v-1006q0 -63 41.5 -103.5t105.5 -40.5h982q64 0 105.5 40.5t41.5 103.5
v1006z" />
    <glyph glyph-name="u1F142" unicode="S&#x20de;" 
d="M563 575h101q3 -35 26.5 -62.5t62 -43.5t85.5 -16q72 0 118.5 33.5t46.5 85.5q0 39 -31.5 65.5t-98.5 43.5l-115 27q-175 41 -175 181q0 59 32.5 104.5t90 71t133.5 25.5q74 0 131.5 -25t90 -69t33.5 -103h-98q-5 51 -49 84t-109 33q-43 0 -77.5 -15.5t-54.5 -42
t-20 -58.5q0 -34 30 -60.5t83 -39.5l114 -26q100 -24 145.5 -68.5t45.5 -118.5q0 -64 -33.5 -110.5t-94.5 -72t-145 -25.5q-80 0 -139.5 25t-93 70.5t-35.5 106.5zM335 1462h1002q68 0 121.5 -31t85 -84.5t31.5 -120.5v-1009q0 -67 -31.5 -120t-85 -84t-121.5 -31h-1002
q-67 0 -121 31t-86 84t-32 120v1009q0 67 32 120.5t86 84.5t121 31zM1474 1225q0 41 -19 74t-52.5 51.5t-75.5 18.5h-982q-64 0 -105.5 -40.5t-41.5 -103.5v-1006q0 -63 41.5 -103.5t105.5 -40.5h982q64 0 105.5 40.5t41.5 103.5v1006z" />
    <glyph glyph-name="u1F143" unicode="T&#x20de;" 
d="M888 380h-104v604h-219v85h542v-85h-219v-604zM335 1462h1002q68 0 121.5 -31t85 -84.5t31.5 -120.5v-1009q0 -67 -31.5 -120t-85 -84t-121.5 -31h-1002q-67 0 -121 31t-86 84t-32 120v1009q0 67 32 120.5t86 84.5t121 31zM1474 1225q0 41 -19 74t-52.5 51.5t-75.5 18.5
h-982q-64 0 -105.5 -40.5t-41.5 -103.5v-1006q0 -63 41.5 -103.5t105.5 -40.5h982q64 0 105.5 40.5t41.5 103.5v1006z" />
    <glyph glyph-name="u1F144" unicode="U&#x20de;" 
d="M836 450q78 0 127.5 45.5t49.5 125.5v446h102v-453q0 -76 -35 -132t-98 -87t-146 -31t-146 31t-98 87t-35 132v453h102v-446q0 -80 49.5 -125.5t127.5 -45.5zM335 1462h1002q68 0 121.5 -31t85 -84.5t31.5 -120.5v-1009q0 -67 -31.5 -120t-85 -84t-121.5 -31h-1002
q-67 0 -121 31t-86 84t-32 120v1009q0 67 32 120.5t86 84.5t121 31zM1474 1225q0 41 -19 74t-52.5 51.5t-75.5 18.5h-982q-64 0 -105.5 -40.5t-41.5 -103.5v-1006q0 -63 41.5 -103.5t105.5 -40.5h982q64 0 105.5 40.5t41.5 103.5v1006z" />
    <glyph glyph-name="u1F145" unicode="V&#x20de;" 
d="M773 378l-253 688h118l195 -580h6l195 580h118l-253 -688h-126zM335 1462h1002q68 0 121.5 -31t85 -84.5t31.5 -120.5v-1009q0 -67 -31.5 -120t-85 -84t-121.5 -31h-1002q-67 0 -121 31t-86 84t-32 120v1009q0 67 32 120.5t86 84.5t121 31zM1474 1225q0 41 -19 74
t-52.5 51.5t-75.5 18.5h-982q-64 0 -105.5 -40.5t-41.5 -103.5v-1006q0 -63 41.5 -103.5t105.5 -40.5h982q64 0 105.5 40.5t41.5 103.5v1006z" />
    <glyph glyph-name="u1F146" unicode="W&#x20de;" 
d="M836 917l-148 -539h-100l-188 688h112l129 -553h6l145 553h93l145 -553h5l129 553h112l-187 -688h-101l-148 539h-4zM335 1462h1002q68 0 121.5 -31t85 -84.5t31.5 -120.5v-1009q0 -67 -31.5 -120t-85 -84t-121.5 -31h-1002q-67 0 -121 31t-86 84t-32 120v1009
q0 67 32 120.5t86 84.5t121 31zM1474 1225q0 41 -19 74t-52.5 51.5t-75.5 18.5h-982q-64 0 -105.5 -40.5t-41.5 -103.5v-1006q0 -63 41.5 -103.5t105.5 -40.5h982q64 0 105.5 40.5t41.5 103.5v1006z" />
    <glyph glyph-name="u1F147" unicode="X&#x20de;" 
d="M1123 1079l-232 -346l228 -343h-119l-173 268h-5l-174 -268h-114l228 346l-226 343h122l171 -271h6l171 271h117zM335 1462h1002q68 0 121.5 -31t85 -84.5t31.5 -120.5v-1009q0 -67 -31.5 -120t-85 -84t-121.5 -31h-1002q-67 0 -121 31t-86 84t-32 120v1009
q0 67 32 120.5t86 84.5t121 31zM1474 1225q0 41 -19 74t-52.5 51.5t-75.5 18.5h-982q-64 0 -105.5 -40.5t-41.5 -103.5v-1006q0 -63 41.5 -103.5t105.5 -40.5h982q64 0 105.5 40.5t41.5 103.5v1006z" />
    <glyph glyph-name="u1F148" unicode="Y&#x20de;" 
d="M888 390h-103v282l-252 407h116l186 -309h4l186 309h113l-250 -406v-283zM335 1462h1002q68 0 121.5 -31t85 -84.5t31.5 -120.5v-1009q0 -67 -31.5 -120t-85 -84t-121.5 -31h-1002q-67 0 -121 31t-86 84t-32 120v1009q0 67 32 120.5t86 84.5t121 31zM1474 1225
q0 41 -19 74t-52.5 51.5t-75.5 18.5h-982q-64 0 -105.5 -40.5t-41.5 -103.5v-1006q0 -63 41.5 -103.5t105.5 -40.5h982q64 0 105.5 40.5t41.5 103.5v1006z" />
    <glyph glyph-name="u1F149" unicode="Z&#x20de;" 
d="M573 390v71l387 528v6h-375v84h499v-71l-385 -528v-6h394v-84h-520zM335 1462h1002q68 0 121.5 -31t85 -84.5t31.5 -120.5v-1009q0 -67 -31.5 -120t-85 -84t-121.5 -31h-1002q-67 0 -121 31t-86 84t-32 120v1009q0 67 32 120.5t86 84.5t121 31zM1474 1225q0 41 -19 74
t-52.5 51.5t-75.5 18.5h-982q-64 0 -105.5 -40.5t-41.5 -103.5v-1006q0 -63 41.5 -103.5t105.5 -40.5h982q64 0 105.5 40.5t41.5 103.5v1006z" />
    <glyph glyph-name="u1F150" unicode="A&#x20dd;&#x25cf;" 
d="M951 683h-230l113 324h4zM618 376l74 213h288l73 -213h126l-273 752h-140l-273 -752h125zM836 -46q-127 0 -241.5 39t-210.5 109.5t-166.5 166.5t-109.5 210.5t-39 241.5t39 241.5t109.5 210.5t166.5 166.5t210.5 109.5t241.5 39t241.5 -39t210.5 -109.5t166.5 -166.5
t109.5 -210.5t39 -241.5t-39 -241.5t-109.5 -210.5t-166.5 -166.5t-210.5 -109.5t-241.5 -39z" />
    <glyph glyph-name="u1F151" unicode="B&#x20dd;&#x25cf;" 
d="M578 360h303q124 0 197.5 56.5t73.5 154.5q0 76 -45 125.5t-121 60.5v1q56 16 89.5 60t33.5 106q0 83 -61 135t-166 52h-304v-751zM698 1017h160q62 0 96.5 -30t34.5 -82q0 -54 -41 -84t-121 -30h-129v226zM698 701h177q72 0 112.5 -33.5t40.5 -92.5q0 -61 -47 -91
t-145 -30h-138v247zM836 -46q-127 0 -241.5 39t-210.5 109.5t-166.5 166.5t-109.5 210.5t-39 241.5t39 241.5t109.5 210.5t166.5 166.5t210.5 109.5t241.5 39t241.5 -39t210.5 -109.5t166.5 -166.5t109.5 -210.5t39 -241.5t-39 -241.5t-109.5 -210.5t-166.5 -166.5
t-210.5 -109.5t-241.5 -39z" />
    <glyph glyph-name="u1F152" unicode="C&#x20dd;&#x25cf;" 
d="M1034 584q-8 -38 -34.5 -69.5t-67.5 -49.5t-92 -18q-66 0 -116.5 35.5t-79.5 99t-29 148.5q0 84 29 148t79.5 100t116.5 36q51 0 93 -20t69 -54t35 -74h122q-10 75 -52.5 132.5t-111 89.5t-157.5 32q-103 0 -181.5 -49t-122.5 -137t-44 -204t44 -204t122.5 -137
t181.5 -49q87 0 154.5 31t110 85.5t54.5 127.5h-123zM836 -46q-127 0 -241.5 39t-210.5 109.5t-166.5 166.5t-109.5 210.5t-39 241.5t39 241.5t109.5 210.5t166.5 166.5t210.5 109.5t241.5 39t241.5 -39t210.5 -109.5t166.5 -166.5t109.5 -210.5t39 -241.5t-39 -241.5
t-109.5 -210.5t-166.5 -166.5t-210.5 -109.5t-241.5 -39z" />
    <glyph glyph-name="u1F153" unicode="D&#x20dd;&#x25cf;" 
d="M572 1104v-743h263q166 0 256 95.5t90 277.5q0 178 -90 274t-256 96h-263zM693 1004h128q115 0 175.5 -69t60.5 -203q0 -137 -60.5 -204t-175.5 -67h-128v543zM836 -46q-127 0 -241.5 39t-210.5 109.5t-166.5 166.5t-109.5 210.5t-39 241.5t39 241.5t109.5 210.5
t166.5 166.5t210.5 109.5t241.5 39t241.5 -39t210.5 -109.5t166.5 -166.5t109.5 -210.5t39 -241.5t-39 -241.5t-109.5 -210.5t-166.5 -166.5t-210.5 -109.5t-241.5 -39z" />
    <glyph glyph-name="u1F154" unicode="E&#x20dd;&#x25cf;" 
d="M1083 456h-369v234h348v95h-348v223h369v100h-490v-752h490v100zM836 -46q-127 0 -241.5 39t-210.5 109.5t-166.5 166.5t-109.5 210.5t-39 241.5t39 241.5t109.5 210.5t166.5 166.5t210.5 109.5t241.5 39t241.5 -39t210.5 -109.5t166.5 -166.5t109.5 -210.5t39 -241.5
t-39 -241.5t-109.5 -210.5t-166.5 -166.5t-210.5 -109.5t-241.5 -39z" />
    <glyph glyph-name="u1F155" unicode="F&#x20dd;&#x25cf;" 
d="M743 356v316h331v100h-331v235h361v101h-482v-752h121zM836 -46q-127 0 -241.5 39t-210.5 109.5t-166.5 166.5t-109.5 210.5t-39 241.5t39 241.5t109.5 210.5t166.5 166.5t210.5 109.5t241.5 39t241.5 -39t210.5 -109.5t166.5 -166.5t109.5 -210.5t39 -241.5t-39 -241.5
t-109.5 -210.5t-166.5 -166.5t-210.5 -109.5t-241.5 -39z" />
    <glyph glyph-name="u1F156" unicode="G&#x20dd;&#x25cf;" 
d="M1036 626q0 -48 -22 -87.5t-65.5 -63t-107.5 -23.5q-66 0 -117 34t-80 96t-29 148t29 148.5t80 96.5t117 34q82 0 134 -37t60 -88h123q-9 68 -52 121.5t-111.5 84t-154.5 30.5q-103 0 -182 -49t-123.5 -137t-44.5 -204t44 -203.5t122.5 -136.5t182.5 -49q98 0 169 39
t109 106.5t38 153.5v119h-304v-103h185v-30zM836 -46q-127 0 -241.5 39t-210.5 109.5t-166.5 166.5t-109.5 210.5t-39 241.5t39 241.5t109.5 210.5t166.5 166.5t210.5 109.5t241.5 39t241.5 -39t210.5 -109.5t166.5 -166.5t109.5 -210.5t39 -241.5t-39 -241.5t-109.5 -210.5
t-166.5 -166.5t-210.5 -109.5t-241.5 -39z" />
    <glyph glyph-name="u1F157" unicode="H&#x20dd;&#x25cf;" 
d="M1144 356v752h-120v-315h-375v315h-121v-752h121v337h375v-337h120zM836 -46q-127 0 -241.5 39t-210.5 109.5t-166.5 166.5t-109.5 210.5t-39 241.5t39 241.5t109.5 210.5t166.5 166.5t210.5 109.5t241.5 39t241.5 -39t210.5 -109.5t166.5 -166.5t109.5 -210.5t39 -241.5
t-39 -241.5t-109.5 -210.5t-166.5 -166.5t-210.5 -109.5t-241.5 -39z" />
    <glyph glyph-name="u1F158" unicode="I&#x20dd;&#x25cf;" 
d="M896 356v752h-120v-752h120zM836 -46q-127 0 -241.5 39t-210.5 109.5t-166.5 166.5t-109.5 210.5t-39 241.5t39 241.5t109.5 210.5t166.5 166.5t210.5 109.5t241.5 39t241.5 -39t210.5 -109.5t166.5 -166.5t109.5 -210.5t39 -241.5t-39 -241.5t-109.5 -210.5
t-166.5 -166.5t-210.5 -109.5t-241.5 -39z" />
    <glyph glyph-name="u1F159" unicode="J&#x20dd;&#x25cf;" 
d="M562 559q1 -65 31 -113.5t83.5 -75.5t124.5 -27q114 0 178 63.5t64 177.5v524h-121v-528q0 -63 -31.5 -97.5t-91.5 -34.5q-52 0 -85 31t-34 80h-118zM836 -46q-127 0 -241.5 39t-210.5 109.5t-166.5 166.5t-109.5 210.5t-39 241.5t39 241.5t109.5 210.5t166.5 166.5
t210.5 109.5t241.5 39t241.5 -39t210.5 -109.5t166.5 -166.5t109.5 -210.5t39 -241.5t-39 -241.5t-109.5 -210.5t-166.5 -166.5t-210.5 -109.5t-241.5 -39z" />
    <glyph glyph-name="u1F15A" unicode="&#x212a;&#x20dd;&#x25cf;" 
d="M1153 1108h-139l-330 -356h-1v356h-121v-752h121v257l87 92l250 -349h148l-311 428zM836 -46q-127 0 -241.5 39t-210.5 109.5t-166.5 166.5t-109.5 210.5t-39 241.5t39 241.5t109.5 210.5t166.5 166.5t210.5 109.5t241.5 39t241.5 -39t210.5 -109.5t166.5 -166.5
t109.5 -210.5t39 -241.5t-39 -241.5t-109.5 -210.5t-166.5 -166.5t-210.5 -109.5t-241.5 -39z" />
    <glyph glyph-name="u1F15B" unicode="L&#x20dd;&#x25cf;" 
d="M1111 459h-355v649h-121v-752h476v103zM836 -46q-127 0 -241.5 39t-210.5 109.5t-166.5 166.5t-109.5 210.5t-39 241.5t39 241.5t109.5 210.5t166.5 166.5t210.5 109.5t241.5 39t241.5 -39t210.5 -109.5t166.5 -166.5t109.5 -210.5t39 -241.5t-39 -241.5t-109.5 -210.5
t-166.5 -166.5t-210.5 -109.5t-241.5 -39z" />
    <glyph glyph-name="u1F15C" unicode="M&#x20dd;&#x25cf;" 
d="M576 356v563h1l213 -545h92l212 542h2v-560h110v752h-129l-241 -608h-1l-240 608h-129v-752h110zM836 -46q-127 0 -241.5 39t-210.5 109.5t-166.5 166.5t-109.5 210.5t-39 241.5t39 241.5t109.5 210.5t166.5 166.5t210.5 109.5t241.5 39t241.5 -39t210.5 -109.5
t166.5 -166.5t109.5 -210.5t39 -241.5t-39 -241.5t-109.5 -210.5t-166.5 -166.5t-210.5 -109.5t-241.5 -39z" />
    <glyph glyph-name="u1F15D" unicode="N&#x20dd;&#x25cf;" 
d="M649 356v565h1l377 -565h113v752h-117v-565h-1l-379 565h-111v-752h117zM836 -46q-127 0 -241.5 39t-210.5 109.5t-166.5 166.5t-109.5 210.5t-39 241.5t39 241.5t109.5 210.5t166.5 166.5t210.5 109.5t241.5 39t241.5 -39t210.5 -109.5t166.5 -166.5t109.5 -210.5
t39 -241.5t-39 -241.5t-109.5 -210.5t-166.5 -166.5t-210.5 -109.5t-241.5 -39z" />
    <glyph glyph-name="u1F15E" unicode="O&#x20dd;&#x25cf;" 
d="M836 443q-65 0 -116.5 34.5t-81.5 98.5t-30 154t30 154.5t81.5 99t116.5 34.5t116.5 -34.5t81.5 -99t30 -154.5t-30 -154t-81.5 -98.5t-116.5 -34.5zM836 340q99 0 178.5 46.5t125.5 134t46 209.5t-46 209.5t-125.5 134t-178.5 46.5t-178.5 -46.5t-125.5 -134t-46 -209.5
t46 -209.5t125.5 -134t178.5 -46.5zM836 -46q-127 0 -241.5 39t-210.5 109.5t-166.5 166.5t-109.5 210.5t-39 241.5t39 241.5t109.5 210.5t166.5 166.5t210.5 109.5t241.5 39t241.5 -39t210.5 -109.5t166.5 -166.5t109.5 -210.5t39 -241.5t-39 -241.5t-109.5 -210.5
t-166.5 -166.5t-210.5 -109.5t-241.5 -39z" />
    <glyph glyph-name="u1F15F" unicode="P&#x20dd;&#x25cf;" 
d="M891 1108h-293v-752h121v271h172q76 0 133.5 30t90 83.5t32.5 125.5t-32.5 126.5t-90 85t-133.5 30.5zM1023 866q0 -65 -40 -104t-107 -39h-157v287h157q68 0 107.5 -39t39.5 -105zM836 -46q-127 0 -241.5 39t-210.5 109.5t-166.5 166.5t-109.5 210.5t-39 241.5t39 241.5
t109.5 210.5t166.5 166.5t210.5 109.5t241.5 39t241.5 -39t210.5 -109.5t166.5 -166.5t109.5 -210.5t39 -241.5t-39 -241.5t-109.5 -210.5t-166.5 -166.5t-210.5 -109.5t-241.5 -39z" />
    <glyph glyph-name="u1F160" unicode="Q&#x20dd;&#x25cf;" 
d="M1155 277l-101 138q61 49 96.5 129t35.5 186q0 122 -46 209.5t-125.5 134t-178.5 46.5t-178.5 -46.5t-125.5 -134t-46 -209.5t46 -209.5t125.5 -134t178.5 -46.5q69 0 129 24l63 -87h127zM836 443q-65 0 -116.5 34.5t-81.5 98.5t-30 154t30 154.5t81.5 99t116.5 34.5
t116.5 -34.5t81.5 -99t30 -154.5q0 -73 -21 -129.5t-58 -92.5l-57 79h-124l96 -134q-15 -5 -31 -7.5t-33 -2.5zM836 -46q-127 0 -241.5 39t-210.5 109.5t-166.5 166.5t-109.5 210.5t-39 241.5t39 241.5t109.5 210.5t166.5 166.5t210.5 109.5t241.5 39t241.5 -39
t210.5 -109.5t166.5 -166.5t109.5 -210.5t39 -241.5t-39 -241.5t-109.5 -210.5t-166.5 -166.5t-210.5 -109.5t-241.5 -39z" />
    <glyph glyph-name="u1F161" unicode="R&#x20dd;&#x25cf;" 
d="M690 741v269h160q68 0 108.5 -37t40.5 -99t-40.5 -97.5t-110.5 -35.5h-158zM863 1108h-292v-752h119v292h161l150 -292h137l-166 309q69 21 110 78t41 134q0 70 -32 122t-90.5 80.5t-137.5 28.5zM836 -46q-127 0 -241.5 39t-210.5 109.5t-166.5 166.5t-109.5 210.5
t-39 241.5t39 241.5t109.5 210.5t166.5 166.5t210.5 109.5t241.5 39t241.5 -39t210.5 -109.5t166.5 -166.5t109.5 -210.5t39 -241.5t-39 -241.5t-109.5 -210.5t-166.5 -166.5t-210.5 -109.5t-241.5 -39z" />
    <glyph glyph-name="u1F162" unicode="S&#x20dd;&#x25cf;" 
d="M536 568q2 -69 40 -120t103.5 -79t151.5 -28q90 0 157.5 28t104.5 79t37 121q0 82 -51 132.5t-160 75.5l-122 29q-56 13 -86.5 40t-30.5 63q0 53 43.5 86t114.5 33q69 0 115 -34.5t51 -88.5h115q-1 63 -36.5 113t-98.5 78.5t-145 28.5q-83 0 -146 -28t-98.5 -78.5
t-35.5 -115.5q0 -77 49 -127.5t143 -72.5l123 -30q72 -17 104 -44t32 -69q0 -56 -47.5 -88.5t-124.5 -32.5q-51 0 -91.5 16.5t-65 45.5t-26.5 67h-119zM836 -46q-127 0 -241.5 39t-210.5 109.5t-166.5 166.5t-109.5 210.5t-39 241.5t39 241.5t109.5 210.5t166.5 166.5
t210.5 109.5t241.5 39t241.5 -39t210.5 -109.5t166.5 -166.5t109.5 -210.5t39 -241.5t-39 -241.5t-109.5 -210.5t-166.5 -166.5t-210.5 -109.5t-241.5 -39z" />
    <glyph glyph-name="u1F163" unicode="T&#x20dd;&#x25cf;" 
d="M897 336v651h234v101h-590v-101h235v-651h121zM836 -46q-127 0 -241.5 39t-210.5 109.5t-166.5 166.5t-109.5 210.5t-39 241.5t39 241.5t109.5 210.5t166.5 166.5t210.5 109.5t241.5 39t241.5 -39t210.5 -109.5t166.5 -166.5t109.5 -210.5t39 -241.5t-39 -241.5
t-109.5 -210.5t-166.5 -166.5t-210.5 -109.5t-241.5 -39z" />
    <glyph glyph-name="u1F164" unicode="U&#x20dd;&#x25cf;" 
d="M836 423q-85 0 -135 47.5t-50 131.5v484h-121v-493q0 -83 38.5 -144t107.5 -95t160 -34t160 34t107.5 95t38.5 144v493h-121v-484q0 -84 -50.5 -131.5t-134.5 -47.5zM836 -46q-127 0 -241.5 39t-210.5 109.5t-166.5 166.5t-109.5 210.5t-39 241.5t39 241.5t109.5 210.5
t166.5 166.5t210.5 109.5t241.5 39t241.5 -39t210.5 -109.5t166.5 -166.5t109.5 -210.5t39 -241.5t-39 -241.5t-109.5 -210.5t-166.5 -166.5t-210.5 -109.5t-241.5 -39z" />
    <glyph glyph-name="u1F165" unicode="V&#x20dd;&#x25cf;" 
d="M906 334l276 752h-138l-206 -627h-4l-206 627h-138l275 -752h141zM836 -46q-127 0 -241.5 39t-210.5 109.5t-166.5 166.5t-109.5 210.5t-39 241.5t39 241.5t109.5 210.5t166.5 166.5t210.5 109.5t241.5 39t241.5 -39t210.5 -109.5t166.5 -166.5t109.5 -210.5t39 -241.5
t-39 -241.5t-109.5 -210.5t-166.5 -166.5t-210.5 -109.5t-241.5 -39z" />
    <glyph glyph-name="u1F166" unicode="W&#x20dd;&#x25cf;" 
d="M836 909h4l157 -575h119l204 752h-133l-133 -596h-4l-156 596h-112l-155 -596h-4l-134 596h-133l205 -752h118zM836 -46q-127 0 -241.5 39t-210.5 109.5t-166.5 166.5t-109.5 210.5t-39 241.5t39 241.5t109.5 210.5t166.5 166.5t210.5 109.5t241.5 39t241.5 -39
t210.5 -109.5t166.5 -166.5t109.5 -210.5t39 -241.5t-39 -241.5t-109.5 -210.5t-166.5 -166.5t-210.5 -109.5t-241.5 -39z" />
    <glyph glyph-name="u1F167" unicode="X&#x20dd;&#x25cf;" 
d="M1157 1112h-139l-182 -293h-4l-185 293h-144l246 -374l-249 -377h136l187 289h3l186 -289h141l-249 373zM836 -46q-127 0 -241.5 39t-210.5 109.5t-166.5 166.5t-109.5 210.5t-39 241.5t39 241.5t109.5 210.5t166.5 166.5t210.5 109.5t241.5 39t241.5 -39t210.5 -109.5
t166.5 -166.5t109.5 -210.5t39 -241.5t-39 -241.5t-109.5 -210.5t-166.5 -166.5t-210.5 -109.5t-241.5 -39z" />
    <glyph glyph-name="u1F168" unicode="Y&#x20dd;&#x25cf;" 
d="M776 357h120v306l275 445h-137l-196 -332h-4l-197 332h-136l275 -445v-306zM836 -46q-127 0 -241.5 39t-210.5 109.5t-166.5 166.5t-109.5 210.5t-39 241.5t39 241.5t109.5 210.5t166.5 166.5t210.5 109.5t241.5 39t241.5 -39t210.5 -109.5t166.5 -166.5t109.5 -210.5
t39 -241.5t-39 -241.5t-109.5 -210.5t-166.5 -166.5t-210.5 -109.5t-241.5 -39z" />
    <glyph glyph-name="u1F169" unicode="Z&#x20dd;&#x25cf;" 
d="M548 361h570v100h-425v1l416 566v84h-548v-100h404v-2l-417 -566v-83zM836 -46q-127 0 -241.5 39t-210.5 109.5t-166.5 166.5t-109.5 210.5t-39 241.5t39 241.5t109.5 210.5t166.5 166.5t210.5 109.5t241.5 39t241.5 -39t210.5 -109.5t166.5 -166.5t109.5 -210.5
t39 -241.5t-39 -241.5t-109.5 -210.5t-166.5 -166.5t-210.5 -109.5t-241.5 -39z" />
    <glyph glyph-name="u1F170" unicode="A&#x20de;&#x25a0;" 
d="M951 669h-230l113 324h4zM618 363l74 213h288l73 -213h126l-273 751h-140l-273 -751h125zM335 1462h1002q68 0 121.5 -31t85 -84.5t31.5 -120.5v-1009q0 -67 -31.5 -120t-85 -84t-121.5 -31h-1002q-67 0 -121 31t-86 84t-32 120v1009q0 67 32 120.5t86 84.5t121 31z" />
    <glyph glyph-name="u1F171" unicode="B&#x20de;&#x25a0;" 
d="M578 360h303q81 0 142 25t95 72t34 114q0 80 -47.5 127.5t-118.5 58.5v1q53 14 88 57t35 109q0 85 -62 136t-165 51h-304v-751zM698 1017h160q62 0 96.5 -30.5t34.5 -81.5q0 -53 -40.5 -83.5t-121.5 -30.5h-129v226zM698 701h177q73 0 113 -33.5t40 -92.5
q0 -60 -46 -90.5t-146 -30.5h-138v247zM335 1462h1002q68 0 121.5 -31t85 -84.5t31.5 -120.5v-1009q0 -67 -31.5 -120t-85 -84t-121.5 -31h-1002q-67 0 -121 31t-86 84t-32 120v1009q0 67 32 120.5t86 84.5t121 31z" />
    <glyph glyph-name="u1F172" unicode="C&#x20de;&#x25a0;" 
d="M1034 584q-8 -38 -34.5 -69.5t-67.5 -49.5t-92 -18q-66 0 -116.5 35.5t-79.5 99t-29 148.5q0 84 29 148t79.5 100t116.5 36q51 0 93 -20t69 -54t35 -74h122q-10 75 -52.5 132.5t-111 89.5t-157.5 32q-103 0 -181.5 -49t-122.5 -137t-44 -204t44 -204t122.5 -137
t181.5 -49q87 0 154.5 31t110 85.5t54.5 127.5h-123zM335 1462h1002q68 0 121.5 -31t85 -84.5t31.5 -120.5v-1009q0 -67 -31.5 -120t-85 -84t-121.5 -31h-1002q-67 0 -121 31t-86 84t-32 120v1009q0 67 32 120.5t86 84.5t121 31z" />
    <glyph glyph-name="u1F173" unicode="D&#x20de;&#x25a0;" 
d="M557 1104v-743h263q169 0 257 97.5t88 275.5q0 175 -88 272.5t-257 97.5h-263zM677 1004h128q116 0 176 -69t60 -203q0 -136 -60 -203.5t-176 -67.5h-128v543zM335 1462h1002q68 0 121.5 -31t85 -84.5t31.5 -120.5v-1009q0 -67 -31.5 -120t-85 -84t-121.5 -31h-1002
q-67 0 -121 31t-86 84t-32 120v1009q0 67 32 120.5t86 84.5t121 31z" />
    <glyph glyph-name="u1F174" unicode="E&#x20de;&#x25a0;" 
d="M1083 456h-369v234h348v95h-348v223h369v100h-490v-752h490v100zM335 1462h1002q68 0 121.5 -31t85 -84.5t31.5 -120.5v-1009q0 -67 -31.5 -120t-85 -84t-121.5 -31h-1002q-67 0 -121 31t-86 84t-32 120v1009q0 67 32 120.5t86 84.5t121 31z" />
    <glyph glyph-name="u1F175" unicode="F&#x20de;&#x25a0;" 
d="M743 356v316h331v100h-331v235h361v101h-482v-752h121zM335 1462h1002q68 0 121.5 -31t85 -84.5t31.5 -120.5v-1009q0 -67 -31.5 -120t-85 -84t-121.5 -31h-1002q-67 0 -121 31t-86 84t-32 120v1009q0 67 32 120.5t86 84.5t121 31z" />
    <glyph glyph-name="u1F176" unicode="G&#x20de;&#x25a0;" 
d="M1036 626q0 -48 -22 -87.5t-65.5 -63t-107.5 -23.5q-66 0 -117 34t-80 96t-29 148t29 148.5t80 96.5t117 34q82 0 134 -37t60 -88h123q-9 68 -52 121.5t-111.5 84t-154.5 30.5q-103 0 -182 -49t-123.5 -137t-44.5 -204t44 -203.5t122.5 -136.5t182.5 -49q98 0 169 39
t109 106.5t38 153.5v119h-304v-103h185v-30zM335 1462h1002q68 0 121.5 -31t85 -84.5t31.5 -120.5v-1009q0 -67 -31.5 -120t-85 -84t-121.5 -31h-1002q-67 0 -121 31t-86 84t-32 120v1009q0 67 32 120.5t86 84.5t121 31z" />
    <glyph glyph-name="u1F177" unicode="H&#x20de;&#x25a0;" 
d="M1144 356v752h-120v-315h-375v315h-121v-752h121v337h375v-337h120zM335 1462h1002q68 0 121.5 -31t85 -84.5t31.5 -120.5v-1009q0 -67 -31.5 -120t-85 -84t-121.5 -31h-1002q-67 0 -121 31t-86 84t-32 120v1009q0 67 32 120.5t86 84.5t121 31z" />
    <glyph glyph-name="u1F178" unicode="I&#x20de;&#x25a0;" 
d="M896 356v752h-120v-752h120zM335 1462h1002q68 0 121.5 -31t85 -84.5t31.5 -120.5v-1009q0 -67 -31.5 -120t-85 -84t-121.5 -31h-1002q-67 0 -121 31t-86 84t-32 120v1009q0 67 32 120.5t86 84.5t121 31z" />
    <glyph glyph-name="u1F179" unicode="J&#x20de;&#x25a0;" 
d="M562 559q1 -61 29 -110t81.5 -77.5t128.5 -28.5q112 0 177 62.5t65 178.5v524h-121v-528q0 -63 -31 -97.5t-92 -34.5q-52 0 -85 31t-34 80h-118zM335 1462h1002q68 0 121.5 -31t85 -84.5t31.5 -120.5v-1009q0 -67 -31.5 -120t-85 -84t-121.5 -31h-1002q-67 0 -121 31
t-86 84t-32 120v1009q0 67 32 120.5t86 84.5t121 31z" />
    <glyph glyph-name="u1F17A" unicode="&#x212a;&#x20de;&#x25a0;" 
d="M1153 1108h-139l-330 -356h-1v356h-121v-752h121v257l87 92l250 -349h148q-20 30 -51.5 73t-67.5 92t-72.5 98.5t-67.5 92.5t-52 72zM335 1462h1002q68 0 121.5 -31t85 -84.5t31.5 -120.5v-1009q0 -67 -31.5 -120t-85 -84t-121.5 -31h-1002q-67 0 -121 31t-86 84t-32 120
v1009q0 67 32 120.5t86 84.5t121 31z" />
    <glyph glyph-name="u1F17B" unicode="L&#x20de;&#x25a0;" 
d="M1118 459h-355v649h-121v-752h476v103zM335 1462h1002q68 0 121.5 -31t85 -84.5t31.5 -120.5v-1009q0 -67 -31.5 -120t-85 -84t-121.5 -31h-1002q-67 0 -121 31t-86 84t-32 120v1009q0 67 32 120.5t86 84.5t121 31z" />
    <glyph glyph-name="u1F17C" unicode="M&#x20de;&#x25a0;" 
d="M576 356v563h1l213 -545h92l212 542h2v-560h110v752h-129l-241 -608h-1l-240 608h-129v-752h110zM335 1462h1002q68 0 121.5 -31t85 -84.5t31.5 -120.5v-1009q0 -67 -31.5 -120t-85 -84t-121.5 -31h-1002q-67 0 -121 31t-86 84t-32 120v1009q0 67 32 120.5t86 84.5
t121 31z" />
    <glyph glyph-name="u1F17D" unicode="N&#x20de;&#x25a0;" 
d="M649 356v565h1l377 -565h113v752h-117v-565h-1l-379 565h-111v-752h117zM335 1462h1002q68 0 121.5 -31t85 -84.5t31.5 -120.5v-1009q0 -67 -31.5 -120t-85 -84t-121.5 -31h-1002q-67 0 -121 31t-86 84t-32 120v1009q0 67 32 120.5t86 84.5t121 31z" />
    <glyph glyph-name="u1F17E" unicode="O&#x20de;&#x25a0;" 
d="M836 443q-65 0 -116.5 34.5t-81.5 98.5t-30 154t30 154.5t81.5 99t116.5 34.5t116.5 -34.5t81.5 -99t30 -154.5t-30 -154t-81.5 -98.5t-116.5 -34.5zM836 340q99 0 178.5 46.5t125.5 134t46 209.5t-46 209.5t-125.5 134t-178.5 46.5t-178.5 -46.5t-125.5 -134t-46 -209.5
t46 -209.5t125.5 -134t178.5 -46.5zM335 1462h1002q68 0 121.5 -31t85 -84.5t31.5 -120.5v-1009q0 -67 -31.5 -120t-85 -84t-121.5 -31h-1002q-67 0 -121 31t-86 84t-32 120v1009q0 67 32 120.5t86 84.5t121 31z" />
    <glyph glyph-name="u1F17F" unicode="P&#x20de;&#x25a0;" 
d="M891 1108h-293v-752h121v271h172q78 0 135.5 31t89 85t31.5 123t-31.5 123.5t-89 86.5t-135.5 32zM1023 866q0 -65 -40 -104t-107 -39h-157v287h157q67 0 107 -38t40 -106zM335 1462h1002q68 0 121.5 -31t85 -84.5t31.5 -120.5v-1009q0 -67 -31.5 -120t-85 -84
t-121.5 -31h-1002q-67 0 -121 31t-86 84t-32 120v1009q0 67 32 120.5t86 84.5t121 31z" />
    <glyph glyph-name="u1F180" unicode="Q&#x20de;&#x25a0;" 
d="M1155 277l-101 138q61 49 96.5 129t35.5 186q0 122 -46 209.5t-125.5 134t-178.5 46.5t-178.5 -46.5t-125.5 -134t-46 -209.5t46 -209.5t125.5 -134t178.5 -46.5q69 0 129 24l63 -87h127zM836 443q-65 0 -116.5 34.5t-81.5 98.5t-30 154t30 154.5t81.5 99t116.5 34.5
t116.5 -34.5t81.5 -99t30 -154.5q0 -73 -21 -129.5t-58 -92.5l-57 79h-124l96 -134q-15 -5 -31 -7.5t-33 -2.5zM335 1462h1002q68 0 121.5 -31t85 -84.5t31.5 -120.5v-1009q0 -67 -31.5 -120t-85 -84t-121.5 -31h-1002q-67 0 -121 31t-86 84t-32 120v1009q0 67 32 120.5
t86 84.5t121 31z" />
    <glyph glyph-name="u1F181" unicode="R&#x20de;&#x25a0;" 
d="M690 741v269h160q67 0 108 -36t41 -100q0 -62 -41 -97.5t-110 -35.5h-158zM863 1108h-292v-752h119v292h161l150 -292h137l-166 309q65 19 108 74.5t43 137.5q0 69 -31.5 121t-90 81t-138.5 29zM335 1462h1002q68 0 121.5 -31t85 -84.5t31.5 -120.5v-1009
q0 -67 -31.5 -120t-85 -84t-121.5 -31h-1002q-67 0 -121 31t-86 84t-32 120v1009q0 67 32 120.5t86 84.5t121 31z" />
    <glyph glyph-name="u1F182" unicode="S&#x20de;&#x25a0;" 
d="M536 568q2 -69 40 -120t103.5 -79t151.5 -28q90 0 157.5 28t104.5 79t37 121q0 82 -51 132.5t-160 75.5l-122 29q-56 13 -86.5 40t-30.5 63q0 53 43.5 86t114.5 33q69 0 115 -34.5t51 -88.5h115q-1 63 -36.5 113t-98.5 78.5t-145 28.5q-83 0 -146 -28t-98.5 -78.5
t-35.5 -115.5q0 -77 49 -127.5t143 -72.5l123 -30q72 -17 104 -44t32 -69q0 -56 -47.5 -88.5t-124.5 -32.5q-51 0 -91.5 16.5t-65 45.5t-26.5 67h-119zM335 1462h1002q68 0 121.5 -31t85 -84.5t31.5 -120.5v-1009q0 -67 -31.5 -120t-85 -84t-121.5 -31h-1002q-67 0 -121 31
t-86 84t-32 120v1009q0 67 32 120.5t86 84.5t121 31z" />
    <glyph glyph-name="u1F183" unicode="T&#x20de;&#x25a0;" 
d="M897 350v651h234v101h-590v-101h235v-651h121zM335 1462h1002q68 0 121.5 -31t85 -84.5t31.5 -120.5v-1009q0 -67 -31.5 -120t-85 -84t-121.5 -31h-1002q-67 0 -121 31t-86 84t-32 120v1009q0 67 32 120.5t86 84.5t121 31z" />
    <glyph glyph-name="u1F184" unicode="U&#x20de;&#x25a0;" 
d="M836 437q-85 0 -135 47.5t-50 131.5v484h-121v-493q0 -83 38.5 -144.5t107.5 -95t160 -33.5t160 34t107.5 95t38.5 144v493h-121v-484q0 -84 -50.5 -131.5t-134.5 -47.5zM335 1462h1002q68 0 121.5 -31t85 -84.5t31.5 -120.5v-1009q0 -67 -31.5 -120t-85 -84t-121.5 -31
h-1002q-67 0 -121 31t-86 84t-32 120v1009q0 67 32 120.5t86 84.5t121 31z" />
    <glyph glyph-name="u1F185" unicode="V&#x20de;&#x25a0;" 
d="M906 348l276 752h-138l-206 -627h-4l-206 627h-138l275 -752h141zM335 1462h1002q68 0 121.5 -31t85 -84.5t31.5 -120.5v-1009q0 -67 -31.5 -120t-85 -84t-121.5 -31h-1002q-67 0 -121 31t-86 84t-32 120v1009q0 67 32 120.5t86 84.5t121 31z" />
    <glyph glyph-name="u1F186" unicode="W&#x20de;&#x25a0;" 
d="M836 923h4l157 -575h119l204 752h-133l-133 -597h-4l-156 597h-112l-155 -597h-4l-134 597h-133l205 -752h118zM335 1462h1002q68 0 121.5 -31t85 -84.5t31.5 -120.5v-1009q0 -67 -31.5 -120t-85 -84t-121.5 -31h-1002q-67 0 -121 31t-86 84t-32 120v1009q0 67 32 120.5
t86 84.5t121 31z" />
    <glyph glyph-name="u1F187" unicode="X&#x20de;&#x25a0;" 
d="M1157 1112h-139l-182 -293h-4l-185 293h-144l246 -374l-249 -377h136l187 289h3l186 -289h141l-249 373zM335 1462h1002q68 0 121.5 -31t85 -84.5t31.5 -120.5v-1009q0 -67 -31.5 -120t-85 -84t-121.5 -31h-1002q-67 0 -121 31t-86 84t-32 120v1009q0 67 32 120.5
t86 84.5t121 31z" />
    <glyph glyph-name="u1F188" unicode="Y&#x20de;&#x25a0;" 
d="M776 361h120v306l275 445h-137l-196 -333h-4l-197 333h-136l275 -445v-306zM335 1462h1002q68 0 121.5 -31t85 -84.5t31.5 -120.5v-1009q0 -67 -31.5 -120t-85 -84t-121.5 -31h-1002q-67 0 -121 31t-86 84t-32 120v1009q0 67 32 120.5t86 84.5t121 31z" />
    <glyph glyph-name="u1F189" unicode="Z&#x20de;&#x25a0;" 
d="M548 361h570v100h-425v1l416 566v84h-548v-100h404v-2l-417 -566v-83zM335 1462h1002q68 0 121.5 -31t85 -84.5t31.5 -120.5v-1009q0 -67 -31.5 -120t-85 -84t-121.5 -31h-1002q-67 0 -121 31t-86 84t-32 120v1009q0 67 32 120.5t86 84.5t121 31z" />
    <glyph glyph-name="plus_uni20DD.liga" unicode="&#x2b;&#x20dd;" 
d="M879 689v-224h-87v224h-216v82h216v215h87v-215h216v-82h-216zM836 55q111 0 210 33.5t181.5 94.5t142.5 144.5t93 183t33 209.5t-33 209.5t-93 183t-142.5 144.5t-181.5 94.5t-210 33.5t-210 -33.5t-181.5 -94.5t-142.5 -144.5t-93 -183t-33 -209.5t33 -209.5t93 -183
t142.5 -144.5t181.5 -94.5t210 -33.5zM836 -46q-127 0 -241.5 39t-210.5 109.5t-166.5 166.5t-109.5 210.5t-39 241.5t39 241.5t109.5 210.5t166.5 166.5t210.5 109.5t241.5 39t241.5 -39t210.5 -109.5t166.5 -166.5t109.5 -210.5t39 -241.5t-39 -241.5t-109.5 -210.5
t-166.5 -166.5t-210.5 -109.5t-241.5 -39z" />
    <glyph glyph-name="minus_uni20DD.liga" unicode="&#x2212;&#x20dd;" 
d="M1083 685h-494v84h494v-84zM836 55q111 0 210 33.5t181.5 94.5t142.5 144.5t93 183t33 209.5t-33 209.5t-93 183t-142.5 144.5t-181.5 94.5t-210 33.5t-210 -33.5t-181.5 -94.5t-142.5 -144.5t-93 -183t-33 -209.5t33 -209.5t93 -183t142.5 -144.5t181.5 -94.5t210 -33.5
zM836 -46q-127 0 -241.5 39t-210.5 109.5t-166.5 166.5t-109.5 210.5t-39 241.5t39 241.5t109.5 210.5t166.5 166.5t210.5 109.5t241.5 39t241.5 -39t210.5 -109.5t166.5 -166.5t109.5 -210.5t39 -241.5t-39 -241.5t-109.5 -210.5t-166.5 -166.5t-210.5 -109.5t-241.5 -39z
" />
    <glyph glyph-name="multiply_uni20DD.liga" unicode="&#xd7;&#x20dd;" 
d="M837 786l162 157l62 -59l-162 -157l162 -158l-62 -58l-162 157l-164 -160l-62 59l165 160l-162 157l61 59zM836 55q111 0 210 33.5t181.5 94.5t142.5 144.5t93 183t33 209.5t-33 209.5t-93 183t-142.5 144.5t-181.5 94.5t-210 33.5t-210 -33.5t-181.5 -94.5
t-142.5 -144.5t-93 -183t-33 -209.5t33 -209.5t93 -183t142.5 -144.5t181.5 -94.5t210 -33.5zM836 -46q-127 0 -241.5 39t-210.5 109.5t-166.5 166.5t-109.5 210.5t-39 241.5t39 241.5t109.5 210.5t166.5 166.5t210.5 109.5t241.5 39t241.5 -39t210.5 -109.5t166.5 -166.5
t109.5 -210.5t39 -241.5t-39 -241.5t-109.5 -210.5t-166.5 -166.5t-210.5 -109.5t-241.5 -39z" />
    <glyph glyph-name="divide_uni20DD.liga" unicode="&#xf7;&#x20dd;" 
d="M1083 690h-494v74h494v-74zM768 925q0 29 19.5 47.5t47.5 18.5q30 0 50.5 -18.5t20.5 -47.5q0 -27 -20.5 -45.5t-50.5 -18.5q-28 0 -47.5 18t-19.5 46zM768 531q0 29 19.5 47.5t48.5 18.5t49.5 -18.5t20.5 -47.5q0 -28 -20.5 -46t-49.5 -18t-48.5 18t-19.5 46zM836 55
q111 0 210 33.5t181.5 94.5t142.5 144.5t93 183t33 209.5t-33 209.5t-93 183t-142.5 144.5t-181.5 94.5t-210 33.5t-210 -33.5t-181.5 -94.5t-142.5 -144.5t-93 -183t-33 -209.5t33 -209.5t93 -183t142.5 -144.5t181.5 -94.5t210 -33.5zM836 -46q-127 0 -241.5 39
t-210.5 109.5t-166.5 166.5t-109.5 210.5t-39 241.5t39 241.5t109.5 210.5t166.5 166.5t210.5 109.5t241.5 39t241.5 -39t210.5 -109.5t166.5 -166.5t109.5 -210.5t39 -241.5t-39 -241.5t-109.5 -210.5t-166.5 -166.5t-210.5 -109.5t-241.5 -39z" />
    <glyph glyph-name="equal_uni20DD.liga" unicode="&#x3d;&#x20dd;" 
d="M1073 582h-474v77h474v-77zM1073 795h-474v78h474v-78zM836 55q111 0 210 33.5t181.5 94.5t142.5 144.5t93 183t33 209.5t-33 209.5t-93 183t-142.5 144.5t-181.5 94.5t-210 33.5t-210 -33.5t-181.5 -94.5t-142.5 -144.5t-93 -183t-33 -209.5t33 -209.5t93 -183
t142.5 -144.5t181.5 -94.5t210 -33.5zM836 -46q-127 0 -241.5 39t-210.5 109.5t-166.5 166.5t-109.5 210.5t-39 241.5t39 241.5t109.5 210.5t166.5 166.5t210.5 109.5t241.5 39t241.5 -39t210.5 -109.5t166.5 -166.5t109.5 -210.5t39 -241.5t-39 -241.5t-109.5 -210.5
t-166.5 -166.5t-210.5 -109.5t-241.5 -39z" />
    <glyph glyph-name="greater_uni20DD.liga" unicode="&#x3e;&#x20dd;" 
d="M1093 754v-72l-463 -253v100l350 189v4l-350 193v102zM836 55q111 0 210 33.5t181.5 94.5t142.5 144.5t93 183t33 209.5t-33 209.5t-93 183t-142.5 144.5t-181.5 94.5t-210 33.5t-210 -33.5t-181.5 -94.5t-142.5 -144.5t-93 -183t-33 -209.5t33 -209.5t93 -183
t142.5 -144.5t181.5 -94.5t210 -33.5zM836 -46q-127 0 -241.5 39t-210.5 109.5t-166.5 166.5t-109.5 210.5t-39 241.5t39 241.5t109.5 210.5t166.5 166.5t210.5 109.5t241.5 39t241.5 -39t210.5 -109.5t166.5 -166.5t109.5 -210.5t39 -241.5t-39 -241.5t-109.5 -210.5
t-166.5 -166.5t-210.5 -109.5t-241.5 -39z" />
    <glyph glyph-name="less_uni20DD.liga" unicode="&#x3c;&#x20dd;" 
d="M580 682v72l462 263v-102l-350 -193v-4l350 -189v-100zM836 55q111 0 210 33.5t181.5 94.5t142.5 144.5t93 183t33 209.5t-33 209.5t-93 183t-142.5 144.5t-181.5 94.5t-210 33.5t-210 -33.5t-181.5 -94.5t-142.5 -144.5t-93 -183t-33 -209.5t33 -209.5t93 -183
t142.5 -144.5t181.5 -94.5t210 -33.5zM836 -46q-127 0 -241.5 39t-210.5 109.5t-166.5 166.5t-109.5 210.5t-39 241.5t39 241.5t109.5 210.5t166.5 166.5t210.5 109.5t241.5 39t241.5 -39t210.5 -109.5t166.5 -166.5t109.5 -210.5t39 -241.5t-39 -241.5t-109.5 -210.5
t-166.5 -166.5t-210.5 -109.5t-241.5 -39z" />
    <glyph glyph-name="zero_uni20DD.liga" unicode="&#x30;&#x20dd;" 
d="M1117 812h-115l-33 -155h109l-16 -74h-109l-41 -196h-81l42 196h-145l-42 -196h-81l41 196h-111l15 74h112l33 155h-106l15 74h108l39 190h81l-40 -190h145l40 190h80l-39 -190h114zM773 815l-35 -165h154l35 165h-154zM836 55q111 0 210 33.5t181.5 94.5t142.5 144.5
t93 183t33 209.5t-33 209.5t-93 183t-142.5 144.5t-181.5 94.5t-210 33.5t-210 -33.5t-181.5 -94.5t-142.5 -144.5t-93 -183t-33 -209.5t33 -209.5t93 -183t142.5 -144.5t181.5 -94.5t210 -33.5zM836 -46q-127 0 -241.5 39t-210.5 109.5t-166.5 166.5t-109.5 210.5
t-39 241.5t39 241.5t109.5 210.5t166.5 166.5t210.5 109.5t241.5 39t241.5 -39t210.5 -109.5t166.5 -166.5t109.5 -210.5t39 -241.5t-39 -241.5t-109.5 -210.5t-166.5 -166.5t-210.5 -109.5t-241.5 -39z" />
    <glyph glyph-name="triagdn_uni20DD.liga" unicode="&#x25bc;&#x20dd;" 
d="M1128 924l-292 -494l-292 494h584zM836 55q111 0 210 33.5t181.5 94.5t142.5 144.5t93 183t33 209.5t-33 209.5t-93 183t-142.5 144.5t-181.5 94.5t-210 33.5t-210 -33.5t-181.5 -94.5t-142.5 -144.5t-93 -183t-33 -209.5t33 -209.5t93 -183t142.5 -144.5t181.5 -94.5
t210 -33.5zM836 -46q-127 0 -241.5 39t-210.5 109.5t-166.5 166.5t-109.5 210.5t-39 241.5t39 241.5t109.5 210.5t166.5 166.5t210.5 109.5t241.5 39t241.5 -39t210.5 -109.5t166.5 -166.5t109.5 -210.5t39 -241.5t-39 -241.5t-109.5 -210.5t-166.5 -166.5t-210.5 -109.5
t-241.5 -39z" />
    <glyph glyph-name="triagup_uni20DD.liga" unicode="&#x25b2;&#x20dd;" 
d="M1128 525h-584l292 494zM836 55q111 0 210 33.5t181.5 94.5t142.5 144.5t93 183t33 209.5t-33 209.5t-93 183t-142.5 144.5t-181.5 94.5t-210 33.5t-210 -33.5t-181.5 -94.5t-142.5 -144.5t-93 -183t-33 -209.5t33 -209.5t93 -183t142.5 -144.5t181.5 -94.5t210 -33.5z
M836 -46q-127 0 -241.5 39t-210.5 109.5t-166.5 166.5t-109.5 210.5t-39 241.5t39 241.5t109.5 210.5t166.5 166.5t210.5 109.5t241.5 39t241.5 -39t210.5 -109.5t166.5 -166.5t109.5 -210.5t39 -241.5t-39 -241.5t-109.5 -210.5t-166.5 -166.5t-210.5 -109.5t-241.5 -39z
" />
    <glyph glyph-name="uni25C0_uni20DD.liga" unicode="&#x25c0;&#x20dd;" 
d="M1030 433l-494 292l494 292v-584zM836 55q111 0 210 33.5t181.5 94.5t142.5 144.5t93 183t33 209.5t-33 209.5t-93 183t-142.5 144.5t-181.5 94.5t-210 33.5t-210 -33.5t-181.5 -94.5t-142.5 -144.5t-93 -183t-33 -209.5t33 -209.5t93 -183t142.5 -144.5t181.5 -94.5
t210 -33.5zM836 -46q-127 0 -241.5 39t-210.5 109.5t-166.5 166.5t-109.5 210.5t-39 241.5t39 241.5t109.5 210.5t166.5 166.5t210.5 109.5t241.5 39t241.5 -39t210.5 -109.5t166.5 -166.5t109.5 -210.5t39 -241.5t-39 -241.5t-109.5 -210.5t-166.5 -166.5t-210.5 -109.5
t-241.5 -39z" />
    <glyph glyph-name="uni25B6_uni20DD.liga" unicode="&#x25b6;&#x20dd;" 
d="M642 433v584l494 -292zM836 55q111 0 210 33.5t181.5 94.5t142.5 144.5t93 183t33 209.5t-33 209.5t-93 183t-142.5 144.5t-181.5 94.5t-210 33.5t-210 -33.5t-181.5 -94.5t-142.5 -144.5t-93 -183t-33 -209.5t33 -209.5t93 -183t142.5 -144.5t181.5 -94.5t210 -33.5z
M836 -46q-127 0 -241.5 39t-210.5 109.5t-166.5 166.5t-109.5 210.5t-39 241.5t39 241.5t109.5 210.5t166.5 166.5t210.5 109.5t241.5 39t241.5 -39t210.5 -109.5t166.5 -166.5t109.5 -210.5t39 -241.5t-39 -241.5t-109.5 -210.5t-166.5 -166.5t-210.5 -109.5t-241.5 -39z
" />
    <glyph glyph-name="question_uni20DD.liga" unicode="&#x3f;&#x20dd;" 
d="M748 449q0 30 21.5 49t53.5 19q34 0 55.5 -19t21.5 -49q0 -28 -21.5 -47t-55.5 -19q-32 0 -53.5 18.5t-21.5 47.5zM773 604v36q-2 53 23.5 89.5t70.5 67.5q44 31 66 55.5t22 62.5q0 49 -35.5 74.5t-86.5 25.5q-59 0 -91 -34.5t-33 -82.5h-95q-1 67 30.5 110.5t83 64.5
t110.5 21q60 0 109.5 -20t79.5 -59t30 -95q0 -62 -30.5 -98t-75.5 -67q-32 -23 -50.5 -39.5t-26.5 -35t-8 -45.5v-31h-93zM836 55q111 0 210 33.5t181.5 94.5t142.5 144.5t93 183t33 209.5t-33 209.5t-93 183t-142.5 144.5t-181.5 94.5t-210 33.5t-210 -33.5t-181.5 -94.5
t-142.5 -144.5t-93 -183t-33 -209.5t33 -209.5t93 -183t142.5 -144.5t181.5 -94.5t210 -33.5zM836 -46q-127 0 -241.5 39t-210.5 109.5t-166.5 166.5t-109.5 210.5t-39 241.5t39 241.5t109.5 210.5t166.5 166.5t210.5 109.5t241.5 39t241.5 -39t210.5 -109.5t166.5 -166.5
t109.5 -210.5t39 -241.5t-39 -241.5t-109.5 -210.5t-166.5 -166.5t-210.5 -109.5t-241.5 -39z" />
    <glyph glyph-name="exclam_uni20DD.liga" unicode="&#x21;&#x20dd;" 
d="M760 449q0 30 21.5 49.5t54.5 19.5q34 0 55.5 -19.5t21.5 -49.5q0 -28 -21.5 -47t-55.5 -19t-55 18.5t-21 47.5zM782 1079h109l-11 -455h-88zM836 55q111 0 210 33.5t181.5 94.5t142.5 144.5t93 183t33 209.5t-33 209.5t-93 183t-142.5 144.5t-181.5 94.5t-210 33.5
t-210 -33.5t-181.5 -94.5t-142.5 -144.5t-93 -183t-33 -209.5t33 -209.5t93 -183t142.5 -144.5t181.5 -94.5t210 -33.5zM836 -46q-127 0 -241.5 39t-210.5 109.5t-166.5 166.5t-109.5 210.5t-39 241.5t39 241.5t109.5 210.5t166.5 166.5t210.5 109.5t241.5 39t241.5 -39
t210.5 -109.5t166.5 -166.5t109.5 -210.5t39 -241.5t-39 -241.5t-109.5 -210.5t-166.5 -166.5t-210.5 -109.5t-241.5 -39z" />
    <glyph glyph-name="uni2717_uni20DD.liga" unicode="&#x2717;&#x20dd;" 
d="M839 791l266 265l66 -65l-265 -266l265 -267l-66 -66l-266 265l-266 -265l-67 66l265 267l-266 266l66 67zM836 55q111 0 210 33.5t181.5 94.5t142.5 144.5t93 183t33 209.5t-33 209.5t-93 183t-142.5 144.5t-181.5 94.5t-210 33.5t-210 -33.5t-181.5 -94.5
t-142.5 -144.5t-93 -183t-33 -209.5t33 -209.5t93 -183t142.5 -144.5t181.5 -94.5t210 -33.5zM836 -46q-127 0 -241.5 39t-210.5 109.5t-166.5 166.5t-109.5 210.5t-39 241.5t39 241.5t109.5 210.5t166.5 166.5t210.5 109.5t241.5 39t241.5 -39t210.5 -109.5t166.5 -166.5
t109.5 -210.5t39 -241.5t-39 -241.5t-109.5 -210.5t-166.5 -166.5t-210.5 -109.5t-241.5 -39z" />
    <glyph glyph-name="uni2713_uni20DD.liga" unicode="&#x2713;&#x20dd;" 
d="M1254 960l-541 -540l-283 283l70 70l213 -214l470 472zM836 55q111 0 210 33.5t181.5 94.5t142.5 144.5t93 183t33 209.5t-33 209.5t-93 183t-142.5 144.5t-181.5 94.5t-210 33.5t-210 -33.5t-181.5 -94.5t-142.5 -144.5t-93 -183t-33 -209.5t33 -209.5t93 -183
t142.5 -144.5t181.5 -94.5t210 -33.5zM836 -46q-127 0 -241.5 39t-210.5 109.5t-166.5 166.5t-109.5 210.5t-39 241.5t39 241.5t109.5 210.5t166.5 166.5t210.5 109.5t241.5 39t241.5 -39t210.5 -109.5t166.5 -166.5t109.5 -210.5t39 -241.5t-39 -241.5t-109.5 -210.5
t-166.5 -166.5t-210.5 -109.5t-241.5 -39z" />
    <glyph glyph-name="zero_uni20DE.liga" unicode="&#x30;&#x20de;" 
d="M836 461q73 0 117 72t44 198q0 125 -44 197.5t-117 72.5t-117 -72.5t-44 -197.5q0 -126 44 -198t117 -72zM836 373q-76 0 -134.5 43t-91.5 123t-33 192q0 111 33 191t91.5 123t134.5 43t134.5 -43t91.5 -123t33 -191q0 -112 -33 -192t-91.5 -123t-134.5 -43zM335 1462
h1002q68 0 121.5 -31t85 -84.5t31.5 -120.5v-1009q0 -67 -31.5 -120t-85 -84t-121.5 -31h-1002q-67 0 -121 31t-86 84t-32 120v1009q0 67 32 120.5t86 84.5t121 31zM1474 1225q0 41 -19 74t-52.5 51.5t-75.5 18.5h-982q-64 0 -105.5 -40.5t-41.5 -103.5v-1006
q0 -63 41.5 -103.5t105.5 -40.5h982q64 0 105.5 40.5t41.5 103.5v1006z" />
    <glyph glyph-name="one_uni20DE.liga" unicode="&#x31;&#x20de;" 
d="M924 390h-103v589h-5l-170 -114v95l175 119h103v-689zM335 1462h1002q68 0 121.5 -31t85 -84.5t31.5 -120.5v-1009q0 -67 -31.5 -120t-85 -84t-121.5 -31h-1002q-67 0 -121 31t-86 84t-32 120v1009q0 67 32 120.5t86 84.5t121 31zM1474 1225q0 41 -19 74t-52.5 51.5
t-75.5 18.5h-982q-64 0 -105.5 -40.5t-41.5 -103.5v-1006q0 -63 41.5 -103.5t105.5 -40.5h982q64 0 105.5 40.5t41.5 103.5v1006z" />
    <glyph glyph-name="two_uni20DE.liga" unicode="&#x32;&#x20de;" 
d="M701 884h-99v5q0 53 27.5 99t79.5 75t128 29q69 0 120.5 -24.5t80 -67t28.5 -97.5q0 -62 -34.5 -111t-87.5 -105l-193 -209v-5h331v-83h-473v64l272 289q35 37 59 73t24 80q0 51 -36.5 83t-92.5 32q-62 0 -98 -36t-36 -86v-2.5v-2.5zM335 1462h1002q68 0 121.5 -31
t85 -84.5t31.5 -120.5v-1009q0 -67 -31.5 -120t-85 -84t-121.5 -31h-1002q-67 0 -121 31t-86 84t-32 120v1009q0 67 32 120.5t86 84.5t121 31zM1474 1225q0 41 -19 74t-52.5 51.5t-75.5 18.5h-982q-64 0 -105.5 -40.5t-41.5 -103.5v-1006q0 -63 41.5 -103.5t105.5 -40.5h982
q64 0 105.5 40.5t41.5 103.5v1006z" />
    <glyph glyph-name="three_uni20DE.liga" unicode="&#x33;&#x20de;" 
d="M758 706v79h78q56 0 93.5 33.5t37.5 83.5q-1 49 -38 80t-95 31q-56 0 -93 -29.5t-40 -70.5h-96q2 50 30 90.5t79 64.5t122 24q69 0 121.5 -23t81.5 -63t30 -90q0 -46 -21 -81t-53 -56t-62 -26v-5q37 -4 73.5 -24t60.5 -56t25 -88q1 -62 -33.5 -107.5t-93 -70.5
t-131.5 -25t-127 24.5t-84.5 65.5t-33.5 91h96q4 -43 46 -72t103 -30q70 0 113 36t43 91q-1 53 -42.5 88t-107.5 35h-82zM335 1462h1002q68 0 121.5 -31t85 -84.5t31.5 -120.5v-1009q0 -67 -31.5 -120t-85 -84t-121.5 -31h-1002q-67 0 -121 31t-86 84t-32 120v1009
q0 67 32 120.5t86 84.5t121 31zM1474 1225q0 41 -19 74t-52.5 51.5t-75.5 18.5h-982q-64 0 -105.5 -40.5t-41.5 -103.5v-1006q0 -63 41.5 -103.5t105.5 -40.5h982q64 0 105.5 40.5t41.5 103.5v1006z" />
    <glyph glyph-name="four_uni20DE.liga" unicode="&#x34;&#x20de;" 
d="M848 1079h151v-465h97v-82h-97v-142h-97v142h-350v84q29 51 66.5 110.5t78 121.5t79.5 121.5t72 109.5zM650 614h252v387h-6q-26 -38 -58.5 -87.5t-67 -102.5t-66 -103t-54.5 -90v-4zM335 1462h1002q68 0 121.5 -31t85 -84.5t31.5 -120.5v-1009q0 -67 -31.5 -120t-85 -84
t-121.5 -31h-1002q-67 0 -121 31t-86 84t-32 120v1009q0 67 32 120.5t86 84.5t121 31zM1474 1225q0 41 -19 74t-52.5 51.5t-75.5 18.5h-982q-64 0 -105.5 -40.5t-41.5 -103.5v-1006q0 -63 41.5 -103.5t105.5 -40.5h982q64 0 105.5 40.5t41.5 103.5v1006z" />
    <glyph glyph-name="five_uni20DE.liga" unicode="&#x35;&#x20de;" 
d="M595 557h96q9 -47 52.5 -73t95.5 -26q42 0 77 19t56.5 54t21.5 83q0 44 -20.5 77t-55.5 51t-77 18q-52 0 -86.5 -22.5t-54.5 -53.5h-91l32 395h416v-82h-332l-19 -225h5q16 24 56 45.5t98 21.5q64 0 116 -27t83 -77t31 -119q0 -72 -33 -125.5t-92 -83.5t-136 -30
q-67 0 -120 23.5t-84 64.5t-35 92zM335 1462h1002q68 0 121.5 -31t85 -84.5t31.5 -120.5v-1009q0 -67 -31.5 -120t-85 -84t-121.5 -31h-1002q-67 0 -121 31t-86 84t-32 120v1009q0 67 32 120.5t86 84.5t121 31zM1474 1225q0 41 -19 74t-52.5 51.5t-75.5 18.5h-982
q-64 0 -105.5 -40.5t-41.5 -103.5v-1006q0 -63 41.5 -103.5t105.5 -40.5h982q64 0 105.5 40.5t41.5 103.5v1006z" />
    <glyph glyph-name="six_uni20DE.liga" unicode="&#x36;&#x20de;" 
d="M861 382q-56 0 -107.5 19.5t-92.5 61t-64.5 108t-23.5 159.5q0 114 35 196.5t100 127t155 44.5q65 0 118 -23t88 -64.5t45 -96.5h-106q-13 44 -52 70t-94 26q-91 0 -138.5 -76.5t-47.5 -209.5h2q21 53 76.5 88.5t132.5 35.5q70 0 123.5 -29.5t84.5 -80t31 -115.5
q0 -70 -34.5 -124.5t-94.5 -85.5t-136 -31zM859 470q46 0 82.5 19.5t58 53t21.5 75.5t-21 75t-57 52t-83 19q-46 0 -83 -18.5t-58.5 -51t-21.5 -72.5q0 -42 21.5 -76.5t58 -55t82.5 -20.5zM335 1462h1002q68 0 121.5 -31t85 -84.5t31.5 -120.5v-1009q0 -67 -31.5 -120
t-85 -84t-121.5 -31h-1002q-67 0 -121 31t-86 84t-32 120v1009q0 67 32 120.5t86 84.5t121 31zM1474 1225q0 41 -19 74t-52.5 51.5t-75.5 18.5h-982q-64 0 -105.5 -40.5t-41.5 -103.5v-1006q0 -63 41.5 -103.5t105.5 -40.5h982q64 0 105.5 40.5t41.5 103.5v1006z" />
    <glyph glyph-name="seven_uni20DE.liga" unicode="&#x37;&#x20de;" 
d="M606 1079h473v-85l-296 -604h-109l301 601v5h-369v83zM335 1462h1002q68 0 121.5 -31t85 -84.5t31.5 -120.5v-1009q0 -67 -31.5 -120t-85 -84t-121.5 -31h-1002q-67 0 -121 31t-86 84t-32 120v1009q0 67 32 120.5t86 84.5t121 31zM1474 1225q0 41 -19 74t-52.5 51.5
t-75.5 18.5h-982q-64 0 -105.5 -40.5t-41.5 -103.5v-1006q0 -63 41.5 -103.5t105.5 -40.5h982q64 0 105.5 40.5t41.5 103.5v1006z" />
    <glyph glyph-name="eight_uni20DE.liga" unicode="&#x38;&#x20de;" 
d="M837 452q47 0 83.5 17t57.5 47t21 68t-21 67.5t-57.5 46.5t-83.5 17q-48 0 -85 -17t-58 -46.5t-21 -67.5t21 -68t58 -47t85 -17zM837 786q59 0 97.5 33t38.5 83q0 51 -38 83t-98 32t-98.5 -32t-38.5 -83q0 -50 38.5 -83t98.5 -33zM835 377q-78 0 -137 25.5t-92.5 71
t-33.5 105.5q0 64 42 111.5t108 61.5v4q-56 17 -89 58.5t-33 96.5q0 53 30.5 94t84 64t122.5 23q68 0 121.5 -23t84 -64t30.5 -94q0 -54 -33 -96.5t-89 -58.5v-4q66 -14 108 -61.5t42 -110.5q0 -60 -34 -106t-94 -71.5t-138 -25.5zM335 1462h1002q68 0 121.5 -31t85 -84.5
t31.5 -120.5v-1009q0 -67 -31.5 -120t-85 -84t-121.5 -31h-1002q-67 0 -121 31t-86 84t-32 120v1009q0 67 32 120.5t86 84.5t121 31zM1474 1225q0 41 -19 74t-52.5 51.5t-75.5 18.5h-982q-64 0 -105.5 -40.5t-41.5 -103.5v-1006q0 -63 41.5 -103.5t105.5 -40.5h982
q64 0 105.5 40.5t41.5 103.5v1006z" />
    <glyph glyph-name="nine_uni20DE.liga" unicode="&#x39;&#x20de;" 
d="M837 382q-66 0 -120 23t-89 64t-44 95h106q13 -44 52 -69.5t96 -25.5q85 0 136 73t49 214h-1q-20 -55 -76.5 -89.5t-130.5 -34.5q-68 0 -123 29t-87 79.5t-32 116.5q0 69 34.5 123.5t95 86t136.5 31.5q52 0 103.5 -18.5t92.5 -59t66 -107t25 -163.5q0 -114 -34.5 -196.5
t-99.5 -127t-155 -44.5zM839 715q46 0 83.5 19t59 51.5t21.5 72.5q0 42 -21.5 76.5t-58.5 54.5t-83 20q-45 0 -82 -19.5t-58.5 -53.5t-21.5 -75q0 -42 21 -75t57.5 -52t82.5 -19zM335 1462h1002q68 0 121.5 -31t85 -84.5t31.5 -120.5v-1009q0 -67 -31.5 -120t-85 -84
t-121.5 -31h-1002q-67 0 -121 31t-86 84t-32 120v1009q0 67 32 120.5t86 84.5t121 31zM1474 1225q0 41 -19 74t-52.5 51.5t-75.5 18.5h-982q-64 0 -105.5 -40.5t-41.5 -103.5v-1006q0 -63 41.5 -103.5t105.5 -40.5h982q64 0 105.5 40.5t41.5 103.5v1006z" />
    <glyph glyph-name="plus_uni20DE.liga" unicode="&#x2b;&#x20de;" 
d="M879 689v-224h-87v224h-216v82h216v215h87v-215h216v-82h-216zM335 1462h1002q68 0 121.5 -31t85 -84.5t31.5 -120.5v-1009q0 -67 -31.5 -120t-85 -84t-121.5 -31h-1002q-67 0 -121 31t-86 84t-32 120v1009q0 67 32 120.5t86 84.5t121 31zM1474 1225q0 41 -19 74
t-52.5 51.5t-75.5 18.5h-982q-64 0 -105.5 -40.5t-41.5 -103.5v-1006q0 -63 41.5 -103.5t105.5 -40.5h982q64 0 105.5 40.5t41.5 103.5v1006z" />
    <glyph glyph-name="minus_uni20DE.liga" unicode="&#x2212;&#x20de;" 
d="M1083 685h-494v84h494v-84zM335 1462h1002q68 0 121.5 -31t85 -84.5t31.5 -120.5v-1009q0 -67 -31.5 -120t-85 -84t-121.5 -31h-1002q-67 0 -121 31t-86 84t-32 120v1009q0 67 32 120.5t86 84.5t121 31zM1474 1225q0 41 -19 74t-52.5 51.5t-75.5 18.5h-982
q-64 0 -105.5 -40.5t-41.5 -103.5v-1006q0 -63 41.5 -103.5t105.5 -40.5h982q64 0 105.5 40.5t41.5 103.5v1006z" />
    <glyph glyph-name="multiply_uni20DE.liga" unicode="&#xd7;&#x20de;" 
d="M837 786l162 157l62 -59l-162 -157l162 -158l-62 -58l-162 157l-164 -160l-62 59l165 160l-162 157l61 59zM335 1462h1002q68 0 121.5 -31t85 -84.5t31.5 -120.5v-1009q0 -67 -31.5 -120t-85 -84t-121.5 -31h-1002q-67 0 -121 31t-86 84t-32 120v1009q0 67 32 120.5
t86 84.5t121 31zM1474 1225q0 41 -19 74t-52.5 51.5t-75.5 18.5h-982q-64 0 -105.5 -40.5t-41.5 -103.5v-1006q0 -63 41.5 -103.5t105.5 -40.5h982q64 0 105.5 40.5t41.5 103.5v1006z" />
    <glyph glyph-name="divide_uni20DE.liga" unicode="&#xf7;&#x20de;" 
d="M1083 690h-494v74h494v-74zM768 925q0 29 19.5 47.5t47.5 18.5q30 0 50.5 -18.5t20.5 -47.5q0 -27 -20.5 -45.5t-50.5 -18.5q-28 0 -47.5 18t-19.5 46zM768 531q0 29 19.5 47.5t48.5 18.5t49.5 -18.5t20.5 -47.5q0 -28 -20.5 -46t-49.5 -18t-48.5 18t-19.5 46zM335 1462
h1002q68 0 121.5 -31t85 -84.5t31.5 -120.5v-1009q0 -67 -31.5 -120t-85 -84t-121.5 -31h-1002q-67 0 -121 31t-86 84t-32 120v1009q0 67 32 120.5t86 84.5t121 31zM1474 1225q0 41 -19 74t-52.5 51.5t-75.5 18.5h-982q-64 0 -105.5 -40.5t-41.5 -103.5v-1006
q0 -63 41.5 -103.5t105.5 -40.5h982q64 0 105.5 40.5t41.5 103.5v1006z" />
    <glyph glyph-name="equal_uni20DE.liga" unicode="&#x3d;&#x20de;" 
d="M1073 582h-474v77h474v-77zM1073 795h-474v78h474v-78zM335 1462h1002q68 0 121.5 -31t85 -84.5t31.5 -120.5v-1009q0 -67 -31.5 -120t-85 -84t-121.5 -31h-1002q-67 0 -121 31t-86 84t-32 120v1009q0 67 32 120.5t86 84.5t121 31zM1474 1225q0 41 -19 74t-52.5 51.5
t-75.5 18.5h-982q-64 0 -105.5 -40.5t-41.5 -103.5v-1006q0 -63 41.5 -103.5t105.5 -40.5h982q64 0 105.5 40.5t41.5 103.5v1006z" />
    <glyph glyph-name="greater_uni20DE.liga" unicode="&#x3e;&#x20de;" 
d="M1093 754v-72l-463 -253v100l350 189v4l-350 193v102zM335 1462h1002q68 0 121.5 -31t85 -84.5t31.5 -120.5v-1009q0 -67 -31.5 -120t-85 -84t-121.5 -31h-1002q-67 0 -121 31t-86 84t-32 120v1009q0 67 32 120.5t86 84.5t121 31zM1474 1225q0 41 -19 74t-52.5 51.5
t-75.5 18.5h-982q-64 0 -105.5 -40.5t-41.5 -103.5v-1006q0 -63 41.5 -103.5t105.5 -40.5h982q64 0 105.5 40.5t41.5 103.5v1006z" />
    <glyph glyph-name="less_uni20DE.liga" unicode="&#x3c;&#x20de;" 
d="M580 682v72l462 263v-102l-350 -193v-4l350 -189v-100zM335 1462h1002q68 0 121.5 -31t85 -84.5t31.5 -120.5v-1009q0 -67 -31.5 -120t-85 -84t-121.5 -31h-1002q-67 0 -121 31t-86 84t-32 120v1009q0 67 32 120.5t86 84.5t121 31zM1474 1225q0 41 -19 74t-52.5 51.5
t-75.5 18.5h-982q-64 0 -105.5 -40.5t-41.5 -103.5v-1006q0 -63 41.5 -103.5t105.5 -40.5h982q64 0 105.5 40.5t41.5 103.5v1006z" />
    <glyph glyph-name="numbersign_uni20DE.liga" unicode="&#x23;&#x20de;" 
d="M1117 812h-115l-33 -155h109l-16 -74h-109l-41 -196h-81l42 196h-145l-42 -196h-81l41 196h-111l15 74h112l33 155h-106l15 74h108l39 190h81l-40 -190h145l40 190h80l-39 -190h114zM773 815l-35 -165h154l35 165h-154zM335 1462h1002q68 0 121.5 -31t85 -84.5
t31.5 -120.5v-1009q0 -67 -31.5 -120t-85 -84t-121.5 -31h-1002q-67 0 -121 31t-86 84t-32 120v1009q0 67 32 120.5t86 84.5t121 31zM1474 1225q0 41 -19 74t-52.5 51.5t-75.5 18.5h-982q-64 0 -105.5 -40.5t-41.5 -103.5v-1006q0 -63 41.5 -103.5t105.5 -40.5h982
q64 0 105.5 40.5t41.5 103.5v1006z" />
    <glyph glyph-name="triagdn_uni20DE.liga" unicode="&#x25bc;&#x20de;" 
d="M1129 924l-292 -494l-293 494h585zM335 1462h1002q68 0 121.5 -31t85 -84.5t31.5 -120.5v-1009q0 -67 -31.5 -120t-85 -84t-121.5 -31h-1002q-67 0 -121 31t-86 84t-32 120v1009q0 67 32 120.5t86 84.5t121 31zM1474 1225q0 41 -19 74t-52.5 51.5t-75.5 18.5h-982
q-64 0 -105.5 -40.5t-41.5 -103.5v-1006q0 -63 41.5 -103.5t105.5 -40.5h982q64 0 105.5 40.5t41.5 103.5v1006z" />
    <glyph glyph-name="triagup_uni20DE.liga" unicode="&#x25b2;&#x20de;" 
d="M1128 525h-584l292 494zM335 1462h1002q68 0 121.5 -31t85 -84.5t31.5 -120.5v-1009q0 -67 -31.5 -120t-85 -84t-121.5 -31h-1002q-67 0 -121 31t-86 84t-32 120v1009q0 67 32 120.5t86 84.5t121 31zM1474 1225q0 41 -19 74t-52.5 51.5t-75.5 18.5h-982
q-64 0 -105.5 -40.5t-41.5 -103.5v-1006q0 -63 41.5 -103.5t105.5 -40.5h982q64 0 105.5 40.5t41.5 103.5v1006z" />
    <glyph glyph-name="uni25C0_uni20DE.liga" unicode="&#x25c0;&#x20de;" 
d="M1030 433l-494 292l494 292v-584zM335 1462h1002q68 0 121.5 -31t85 -84.5t31.5 -120.5v-1009q0 -67 -31.5 -120t-85 -84t-121.5 -31h-1002q-67 0 -121 31t-86 84t-32 120v1009q0 67 32 120.5t86 84.5t121 31zM1474 1225q0 41 -19 74t-52.5 51.5t-75.5 18.5h-982
q-64 0 -105.5 -40.5t-41.5 -103.5v-1006q0 -63 41.5 -103.5t105.5 -40.5h982q64 0 105.5 40.5t41.5 103.5v1006z" />
    <glyph glyph-name="uni25B6_uni20DE.liga" unicode="&#x25b6;&#x20de;" 
d="M642 433v584l494 -292zM335 1462h1002q68 0 121.5 -31t85 -84.5t31.5 -120.5v-1009q0 -67 -31.5 -120t-85 -84t-121.5 -31h-1002q-67 0 -121 31t-86 84t-32 120v1009q0 67 32 120.5t86 84.5t121 31zM1474 1225q0 41 -19 74t-52.5 51.5t-75.5 18.5h-982
q-64 0 -105.5 -40.5t-41.5 -103.5v-1006q0 -63 41.5 -103.5t105.5 -40.5h982q64 0 105.5 40.5t41.5 103.5v1006z" />
    <glyph glyph-name="question_uni20DE.liga" unicode="&#x3f;&#x20de;" 
d="M748 449q0 30 21.5 49t53.5 19q34 0 55.5 -19t21.5 -49q0 -28 -21.5 -47t-55.5 -19q-32 0 -53.5 18.5t-21.5 47.5zM614 898q-1 67 30.5 110.5t83 64.5t110.5 21q60 0 109.5 -20t79.5 -59t30 -95q0 -62 -30.5 -98t-75.5 -67q-32 -23 -50.5 -39.5t-26.5 -35t-8 -45.5v-31
h-93v36q-2 53 23.5 89.5t70.5 67.5q44 31 66 55.5t22 62.5q0 49 -35.5 74.5t-86.5 25.5q-59 0 -91 -34.5t-33 -82.5h-95zM335 1462h1002q68 0 121.5 -31t85 -84.5t31.5 -120.5v-1009q0 -67 -31.5 -120t-85 -84t-121.5 -31h-1002q-67 0 -121 31t-86 84t-32 120v1009
q0 67 32 120.5t86 84.5t121 31zM1474 1225q0 41 -19 74t-52.5 51.5t-75.5 18.5h-982q-64 0 -105.5 -40.5t-41.5 -103.5v-1006q0 -63 41.5 -103.5t105.5 -40.5h982q64 0 105.5 40.5t41.5 103.5v1006z" />
    <glyph glyph-name="exclam_uni20DE.liga" unicode="&#x21;&#x20de;" 
d="M760 449q0 30 21.5 49.5t54.5 19.5q34 0 55.5 -19.5t21.5 -49.5q0 -28 -21.5 -47t-55.5 -19t-55 18.5t-21 47.5zM782 1079h109l-11 -455h-88zM335 1462h1002q68 0 121.5 -31t85 -84.5t31.5 -120.5v-1009q0 -67 -31.5 -120t-85 -84t-121.5 -31h-1002q-67 0 -121 31t-86 84
t-32 120v1009q0 67 32 120.5t86 84.5t121 31zM1474 1225q0 41 -19 74t-52.5 51.5t-75.5 18.5h-982q-64 0 -105.5 -40.5t-41.5 -103.5v-1006q0 -63 41.5 -103.5t105.5 -40.5h982q64 0 105.5 40.5t41.5 103.5v1006z" />
    <glyph glyph-name="uni2717_uni20DE.liga" unicode="&#x2717;&#x20de;" 
d="M839 791l266 265l66 -65l-265 -266l265 -267l-66 -66l-266 265l-266 -265l-67 66l265 267l-266 266l66 67zM335 1462h1002q68 0 121.5 -31t85 -84.5t31.5 -120.5v-1009q0 -67 -31.5 -120t-85 -84t-121.5 -31h-1002q-67 0 -121 31t-86 84t-32 120v1009q0 67 32 120.5
t86 84.5t121 31zM1474 1225q0 41 -19 74t-52.5 51.5t-75.5 18.5h-982q-64 0 -105.5 -40.5t-41.5 -103.5v-1006q0 -63 41.5 -103.5t105.5 -40.5h982q64 0 105.5 40.5t41.5 103.5v1006z" />
    <glyph glyph-name="uni2713_uni20DE.liga" unicode="&#x2713;&#x20de;" 
d="M1254 960l-541 -540l-283 283l70 70l213 -214l470 472zM335 1462h1002q68 0 121.5 -31t85 -84.5t31.5 -120.5v-1009q0 -67 -31.5 -120t-85 -84t-121.5 -31h-1002q-67 0 -121 31t-86 84t-32 120v1009q0 67 32 120.5t86 84.5t121 31zM1474 1225q0 41 -19 74t-52.5 51.5
t-75.5 18.5h-982q-64 0 -105.5 -40.5t-41.5 -103.5v-1006q0 -63 41.5 -103.5t105.5 -40.5h982q64 0 105.5 40.5t41.5 103.5v1006z" />
    <glyph glyph-name="plus_uni20DD_H18533.liga" unicode="&#x2b;&#x20dd;&#x25cf;" 
d="M889 682h232v98h-232v231h-106v-231h-232v-98h232v-241h106v241zM836 -46q-127 0 -241.5 39t-210.5 109.5t-166.5 166.5t-109.5 210.5t-39 241.5t39 241.5t109.5 210.5t166.5 166.5t210.5 109.5t241.5 39t241.5 -39t210.5 -109.5t166.5 -166.5t109.5 -210.5t39 -241.5
t-39 -241.5t-109.5 -210.5t-166.5 -166.5t-210.5 -109.5t-241.5 -39z" />
    <glyph glyph-name="minus_uni20DD_H18533.liga" unicode="&#x2212;&#x20dd;&#x25cf;" 
d="M1107 678v100h-542v-100h542zM836 -46q-127 0 -241.5 39t-210.5 109.5t-166.5 166.5t-109.5 210.5t-39 241.5t39 241.5t109.5 210.5t166.5 166.5t210.5 109.5t241.5 39t241.5 -39t210.5 -109.5t166.5 -166.5t109.5 -210.5t39 -241.5t-39 -241.5t-109.5 -210.5
t-166.5 -166.5t-210.5 -109.5t-241.5 -39z" />
    <glyph glyph-name="multiply_uni20DD_H18533.liga" unicode="&#xd7;&#x20dd;&#x25cf;" 
d="M834 796l-174 168l-75 -72l174 -169l-174 -168l75 -71l174 167l174 -167l74 71l-174 168l174 169l-74 72zM836 -46q-127 0 -241.5 39t-210.5 109.5t-166.5 166.5t-109.5 210.5t-39 241.5t39 241.5t109.5 210.5t166.5 166.5t210.5 109.5t241.5 39t241.5 -39t210.5 -109.5
t166.5 -166.5t109.5 -210.5t39 -241.5t-39 -241.5t-109.5 -210.5t-166.5 -166.5t-210.5 -109.5t-241.5 -39z" />
    <glyph glyph-name="divide_uni20DD_H18533.liga" unicode="&#xf7;&#x20dd;&#x25cf;" 
d="M756 942q0 -32 23 -53t56 -21q34 0 58 21.5t24 53.5q0 33 -24 55t-58 22q-33 0 -56 -22t-23 -56zM1107 682v91h-542v-91h542zM756 515q0 -33 23 -54t57 -21t57.5 21.5t23.5 53.5q0 34 -23.5 55.5t-57.5 21.5t-57 -22t-23 -55zM836 -46q-127 0 -241.5 39t-210.5 109.5
t-166.5 166.5t-109.5 210.5t-39 241.5t39 241.5t109.5 210.5t166.5 166.5t210.5 109.5t241.5 39t241.5 -39t210.5 -109.5t166.5 -166.5t109.5 -210.5t39 -241.5t-39 -241.5t-109.5 -210.5t-166.5 -166.5t-210.5 -109.5t-241.5 -39z" />
    <glyph glyph-name="equal_uni20DD_H18533.liga" unicode="&#x3d;&#x20dd;&#x25cf;" 
d="M1095 795v95h-518v-95h518zM1095 565v94h-518v-94h518zM836 -46q-127 0 -241.5 39t-210.5 109.5t-166.5 166.5t-109.5 210.5t-39 241.5t39 241.5t109.5 210.5t166.5 166.5t210.5 109.5t241.5 39t241.5 -39t210.5 -109.5t166.5 -166.5t109.5 -210.5t39 -241.5t-39 -241.5
t-109.5 -210.5t-166.5 -166.5t-210.5 -109.5t-241.5 -39z" />
    <glyph glyph-name="greater_uni20DD_H18533.liga" unicode="&#x3e;&#x20dd;&#x25cf;" 
d="M1112 760l-508 288v-119l379 -209v-2l-379 -201v-119l508 277v85zM836 -46q-127 0 -241.5 39t-210.5 109.5t-166.5 166.5t-109.5 210.5t-39 241.5t39 241.5t109.5 210.5t166.5 166.5t210.5 109.5t241.5 39t241.5 -39t210.5 -109.5t166.5 -166.5t109.5 -210.5t39 -241.5
t-39 -241.5t-109.5 -210.5t-166.5 -166.5t-210.5 -109.5t-241.5 -39z" />
    <glyph glyph-name="less_uni20DD_H18533.liga" unicode="&#x3c;&#x20dd;&#x25cf;" 
d="M554 675l508 -277v119l-378 201v2l378 209v119l-508 -288v-85zM836 -46q-127 0 -241.5 39t-210.5 109.5t-166.5 166.5t-109.5 210.5t-39 241.5t39 241.5t109.5 210.5t166.5 166.5t210.5 109.5t241.5 39t241.5 -39t210.5 -109.5t166.5 -166.5t109.5 -210.5t39 -241.5
t-39 -241.5t-109.5 -210.5t-166.5 -166.5t-210.5 -109.5t-241.5 -39z" />
    <glyph glyph-name="numbersign_uni20DD_H18533.liga" unicode="&#x23;&#x20dd;&#x25cf;" 
d="M772 818h156l-36 -169h-156zM1142 815l18 89h-122l43 203h-98l-42 -203h-146l43 203h-98l-42 -203h-117l-18 -89h115l-33 -158h-121l-18 -91h119l-44 -210h98l44 210h147l-45 -210h98l44 210h116l19 91h-116l33 158h123zM836 -46q-127 0 -241.5 39t-210.5 109.5
t-166.5 166.5t-109.5 210.5t-39 241.5t39 241.5t109.5 210.5t166.5 166.5t210.5 109.5t241.5 39t241.5 -39t210.5 -109.5t166.5 -166.5t109.5 -210.5t39 -241.5t-39 -241.5t-109.5 -210.5t-166.5 -166.5t-210.5 -109.5t-241.5 -39z" />
    <glyph glyph-name="triagdn_uni20DD_H18533.liga" unicode="&#x25bc;&#x20dd;&#x25cf;" 
d="M1155 952h-637l318 -540zM836 -46q-127 0 -241.5 39t-210.5 109.5t-166.5 166.5t-109.5 210.5t-39 241.5t39 241.5t109.5 210.5t166.5 166.5t210.5 109.5t241.5 39t241.5 -39t210.5 -109.5t166.5 -166.5t109.5 -210.5t39 -241.5t-39 -241.5t-109.5 -210.5t-166.5 -166.5
t-210.5 -109.5t-241.5 -39z" />
    <glyph glyph-name="triagup_uni20DD_H18533.liga" unicode="&#x25b2;&#x20dd;&#x25cf;" 
d="M1155 508l-319 539l-318 -539h637zM836 -46q-127 0 -241.5 39t-210.5 109.5t-166.5 166.5t-109.5 210.5t-39 241.5t39 241.5t109.5 210.5t166.5 166.5t210.5 109.5t241.5 39t241.5 -39t210.5 -109.5t166.5 -166.5t109.5 -210.5t39 -241.5t-39 -241.5t-109.5 -210.5
t-166.5 -166.5t-210.5 -109.5t-241.5 -39z" />
    <glyph glyph-name="uni25C0_uni20DD_H18533.liga" unicode="&#x25c0;&#x20dd;&#x25cf;" 
d="M1053 412v636l-540 -318zM836 -46q-127 0 -241.5 39t-210.5 109.5t-166.5 166.5t-109.5 210.5t-39 241.5t39 241.5t109.5 210.5t166.5 166.5t210.5 109.5t241.5 39t241.5 -39t210.5 -109.5t166.5 -166.5t109.5 -210.5t39 -241.5t-39 -241.5t-109.5 -210.5t-166.5 -166.5
t-210.5 -109.5t-241.5 -39z" />
    <glyph glyph-name="uni25B6_uni20DD_H18533.liga" unicode="&#x25b6;&#x20dd;&#x25cf;" 
d="M619 412l540 318l-540 318v-636zM836 -46q-127 0 -241.5 39t-210.5 109.5t-166.5 166.5t-109.5 210.5t-39 241.5t39 241.5t109.5 210.5t166.5 166.5t210.5 109.5t241.5 39t241.5 -39t210.5 -109.5t166.5 -166.5t109.5 -210.5t39 -241.5t-39 -241.5t-109.5 -210.5
t-166.5 -166.5t-210.5 -109.5t-241.5 -39z" />
    <glyph glyph-name="question_uni20DD_H18533.liga" unicode="&#x3f;&#x20dd;&#x25cf;" 
d="M732 427q0 -34 24.5 -56t62.5 -22q40 0 64.5 22.5t24.5 55.5q0 35 -25 57t-64 22q-37 0 -62 -22t-25 -57zM760 591h110v37q0 29 8.5 48t28 36.5t52.5 40.5t59.5 48t42 57t15.5 77q0 61 -33 104t-88 65.5t-120 22.5q-64 0 -120 -22.5t-91 -70.5t-35 -123v-3h112
q2 53 35 88.5t94 35.5q51 0 88.5 -26t37.5 -76q0 -40 -24 -66t-69 -57q-50 -35 -78 -74t-25 -98v-44zM836 -46q-127 0 -241.5 39t-210.5 109.5t-166.5 166.5t-109.5 210.5t-39 241.5t39 241.5t109.5 210.5t166.5 166.5t210.5 109.5t241.5 39t241.5 -39t210.5 -109.5
t166.5 -166.5t109.5 -210.5t39 -241.5t-39 -241.5t-109.5 -210.5t-166.5 -166.5t-210.5 -109.5t-241.5 -39z" />
    <glyph glyph-name="exclam_uni20DD_H18533.liga" unicode="&#x21;&#x20dd;&#x25cf;" 
d="M771 1111l12 -499h106l12 499h-130zM748 427q0 -33 25 -55t63 -22t63 22.5t25 54.5q0 35 -25.5 57t-62.5 22q-38 0 -63 -22t-25 -57zM836 -46q-127 0 -241.5 39t-210.5 109.5t-166.5 166.5t-109.5 210.5t-39 241.5t39 241.5t109.5 210.5t166.5 166.5t210.5 109.5
t241.5 39t241.5 -39t210.5 -109.5t166.5 -166.5t109.5 -210.5t39 -241.5t-39 -241.5t-109.5 -210.5t-166.5 -166.5t-210.5 -109.5t-241.5 -39z" />
    <glyph glyph-name="uni2717_uni20DD_H18533.liga" unicode="&#x2717;&#x20dd;&#x25cf;" 
d="M839 800l-289 290l-75 -74l288 -290l-287 -288l75 -75l288 288l288 -288l74 75l-288 288l288 288l-74 74zM836 -46q-127 0 -241.5 39t-210.5 109.5t-166.5 166.5t-109.5 210.5t-39 241.5t39 241.5t109.5 210.5t166.5 166.5t210.5 109.5t241.5 39t241.5 -39t210.5 -109.5
t166.5 -166.5t109.5 -210.5t39 -241.5t-39 -241.5t-109.5 -210.5t-166.5 -166.5t-210.5 -109.5t-241.5 -39z" />
    <glyph glyph-name="uni2713_uni20DD_H18533.liga" unicode="&#x2713;&#x20dd;&#x25cf;" 
d="M702 395l588 588l-78 80l-511 -512l-228 230l-79 -79zM836 -46q-127 0 -241.5 39t-210.5 109.5t-166.5 166.5t-109.5 210.5t-39 241.5t39 241.5t109.5 210.5t166.5 166.5t210.5 109.5t241.5 39t241.5 -39t210.5 -109.5t166.5 -166.5t109.5 -210.5t39 -241.5t-39 -241.5
t-109.5 -210.5t-166.5 -166.5t-210.5 -109.5t-241.5 -39z" />
    <glyph glyph-name="zero_uni20DE_filledbox.liga" unicode="&#x30;&#x20de;&#x25a0;" 
d="M833 441q-76 0 -120.5 76.5t-44.5 213.5q0 136 44.5 213t120.5 77t120.5 -77t44.5 -213q0 -137 -44.5 -213.5t-120.5 -76.5zM833 340q87 0 151.5 47.5t100 135t35.5 208.5q0 120 -35.5 207.5t-100 135t-151.5 47.5q-86 0 -151 -47.5t-100.5 -135t-35.5 -207.5
q0 -121 35.5 -208.5t100.5 -135t151 -47.5zM335 1462h1002q68 0 121.5 -31t85 -84.5t31.5 -120.5v-1009q0 -67 -31.5 -120t-85 -84t-121.5 -31h-1002q-67 0 -121 31t-86 84t-32 120v1009q0 67 32 120.5t86 84.5t121 31z" />
    <glyph glyph-name="one_uni20DE_filledbox.liga" unicode="&#x31;&#x20de;&#x25a0;" 
d="M936 360v751h-118l-190 -130v-114l186 126h2v-633h120zM335 1462h1002q68 0 121.5 -31t85 -84.5t31.5 -120.5v-1009q0 -67 -31.5 -120t-85 -84t-121.5 -31h-1002q-67 0 -121 31t-86 84t-32 120v1009q0 67 32 120.5t86 84.5t121 31z" />
    <glyph glyph-name="two_uni20DE_filledbox.liga" unicode="&#x32;&#x20de;&#x25a0;" 
d="M693 892v8q1 53 38 90.5t100 37.5q56 0 94.5 -33t38.5 -86q0 -47 -24.5 -84.5t-61.5 -77.5l-294 -313v-75h518v99h-354v1l216 231q55 59 88 110t33 116q0 60 -32 107t-89 74t-131 27q-84 0 -141 -32t-86 -83t-30 -109v-8h117zM335 1462h1002q68 0 121.5 -31t85 -84.5
t31.5 -120.5v-1009q0 -67 -31.5 -120t-85 -84t-121.5 -31h-1002q-67 0 -121 31t-86 84t-32 120v1009q0 67 32 120.5t86 84.5t121 31z" />
    <glyph glyph-name="three_uni20DE_filledbox.liga" unicode="&#x33;&#x20de;&#x25a0;" 
d="M746 699h93q67 0 110 -36t44 -92q0 -58 -44 -94t-118 -36q-64 1 -107.5 32.5t-50.5 74.5h-112q4 -57 37 -103t92 -73t140 -27q79 0 144 27.5t103 77.5t37 119q-1 57 -26.5 96t-63.5 61t-77 26v1q32 7 65 30t55 60.5t22 87.5q-1 55 -33.5 99t-89.5 70t-133 26
q-78 0 -133.5 -27t-87 -72t-34.5 -102h114q5 43 42.5 74t96.5 31q62 0 100 -32.5t38 -82.5q0 -51 -38 -85.5t-98 -34.5h-87v-96zM335 1462h1002q68 0 121.5 -31t85 -84.5t31.5 -120.5v-1009q0 -67 -31.5 -120t-85 -84t-121.5 -31h-1002q-67 0 -121 31t-86 84t-32 120v1009
q0 67 32 120.5t86 84.5t121 31z" />
    <glyph glyph-name="four_uni20DE_filledbox.liga" unicode="&#x34;&#x20de;&#x25a0;" 
d="M843 1111q-100 -152 -184.5 -282.5t-134.5 -219.5v-97h375v-152h116v152h104v98h-104v501h-172zM899 610h-259v2q25 42 57.5 94.5t68.5 107.5t70 106.5t62 92.5h1v-403zM335 1462h1002q68 0 121.5 -31t85 -84.5t31.5 -120.5v-1009q0 -67 -31.5 -120t-85 -84t-121.5 -31
h-1002q-67 0 -121 31t-86 84t-32 120v1009q0 67 32 120.5t86 84.5t121 31z" />
    <glyph glyph-name="five_uni20DE_filledbox.liga" unicode="&#x35;&#x20de;&#x25a0;" 
d="M568 547q3 -57 37.5 -102.5t93 -72t132.5 -26.5q84 0 148 32.5t100.5 91.5t36.5 138q0 75 -34 130t-91.5 85t-126.5 30q-61 0 -103 -22.5t-61 -47.5h-1q1 17 3.5 48t5.5 67t5.5 67.5t4.5 48.5h355v97h-455l-34 -434h106q19 31 56 55.5t92 24.5q44 0 80 -19t57.5 -53.5
t21.5 -80.5q0 -50 -22.5 -86t-59 -55.5t-78.5 -19.5q-36 0 -69.5 12.5t-57 35.5t-29.5 56h-113zM335 1462h1002q68 0 121.5 -31t85 -84.5t31.5 -120.5v-1009q0 -67 -31.5 -120t-85 -84t-121.5 -31h-1002q-67 0 -121 31t-86 84t-32 120v1009q0 67 32 120.5t86 84.5t121 31z
" />
    <glyph glyph-name="six_uni20DE_filledbox.liga" unicode="&#x36;&#x20de;&#x25a0;" 
d="M866 349q84 0 150 34t104 93.5t38 135.5q0 70 -33.5 125.5t-92.5 87.5t-135 32q-82 0 -142 -37t-82 -93h-2q-1 139 49.5 219.5t147.5 80.5q57 0 98 -26.5t56 -72.5h124q-11 60 -49.5 106t-97.5 71.5t-131 25.5q-99 0 -170 -48t-109.5 -138t-38.5 -215q0 -100 25.5 -172
t70 -118.5t101.5 -68.5t119 -22zM864 452q-48 0 -86.5 21t-61.5 57t-23 81q0 43 23 76.5t62 53.5t88 20t87 -20t60 -54.5t22 -79.5q0 -43 -23 -78t-62 -56t-86 -21zM335 1462h1002q68 0 121.5 -31t85 -84.5t31.5 -120.5v-1009q0 -67 -31.5 -120t-85 -84t-121.5 -31h-1002
q-67 0 -121 31t-86 84t-32 120v1009q0 67 32 120.5t86 84.5t121 31z" />
    <glyph glyph-name="seven_uni20DE_filledbox.liga" unicode="&#x37;&#x20de;&#x25a0;" 
d="M581 1111v-100h395v-2l-328 -649h129l322 652v99h-518zM335 1462h1002q68 0 121.5 -31t85 -84.5t31.5 -120.5v-1009q0 -67 -31.5 -120t-85 -84t-121.5 -31h-1002q-67 0 -121 31t-86 84t-32 120v1009q0 67 32 120.5t86 84.5t121 31z" />
    <glyph glyph-name="eight_uni20DE_filledbox.liga" unicode="&#x38;&#x20de;&#x25a0;" 
d="M834 796q-62 0 -101.5 33.5t-39.5 85.5q0 53 39.5 86t101.5 33q61 0 101 -33t40 -86q0 -52 -40 -85.5t-101 -33.5zM834 436q-49 0 -87.5 18t-60.5 49t-22 70t22 69.5t60.5 48.5t87.5 18t87 -18t60 -48.5t22 -69.5t-22 -70t-60 -49t-87 -18zM834 345q85 0 150 28t102 78
t37 116q0 68 -44 119.5t-117 67.5v1q61 19 95.5 65t34.5 106q0 58 -33 103.5t-91 71t-134 25.5t-134 -25.5t-91 -71t-33 -103.5q0 -60 34.5 -105.5t95.5 -65.5v-1q-73 -16 -117 -67.5t-44 -119.5q0 -66 36.5 -116t102 -78t150.5 -28zM335 1462h1002q68 0 121.5 -31t85 -84.5
t31.5 -120.5v-1009q0 -67 -31.5 -120t-85 -84t-121.5 -31h-1002q-67 0 -121 31t-86 84t-32 120v1009q0 67 32 120.5t86 84.5t121 31z" />
    <glyph glyph-name="nine_uni20DE_filledbox.liga" unicode="&#x39;&#x20de;&#x25a0;" 
d="M840 349q99 0 170.5 48.5t109.5 138t38 213.5q0 105 -27 178t-72.5 118t-101.5 65.5t-115 20.5q-85 0 -150.5 -34t-103.5 -93.5t-38 -136.5q0 -72 35 -127.5t94.5 -86.5t134.5 -31q79 0 139 36.5t83 94.5h2q1 -145 -51.5 -223t-146.5 -78q-59 0 -100 26t-55 71h-124
q10 -59 48.5 -104t98 -70.5t132.5 -25.5zM842 720q-49 0 -87 19.5t-60 54t-22 78.5t23 79t61.5 55.5t86.5 20.5q49 0 87.5 -21t61 -56.5t22.5 -80.5q0 -43 -23 -76.5t-62 -53t-88 -19.5zM335 1462h1002q68 0 121.5 -31t85 -84.5t31.5 -120.5v-1009q0 -67 -31.5 -120t-85 -84
t-121.5 -31h-1002q-67 0 -121 31t-86 84t-32 120v1009q0 67 32 120.5t86 84.5t121 31z" />
    <glyph glyph-name="plus_uni20DE_filledbox.liga" unicode="&#x2b;&#x20de;&#x25a0;" 
d="M889 682h232v98h-232v231h-106v-231h-232v-98h232v-241h106v241zM335 1462h1002q68 0 121.5 -31t85 -84.5t31.5 -120.5v-1009q0 -67 -31.5 -120t-85 -84t-121.5 -31h-1002q-67 0 -121 31t-86 84t-32 120v1009q0 67 32 120.5t86 84.5t121 31z" />
    <glyph glyph-name="minus_uni20DE_filledbox.liga" unicode="&#x2212;&#x20de;&#x25a0;" 
d="M1107 678v100h-542v-100h542zM335 1462h1002q68 0 121.5 -31t85 -84.5t31.5 -120.5v-1009q0 -67 -31.5 -120t-85 -84t-121.5 -31h-1002q-67 0 -121 31t-86 84t-32 120v1009q0 67 32 120.5t86 84.5t121 31z" />
    <glyph glyph-name="multiply_uni20DE_filledbox.liga" unicode="&#xd7;&#x20de;&#x25a0;" 
d="M834 796l-174 168l-75 -72l174 -169l-174 -168l75 -71l174 167l174 -167l74 71l-174 168l174 169l-74 72zM335 1462h1002q68 0 121.5 -31t85 -84.5t31.5 -120.5v-1009q0 -67 -31.5 -120t-85 -84t-121.5 -31h-1002q-67 0 -121 31t-86 84t-32 120v1009q0 67 32 120.5
t86 84.5t121 31z" />
    <glyph glyph-name="divide_uni20DE_filledbox.liga" unicode="&#xf7;&#x20de;&#x25a0;" 
d="M756 942q0 -32 23 -53t56 -21q34 0 58 21.5t24 53.5q0 33 -24 55t-58 22q-33 0 -56 -22t-23 -56zM1107 682v91h-542v-91h542zM756 515q0 -33 23 -54t57 -21t57.5 21.5t23.5 53.5q0 34 -23.5 55.5t-57.5 21.5t-57 -22t-23 -55zM335 1462h1002q68 0 121.5 -31t85 -84.5
t31.5 -120.5v-1009q0 -67 -31.5 -120t-85 -84t-121.5 -31h-1002q-67 0 -121 31t-86 84t-32 120v1009q0 67 32 120.5t86 84.5t121 31z" />
    <glyph glyph-name="equal_uni20DE_filledbox.liga" unicode="&#x3d;&#x20de;&#x25a0;" 
d="M1095 795v95h-518v-95h518zM1095 565v94h-518v-94h518zM335 1462h1002q68 0 121.5 -31t85 -84.5t31.5 -120.5v-1009q0 -67 -31.5 -120t-85 -84t-121.5 -31h-1002q-67 0 -121 31t-86 84t-32 120v1009q0 67 32 120.5t86 84.5t121 31z" />
    <glyph glyph-name="greater_uni20DE_filledbox.liga" unicode="&#x3e;&#x20de;&#x25a0;" 
d="M1112 760l-508 288v-119l379 -209v-2l-379 -201v-119l508 277v85zM335 1462h1002q68 0 121.5 -31t85 -84.5t31.5 -120.5v-1009q0 -67 -31.5 -120t-85 -84t-121.5 -31h-1002q-67 0 -121 31t-86 84t-32 120v1009q0 67 32 120.5t86 84.5t121 31z" />
    <glyph glyph-name="less_uni20DE_filledbox.liga" unicode="&#x3c;&#x20de;&#x25a0;" 
d="M554 675l508 -277v119q-25 13 -63 33t-82 44l-88 48t-82 44t-63 32v2l378 209v119l-508 -288v-85zM335 1462h1002q68 0 121.5 -31t85 -84.5t31.5 -120.5v-1009q0 -67 -31.5 -120t-85 -84t-121.5 -31h-1002q-67 0 -121 31t-86 84t-32 120v1009q0 67 32 120.5t86 84.5
t121 31z" />
    <glyph glyph-name="numbersign_uni20DE_filledbox.liga" unicode="&#x23;&#x20de;&#x25a0;" 
d="M772 818h156l-36 -169h-156zM1142 815l18 89h-122l43 203h-98l-42 -203h-146l43 203h-98l-42 -203h-117l-18 -89h115l-33 -158h-121l-18 -91h119l-44 -210h98l44 210h147l-45 -210h98l44 210h116l19 91h-116l33 158h123zM335 1462h1002q68 0 121.5 -31t85 -84.5
t31.5 -120.5v-1009q0 -67 -31.5 -120t-85 -84t-121.5 -31h-1002q-67 0 -121 31t-86 84t-32 120v1009q0 67 32 120.5t86 84.5t121 31z" />
    <glyph glyph-name="triagdn_uni20DE_filledbox.liga" unicode="&#x25bc;&#x20de;&#x25a0;" 
d="M1155 949h-637l318 -541zM335 1462h1002q68 0 121.5 -31t85 -84.5t31.5 -120.5v-1009q0 -67 -31.5 -120t-85 -84t-121.5 -31h-1002q-67 0 -121 31t-86 84t-32 120v1009q0 67 32 120.5t86 84.5t121 31z" />
    <glyph glyph-name="triagup_uni20DE_filledbox.liga" unicode="&#x25b2;&#x20de;&#x25a0;" 
d="M1155 508l-319 539l-318 -539h637zM335 1462h1002q68 0 121.5 -31t85 -84.5t31.5 -120.5v-1009q0 -67 -31.5 -120t-85 -84t-121.5 -31h-1002q-67 0 -121 31t-86 84t-32 120v1009q0 67 32 120.5t86 84.5t121 31z" />
    <glyph glyph-name="uni25C0_uni20DE_filledbox.liga" unicode="&#x25c0;&#x20de;&#x25a0;" 
d="M1053 412v636l-540 -318zM335 1462h1002q68 0 121.5 -31t85 -84.5t31.5 -120.5v-1009q0 -67 -31.5 -120t-85 -84t-121.5 -31h-1002q-67 0 -121 31t-86 84t-32 120v1009q0 67 32 120.5t86 84.5t121 31z" />
    <glyph glyph-name="uni25B6_uni20DE_filledbox.liga" unicode="&#x25b6;&#x20de;&#x25a0;" 
d="M619 412l540 318l-540 318v-636zM335 1462h1002q68 0 121.5 -31t85 -84.5t31.5 -120.5v-1009q0 -67 -31.5 -120t-85 -84t-121.5 -31h-1002q-67 0 -121 31t-86 84t-32 120v1009q0 67 32 120.5t86 84.5t121 31z" />
    <glyph glyph-name="question_uni20DE_filledbox.liga" unicode="&#x3f;&#x20de;&#x25a0;" 
d="M732 427q0 -34 24.5 -56t62.5 -22q40 0 64.5 22.5t24.5 55.5q0 35 -25 57t-64 22q-37 0 -62 -22t-25 -57zM835 1127q-64 0 -120 -22.5t-91 -70.5t-35 -123v-3h112q2 53 35 88.5t94 35.5q51 0 88.5 -26t37.5 -76q0 -40 -24 -66t-69 -57q-50 -35 -78 -74t-25 -98v-44h110
v37q0 29 8.5 48t28 36.5t52.5 40.5t59.5 48t42 57t15.5 77q0 61 -33 104t-88 65.5t-120 22.5zM335 1462h1002q68 0 121.5 -31t85 -84.5t31.5 -120.5v-1009q0 -67 -31.5 -120t-85 -84t-121.5 -31h-1002q-67 0 -121 31t-86 84t-32 120v1009q0 67 32 120.5t86 84.5t121 31z" />
    <glyph glyph-name="exclam_uni20DE_filledbox.liga" unicode="&#x21;&#x20de;&#x25a0;" 
d="M771 1111l12 -499h106l12 499h-130zM748 427q0 -33 25 -55t63 -22t63 22.5t25 54.5q0 35 -25.5 57t-62.5 22q-38 0 -63 -22t-25 -57zM335 1462h1002q68 0 121.5 -31t85 -84.5t31.5 -120.5v-1009q0 -67 -31.5 -120t-85 -84t-121.5 -31h-1002q-67 0 -121 31t-86 84t-32 120
v1009q0 67 32 120.5t86 84.5t121 31z" />
    <glyph glyph-name="uni2717_uni20DE_filledbox.liga" unicode="&#x2717;&#x20de;&#x25a0;" 
d="M475 1016l288 -290l-287 -288l75 -75l288 288l288 -288l74 75l-288 288l288 288l-74 74l-288 -288l-289 290zM335 1462h1002q68 0 121.5 -31t85 -84.5t31.5 -120.5v-1009q0 -67 -31.5 -120t-85 -84t-121.5 -31h-1002q-67 0 -121 31t-86 84t-32 120v1009q0 67 32 120.5
t86 84.5t121 31z" />
    <glyph glyph-name="uni2713_uni20DE_filledbox.liga" unicode="&#x2713;&#x20de;&#x25a0;" 
d="M702 395l588 588l-78 80l-511 -512l-228 230l-79 -79zM335 1462h1002q68 0 121.5 -31t85 -84.5t31.5 -120.5v-1009q0 -67 -31.5 -120t-85 -84t-121.5 -31h-1002q-67 0 -121 31t-86 84t-32 120v1009q0 67 32 120.5t86 84.5t121 31z" />
    <glyph glyph-name=".notdef" horiz-adv-x="2048" 
d="M99 -494v308h1848v-308h-1848zM99 -67v308h1848v-308h-1848zM99 361v307h1848v-307h-1848zM99 788v307h1848v-307h-1848zM99 1215v308h1848v-308h-1848zM99 1642v308h1848v-308h-1848z" />
    <glyph glyph-name="glyph1" horiz-adv-x="0" 
 />
    <glyph glyph-name="glyph2" horiz-adv-x="0" 
 />
    <glyph glyph-name="space" unicode=" " horiz-adv-x="419" 
 />
    <glyph glyph-name="exclam" unicode="!" horiz-adv-x="531" 
d="M195 1443h138l-8 -987h-121zM264 -9q-39 0 -66 27t-27 66q0 40 27 67t66 27q40 0 67 -27t27 -67q0 -39 -27 -66t-67 -27z" />
    <glyph glyph-name="quotedbl" unicode="&#x22;" horiz-adv-x="703" 
d="M245 955h-123v488h123v-488zM579 955h-123v488h123v-488z" />
    <glyph glyph-name="numbersign" unicode="#" horiz-adv-x="1236" 
d="M642 0l86 419h-365l-86 -419h-111l86 419h-249l22 111h251l78 395h-259l22 110h260l85 410h111l-84 -410h364l86 410h111l-85 -410h267l-21 -110h-268l-81 -395h277l-21 -111h-278l-86 -419h-112zM385 528h367l80 398h-367z" />
    <glyph glyph-name="dollar" unicode="$" horiz-adv-x="1218" 
d="M654 659v-521q105 6 175 41.5t104.5 91.5t34.5 125q0 64 -27 112t-90.5 84t-171.5 61zM548 814l11 -3v493q-88 -8 -152 -43t-98.5 -88t-34.5 -114q0 -87 64.5 -148.5t209.5 -96.5zM654 789l46 -11q131 -31 220 -79t135 -120t46 -174q0 -87 -34.5 -156t-95.5 -118.5
t-142 -77.5t-175 -34v-175h-95v176q-93 6 -174.5 36t-143.5 81.5t-98 121.5t-39 156h133q8 -74 46 -133.5t107 -96.5t169 -46v543l-31 7q-191 46 -289 132.5t-98 229.5q0 79 31.5 145t88 114.5t132.5 77.5t166 35v167h95v-167q89 -6 165.5 -35.5t134.5 -79t91.5 -116
t36.5 -145.5h-132q-6 74 -45.5 129t-104 88t-146.5 40v-515z" />
    <glyph glyph-name="percent" unicode="%" horiz-adv-x="1535" 
d="M321 744q-87 0 -149 43.5t-95.5 124t-33.5 189.5q0 110 33.5 190t96 123t148.5 43t148.5 -43t96 -122.5t33.5 -190.5q0 -109 -33.5 -189.5t-96 -124t-148.5 -43.5zM321 836q79 0 123 70t44 195t-44 194.5t-123 69.5q-78 0 -122.5 -69.5t-44.5 -194.5t44 -195t123 -70z
M340 0h-126l980 1443h125zM1212 -14q-87 0 -149 43.5t-95.5 123.5t-33.5 190q0 109 33.5 189t96 123.5t148.5 43.5t148.5 -43t96 -123t33.5 -190t-33.5 -190t-95.5 -123.5t-149 -43.5zM1212 78q78 0 122 70t44 195t-44 194.5t-122 69.5t-122.5 -69.5t-44.5 -194.5t44 -195
t123 -70z" />
    <glyph glyph-name="ampersand" unicode="&#x26;" horiz-adv-x="1372" 
d="M1183 0l-159 168q-61 -60 -138 -103t-163 -65.5t-174 -22.5q-104 0 -190.5 29t-149.5 82.5t-97 126.5t-34 161q0 121 68 217.5t211 173.5q10 5 27 14t31.5 16.5t17.5 8.5q-72 75 -115 133.5t-62 109.5t-19 104q0 66 27 123t75.5 99.5t113 66t140.5 23.5
q102 0 181.5 -40.5t125 -110.5t45.5 -161q0 -71 -33 -134t-105 -122t-188 -119l397 -425q45 77 69 177t24 224v58h127v-59q0 -146 -34.5 -271t-96.5 -220l250 -262h-172zM436 684q-119 -68 -171 -140.5t-52 -159.5q0 -84 43.5 -150t122 -103.5t181.5 -37.5q71 0 142 20.5
t133.5 56.5t106.5 85l-434 468q-5 -2 -21 -10.5t-32 -17.5t-19 -11zM544 856q147 73 210 142t63 150q0 60 -29 107t-79.5 74t-115.5 27q-64 0 -115 -27.5t-81 -75t-30 -107.5q0 -42 16.5 -83t55 -90.5t105.5 -116.5z" />
    <glyph glyph-name="quotesingle" unicode="'" horiz-adv-x="369" 
d="M245 955h-123v488h123v-488z" />
    <glyph glyph-name="parenleft" unicode="(" horiz-adv-x="626" 
d="M190 569q0 257 68.5 476.5t208.5 397.5h115q-57 -69 -104 -168t-81 -216.5t-53 -243t-19 -246.5t19 -246.5t53 -242.5t81 -216t104 -168h-115q-140 178 -208.5 397t-68.5 476z" />
    <glyph glyph-name="parenright" unicode=")" horiz-adv-x="626" 
d="M434 569q0 -257 -68.5 -476t-208.5 -397h-115q56 69 103 168t81.5 216t53.5 242.5t19 246.5t-19 246.5t-53.5 243t-81.5 216.5t-103 168h115q140 -178 208.5 -397.5t68.5 -476.5z" />
    <glyph glyph-name="asterisk" unicode="*" horiz-adv-x="789" 
d="M648 924l-209 130l3 -236h-98l4 236l-211 -130l-45 81l212 126l-210 127l44 79l210 -128l-3 234h97l-3 -235l209 129l46 -79l-213 -127l214 -127z" />
    <glyph glyph-name="plus" unicode="+" horiz-adv-x="1218" 
d="M670 510v-434h-124v434h-409v124h409v434h124v-434h409v-124h-409z" />
    <glyph glyph-name="comma" unicode="," horiz-adv-x="509" 
d="M212 -276h-111l96 482h141z" />
    <glyph glyph-name="uni2011" unicode="&#x2011;" horiz-adv-x="874" 
d="M764 521h-656v124h656v-124z" />
    <glyph glyph-name="uni2011" unicode="-" horiz-adv-x="874" 
d="M764 521h-656v124h656v-124z" />
    <glyph glyph-name="period" unicode="." horiz-adv-x="509" 
d="M254 -9q-39 0 -66.5 27t-27.5 66q0 40 27.5 67t66.5 27t66 -27t27 -67q0 -39 -27 -66t-66 -27z" />
    <glyph glyph-name="slash" unicode="/" horiz-adv-x="626" 
d="M116 -304h-116l510 1747h116z" />
    <glyph glyph-name="zero" unicode="0" horiz-adv-x="1222" 
d="M610 -23q-123 0 -220 52t-164.5 149.5t-103 235t-35.5 308.5q0 170 35.5 307t103.5 235t165 150t219 52q123 0 219.5 -52t164 -149.5t103 -234.5t35.5 -307q0 -171 -35.5 -308.5t-102.5 -235.5t-164 -150t-220 -52zM610 97q122 0 208 76.5t131.5 217t45.5 331.5
q0 190 -46 329.5t-132 216.5t-207 77t-207 -77t-132 -217t-46 -328q0 -191 45.5 -332t131.5 -217.5t208 -76.5z" />
    <glyph glyph-name="one" unicode="1" horiz-adv-x="863" 
d="M484 0v1297h-4q-8 -5 -36.5 -24t-68.5 -46.5t-84.5 -57.5t-85.5 -57.5t-71.5 -47.5t-40.5 -27v139q10 6 39 26t69.5 48t85 59t85 59t70 48t40.5 27h134v-1443h-132z" />
    <glyph glyph-name="two" unicode="2" horiz-adv-x="1152" 
d="M114 1038q1 93 36 171t98.5 135.5t148.5 89.5t185 32q97 0 178 -31t140.5 -85.5t92 -127t32.5 -154.5q0 -58 -15.5 -113t-52 -115.5t-100.5 -136t-160 -174.5l-386 -403v-4h751v-122h-941v96l510 536q78 81 128 140.5t78.5 107t40 90.5t11.5 91q0 79 -39 144t-108 103
t-160 38q-95 0 -171 -40t-120 -110t-45 -158h-132z" />
    <glyph glyph-name="three" unicode="3" horiz-adv-x="1183" 
d="M398 689v117h168q97 0 170 35t114.5 97t41.5 142q0 78 -36.5 138t-105.5 94t-167 34q-91 0 -164 -33t-117.5 -93t-50.5 -142h-132q6 87 43 158.5t98.5 122.5t143.5 79t179 28q103 0 185.5 -28.5t141 -79t89.5 -117.5t31 -144q0 -90 -38.5 -160t-107.5 -116.5t-162 -65.5
v-4q107 -9 188.5 -54.5t126.5 -122t45 -179.5q0 -91 -37.5 -167.5t-104.5 -133t-157 -87t-195 -30.5q-108 0 -198 29.5t-156 82.5t-104 125.5t-41 159.5h132q4 -82 52.5 -144.5t130 -97.5t184.5 -35q105 0 184.5 38t125 104.5t45.5 151.5q0 95 -44.5 161.5t-128 101.5
t-198.5 35h-174z" />
    <glyph glyph-name="four" unicode="4" horiz-adv-x="1213" 
d="M806 0v326h-732v125q59 99 125.5 204t146 224t176.5 258.5t217 307.5h200v-998h215v-121h-215v-326h-133zM212 451v-4h594v878h-2q-133 -184 -240 -338.5t-193.5 -286.5t-158.5 -249z" />
    <glyph glyph-name="five" unicode="5" horiz-adv-x="1186" 
d="M604 -23q-99 0 -184 29.5t-150 83t-104 126.5t-46 160h134q9 -81 57.5 -143.5t125 -98.5t169.5 -36q81 0 148 27t116.5 75.5t76.5 115t27 146.5q0 78 -27 144.5t-75.5 115.5t-115 76t-144.5 27q-110 0 -199 -48.5t-144 -142.5h-123l78 809h800v-122h-687l-57 -544h3
q55 79 148 122.5t203 43.5q103 0 190 -35.5t151.5 -100t100 -152t35.5 -190.5q0 -107 -37.5 -196t-105.5 -154.5t-160.5 -101.5t-203.5 -36z" />
    <glyph glyph-name="six" unicode="6" horiz-adv-x="1206" 
d="M628 -23q-75 0 -151 22t-145.5 71.5t-124 131.5t-86 203t-31.5 286q0 242 65.5 415.5t188.5 266.5t294 93q120 0 218 -44.5t162.5 -125t84.5 -189.5h-138q-19 73 -65.5 126.5t-113.5 82.5t-149 29q-132 0 -225 -79.5t-141.5 -230t-48.5 -364.5h3q28 77 88.5 139.5
t147 98.5t189.5 36t190 -36t152 -100.5t101 -151.5t36 -189q0 -106 -37.5 -195.5t-105 -156t-159 -103t-199.5 -36.5zM627 99q76 0 142 28t115.5 78t77.5 116.5t28 142.5q0 78 -27 143.5t-75.5 114t-115 75.5t-144.5 27q-77 0 -144 -27t-117 -74.5t-78 -111t-28 -137.5
q0 -79 28 -147t77.5 -119.5t116 -80t144.5 -28.5z" />
    <glyph glyph-name="seven" unicode="7" horiz-adv-x="1105" 
d="M212 0l669 1317v4h-803v122h940v-128l-661 -1315h-145z" />
    <glyph glyph-name="eight" unicode="8" horiz-adv-x="1211" 
d="M604 -23q-114 0 -208 30.5t-162.5 86.5t-106 132t-37.5 166q0 91 40.5 167.5t113 129.5t168.5 74v3q-83 22 -143.5 69t-93.5 111.5t-33 142.5q0 82 34 150.5t96.5 119.5t146.5 79t185 28t185.5 -28t146 -79t95.5 -119.5t34 -150.5q0 -77 -33 -141.5t-93.5 -111
t-142.5 -70.5v-3q96 -21 168.5 -74t113 -130t40.5 -167q0 -91 -37.5 -167t-105.5 -131.5t-162.5 -86t-208.5 -30.5zM604 97q111 0 195.5 39.5t132 108t47.5 155.5q0 86 -47.5 153t-132 105t-195.5 38q-110 0 -195 -38t-132.5 -105t-47.5 -153q0 -87 47.5 -155.5t131.5 -108
t196 -39.5zM604 818q95 0 168.5 33.5t115.5 92t42 134.5q0 78 -41 138.5t-114.5 95.5t-170.5 35t-170.5 -35t-114.5 -95.5t-41 -138.5q0 -76 41.5 -134.5t115.5 -92t169 -33.5z" />
    <glyph glyph-name="nine" unicode="9" horiz-adv-x="1206" 
d="M567 -23q-123 0 -222 44.5t-163.5 124.5t-83.5 187h138q28 -109 115.5 -172.5t216.5 -63.5q90 0 165.5 40t131.5 122.5t87 210.5t30 304h-3q-28 -81 -90.5 -143.5t-149 -97.5t-185.5 -35q-103 0 -190.5 35.5t-152 100t-100.5 150.5t-36 188q0 107 37 197t104.5 156.5
t159 103.5t200.5 37q73 0 148.5 -21.5t145 -70.5t125 -131t87.5 -203.5t32 -287.5q0 -242 -65 -415.5t-187.5 -266.5t-294.5 -93zM576 619q78 0 144.5 27t117 75t78.5 111.5t28 136.5q0 78 -28 146t-77.5 119.5t-116.5 80t-145 28.5q-77 0 -143 -28t-115.5 -78t-77.5 -117
t-28 -144q0 -76 27 -141t75.5 -113.5t115 -75.5t145.5 -27z" />
    <glyph glyph-name="colon" unicode=":" horiz-adv-x="509" 
d="M254 -9q-39 0 -66.5 27t-27.5 66q0 40 27.5 67t66.5 27t66 -27t27 -67q0 -39 -27 -66t-66 -27zM254 837q-39 0 -66.5 27t-27.5 66q0 40 27.5 67t66.5 27t66 -27t27 -67q0 -39 -27 -66t-66 -27z" />
    <glyph glyph-name="semicolon" unicode=";" horiz-adv-x="509" 
d="M254 837q-39 0 -66.5 27t-27.5 66q0 40 27.5 67t66.5 27t66 -27t27 -67q0 -39 -27 -66t-66 -27zM212 -276h-111l96 482h141z" />
    <glyph glyph-name="less" unicode="&#x3c;" horiz-adv-x="1218" 
d="M1079 942l-783 -362v-8l783 -368v-140l-942 449v117l942 450v-138z" />
    <glyph glyph-name="equal" unicode="=" horiz-adv-x="1218" 
d="M1065 298h-914v118h914v-118zM1065 728h-914v118h914v-118z" />
    <glyph glyph-name="greater" unicode="&#x3e;" horiz-adv-x="1218" 
d="M137 942v138l942 -450v-117l-942 -449v140l783 368v8z" />
    <glyph glyph-name="question" unicode="?" horiz-adv-x="972" 
d="M57 1079q6 106 56.5 191.5t142 135.5t220.5 50q90 0 165.5 -27t130 -75.5t84.5 -114t30 -141.5q0 -111 -54 -193t-157 -148q-66 -42 -102.5 -78.5t-51 -77.5t-14.5 -96v-75h-133v94q-1 66 19.5 118.5t64 98t113.5 90.5q62 41 100.5 80.5t56 83t17.5 97.5q0 71 -35 126.5
t-97 87t-142 31.5t-141.5 -31.5t-99 -89.5t-43.5 -137h-130zM442 -9q-39 0 -66 27t-27 66q0 40 27 67t66 27q40 0 67 -27t27 -67q0 -39 -27 -66t-67 -27z" />
    <glyph glyph-name="at" unicode="@" horiz-adv-x="1770" 
d="M877 906q-72 0 -126 -38.5t-83.5 -109t-29.5 -164.5t29.5 -163.5t82.5 -108t126 -38.5q74 0 128.5 39t84.5 110t30 166q0 94 -29.5 163t-84 106.5t-128.5 37.5zM909 1434q175 0 321.5 -53.5t253.5 -152.5t166 -235.5t59 -302.5q0 -159 -42 -276.5t-121 -181.5t-189 -64
q-60 0 -108.5 22.5t-80 64t-39.5 97.5h-7q-34 -86 -101.5 -131.5t-160.5 -45.5q-103 0 -181 53t-121.5 148t-43.5 221q0 123 44 217t122 146.5t180 52.5q58 0 109 -20t88.5 -56t56.5 -85h7v141h116v-572q0 -68 35.5 -109.5t103.5 -41.5q67 0 117 49.5t78.5 144t28.5 228.5
q0 143 -51 261t-144 203.5t-221.5 132t-283.5 46.5q-153 0 -281.5 -54t-223 -153t-147 -233.5t-52.5 -294.5q0 -172 54 -308t151.5 -230.5t229.5 -144.5t289 -50q67 0 130.5 5.5t115.5 15.5t86 23v-99q-61 -21 -147 -32.5t-186 -11.5q-182 0 -334.5 56.5t-264 165
t-173 263.5t-61.5 351q0 147 39 274.5t112 229.5t174.5 175t227 112t270.5 39z" />
    <glyph glyph-name="A" unicode="A" horiz-adv-x="1262" 
d="M1093 0l-160 442h-606l-160 -442h-145l540 1443h136l539 -1443h-144zM627 1274l-259 -714h524l-259 714h-6z" />
    <glyph glyph-name="B" unicode="B" horiz-adv-x="1205" 
d="M656 0h-522v1443h519q124 0 217.5 -44.5t146 -124.5t52.5 -187q0 -80 -34 -148.5t-93.5 -115.5t-136.5 -61v-7q100 -12 176.5 -59t119.5 -123.5t43 -176.5q0 -123 -58.5 -211.5t-167.5 -136.5t-262 -48zM270 1322v-520h314q164 0 255.5 71t91.5 199q0 118 -81.5 184
t-225.5 66h-354zM270 121h367q177 0 272 74t95 208q0 135 -99 208t-286 73h-349v-563z" />
    <glyph glyph-name="C" unicode="C" horiz-adv-x="1371" 
d="M719 -23q-147 0 -266 52.5t-203 150.5t-129 236t-45 309q0 169 45 306t129.5 234t203 149t265.5 52q114 0 214 -35t178 -99.5t128 -152.5t65 -194h-137q-15 78 -55 143t-100 112t-134.5 73t-158.5 26q-115 0 -207.5 -43t-158.5 -123.5t-101.5 -193.5t-35.5 -254
q0 -143 35.5 -257.5t101.5 -195.5t159 -124.5t208 -43.5t208 39t155 111.5t84 172.5h137q-25 -141 -104 -241.5t-202 -154.5t-279 -54z" />
    <glyph glyph-name="D" unicode="D" horiz-adv-x="1364" 
d="M134 1443h468q216 0 369 -85.5t234 -246.5t81 -389q0 -229 -81 -390t-233.5 -246.5t-369.5 -85.5h-468v1443zM271 1319v-1195h323q177 0 300.5 69.5t188 203t64.5 324.5q0 192 -64.5 325.5t-188 203t-300.5 69.5h-323z" />
    <glyph glyph-name="E" unicode="E" horiz-adv-x="1104" 
d="M1005 124v-124h-871v1443h871v-124h-735v-519h698v-122h-698v-554h735z" />
    <glyph glyph-name="F" unicode="F" horiz-adv-x="1061" 
d="M270 0h-136v1443h856v-124h-720v-542h662v-122h-662v-655z" />
    <glyph glyph-name="G" unicode="G" horiz-adv-x="1409" 
d="M1323 586q0 -190 -71.5 -326.5t-206 -209.5t-321.5 -73q-147 0 -266 53.5t-204.5 152.5t-131.5 237.5t-46 309.5q0 168 45.5 303.5t130.5 232t204.5 148.5t267.5 52q114 0 212.5 -32.5t176 -92.5t129.5 -144.5t72 -187.5h-142q-29 103 -93 177t-154.5 113.5t-200.5 39.5
q-157 0 -270.5 -74t-175.5 -210.5t-62 -324.5q0 -143 35.5 -258.5t102.5 -197.5t160.5 -126t209.5 -44q139 0 243.5 56t162 157t57.5 237v51h-448v120h584v-139z" />
    <glyph glyph-name="H" unicode="H" horiz-adv-x="1387" 
d="M1251 0h-137v677h-844v-677h-136v1443h136v-642h844v642h137v-1443z" />
    <glyph glyph-name="I" unicode="I" horiz-adv-x="406" 
d="M270 0h-136v1443h136v-1443z" />
    <glyph glyph-name="J" unicode="J" horiz-adv-x="987" 
d="M41 331h135q3 -69 37 -122t92 -82.5t133 -29.5q132 0 204.5 77.5t72.5 222.5v1046h136v-1048q0 -133 -49.5 -228t-142 -146t-221.5 -51q-87 0 -159 26.5t-125 74.5t-82.5 114.5t-30.5 145.5z" />
    <glyph glyph-name="uni212A" unicode="&#x212a;" horiz-adv-x="1209" 
d="M270 0h-136v1443h136v-748h8l686 748h173l-593 -638l652 -805h-175l-573 708l-178 -193v-515z" />
    <glyph glyph-name="uni212A" unicode="K" horiz-adv-x="1209" 
d="M270 0h-136v1443h136v-748h8l686 748h173l-593 -638l652 -805h-175l-573 708l-178 -193v-515z" />
    <glyph glyph-name="L" unicode="L" horiz-adv-x="1052" 
d="M993 124v-124h-859v1443h136v-1319h723z" />
    <glyph glyph-name="M" unicode="M" horiz-adv-x="1660" 
d="M1524 0h-128v1184h-6l-502 -1184h-119l-501 1184h-6v-1184h-128v1443h157l535 -1269h6l534 1269h158v-1443z" />
    <glyph glyph-name="N" unicode="N" horiz-adv-x="1393" 
d="M269 0h-135v1443h135l846 -1205h7v1205h135v-1443h-132l-849 1206h-7v-1206z" />
    <glyph glyph-name="O" unicode="O" horiz-adv-x="1465" 
d="M731 1466q151 0 272 -52t207 -149.5t131.5 -235t45.5 -308.5t-45.5 -308.5t-131.5 -235t-207 -149t-272 -51.5t-272 51.5t-206.5 149t-131 235t-45.5 308.5t45.5 308.5t131 235t206.5 149.5t272 52zM731 1339q-118 0 -213.5 -43t-162.5 -124t-103 -195t-36 -256
t36 -255.5t103 -194.5t162.5 -124t213.5 -43t213.5 43t163 124t103.5 194.5t36 255.5t-36 256t-103.5 195t-163 124t-213.5 43z" />
    <glyph glyph-name="P" unicode="P" horiz-adv-x="1150" 
d="M134 1443h491q104 0 189 -32t146 -92t94.5 -142.5t33.5 -182.5t-33.5 -183t-95.5 -142.5t-147 -92t-188 -32.5h-354v-544h-136v1443zM270 1321v-655h323q111 0 190.5 39.5t122 113t42.5 175.5t-42.5 175.5t-121.5 112.5t-191 39h-323z" />
    <glyph glyph-name="Q" unicode="Q" horiz-adv-x="1465" 
d="M731 -23q-151 0 -272 51.5t-206.5 149t-131 235t-45.5 308.5t45.5 308.5t131 235t206.5 149.5t272 52t272 -52t207 -149.5t131.5 -235t45.5 -308.5q0 -215 -72 -376.5t-204 -255.5l188 -258h-154l-145 198q-60 -25 -127 -38.5t-142 -13.5zM731 104q52 0 99.5 9t90.5 25
l-187 257h154l143 -196q104 77 159.5 211.5t55.5 310.5q0 142 -36 256t-103 195t-162.5 124t-213.5 43t-213.5 -43t-162.5 -124t-103 -195t-36 -256t36 -255.5t103.5 -194.5t162.5 -124t213 -43z" />
    <glyph glyph-name="R" unicode="R" horiz-adv-x="1193" 
d="M270 1321v-609h362q157 0 244.5 80t87.5 225q0 95 -40.5 163.5t-116 104.5t-180.5 36h-357zM270 591v-591h-136v1443h509q141 0 244.5 -52t160.5 -146.5t57 -223.5q0 -102 -37 -185t-106 -140.5t-166 -82.5l350 -613h-160l-332 591h-10.5h-11.5h-362z" />
    <glyph glyph-name="S" unicode="S" horiz-adv-x="1181" 
d="M63 385h137q9 -87 62 -150.5t141 -98.5t201 -35q109 0 192.5 35.5t131.5 98.5t48 145q0 102 -72.5 166.5t-239.5 102.5l-157 35q-215 48 -311 142.5t-96 243.5q0 87 37 159.5t103.5 125.5t156.5 82t196 29q105 0 194.5 -29.5t156 -83t104.5 -126.5t41 -160h-137
q-7 83 -54 144.5t-126 96t-182 34.5q-97 0 -176.5 -32.5t-126.5 -92t-47 -141.5q0 -98 71.5 -162t231.5 -100l157 -36q149 -34 240.5 -84.5t133.5 -123t42 -172.5q0 -128 -64.5 -222.5t-181.5 -146.5t-273 -52q-116 0 -211.5 29t-165.5 83.5t-110.5 129.5t-46.5 166z" />
    <glyph glyph-name="T" unicode="T" horiz-adv-x="1165" 
d="M650 0h-137v1319h-476v124h1090v-124h-477v-1319z" />
    <glyph glyph-name="U" unicode="U" horiz-adv-x="1386" 
d="M270 1443v-931q0 -121 50.5 -213t145 -143.5t226.5 -51.5q133 0 227 51.5t144.5 143.5t50.5 213v931h137v-939q0 -117 -38.5 -213.5t-111 -166.5t-176 -108.5t-233.5 -38.5t-233.5 38.5t-176 108.5t-110.5 166.5t-38 213.5v939h136z" />
    <glyph glyph-name="V" unicode="V" horiz-adv-x="1262" 
d="M698 0h-136l-540 1443h145l460 -1273h6l461 1273h144z" />
    <glyph glyph-name="W" unicode="W" horiz-adv-x="1854" 
d="M922 1209l-355 -1209h-127l-397 1443h142l318 -1233h6l349 1233h136l348 -1233h7l317 1233h143l-398 -1443h-126l-355 1209h-8z" />
    <glyph glyph-name="X" unicode="X" horiz-adv-x="1263" 
d="M43 0l502 722v5l-498 716h165l421 -613h5l424 613h157l-507 -722v-4l499 -717h-164l-419 610h-5l-425 -610h-155z" />
    <glyph glyph-name="Y" unicode="Y" horiz-adv-x="1219" 
d="M677 0h-137v624l-517 819h156l427 -685h5l427 685h156l-517 -819v-624z" />
    <glyph glyph-name="Z" unicode="Z" horiz-adv-x="1224" 
d="M86 0v99l866 1214v6h-838v124h1011v-100l-864 -1213v-6h876v-124h-1051z" />
    <glyph glyph-name="bracketleft" unicode="[" horiz-adv-x="626" 
d="M203 1443h399v-106h-271v-1536h271v-105h-399v1747z" />
    <glyph glyph-name="backslash" unicode="\" horiz-adv-x="626" 
d="M510 -304l-510 1747h116l510 -1747h-116z" />
    <glyph glyph-name="bracketright" unicode="]" horiz-adv-x="626" 
d="M421 1443v-1747h-399v105h270v1536h-270v106h399z" />
    <glyph glyph-name="asciicircum" unicode="^" horiz-adv-x="789" 
d="M389 1275l-195 -410h-123l257 530h131l257 -530h-125l-194 410h-8z" />
    <glyph glyph-name="underscore" unicode="_" horiz-adv-x="819" 
d="M877 -222h-935v100h935v-100z" />
    <glyph glyph-name="grave" unicode="`" horiz-adv-x="1024" 
d="M571 1199l-226 301h147l186 -301h-107z" />
    <glyph glyph-name="a" unicode="a" horiz-adv-x="1014" 
d="M448 97q68 0 127 22.5t103.5 62.5t69.5 93.5t25 115.5v115l-308 -21q-123 -8 -189 -59.5t-66 -137.5q0 -56 30 -99.5t83.5 -67.5t124.5 -24zM421 -17q-102 0 -180 38.5t-121.5 107t-43.5 159.5q0 134 96.5 212t276.5 90l324 20v90q0 112 -68 176t-189 64q-115 0 -186 -53
t-88 -148h-128q7 93 58.5 165t140 112.5t206.5 40.5t205 -42t134 -119.5t47 -183.5v-712h-126v198h-3q-29 -64 -83 -112.5t-124 -75.5t-148 -27z" />
    <glyph glyph-name="b" unicode="b" horiz-adv-x="1117" 
d="M613 -17q-124 0 -219 63.5t-142 173.5h-3v-220h-127v1443h133v-620h3q29 71 82 124t123 81.5t151 28.5q98 0 178.5 -38t139 -109t90 -169.5t31.5 -220.5t-31.5 -220.5t-90 -169.5t-139.5 -109t-179 -38zM588 940q-97 0 -172.5 -53t-118.5 -148t-43 -219
q0 -125 42.5 -219.5t118 -147.5t173.5 -53q100 0 174 52t114.5 146t40.5 222q0 127 -40.5 221.5t-114.5 146.5t-174 52z" />
    <glyph glyph-name="c" unicode="c" horiz-adv-x="1012" 
d="M959 711h-130q-14 64 -53 116t-100.5 82.5t-143.5 30.5q-101 0 -177 -51.5t-117.5 -146t-41.5 -222.5q0 -130 42 -224.5t117.5 -145t177.5 -50.5q118 0 196 60.5t100 161.5h131q-15 -100 -72.5 -176t-149 -119.5t-206.5 -43.5q-142 0 -248 65t-164.5 185.5t-58.5 286.5
q0 164 58.5 284.5t164 186.5t247.5 66q92 0 166.5 -27.5t129.5 -75.5t88.5 -110.5t43.5 -132.5z" />
    <glyph glyph-name="d" unicode="d" horiz-adv-x="1119" 
d="M506 -17q-99 0 -180.5 38t-140.5 109t-91.5 170t-32.5 220q0 122 32 220.5t91 169.5t140 109t179 38q84 0 154.5 -29.5t122 -81.5t79.5 -120h3v617h133v-1443h-126v220h-3q-29 -70 -82 -123.5t-123.5 -83.5t-154.5 -30zM529 940q-100 0 -174.5 -52t-116 -146.5
t-41.5 -221.5t41.5 -221.5t116 -146.5t174.5 -52q99 0 174.5 52.5t117.5 147t42 220.5t-42 220.5t-117.5 147t-174.5 52.5z" />
    <glyph glyph-name="e" unicode="e" horiz-adv-x="1040" 
d="M524 941q-93 0 -164.5 -44.5t-114 -122.5t-47.5 -181h642q-1 103 -41 181t-110.5 122.5t-164.5 44.5zM832 295h131q-16 -90 -74 -160.5t-149 -111t-206 -40.5q-146 0 -252 64.5t-163.5 184.5t-57.5 285q0 121 33 220.5t94 171t146.5 110t191.5 38.5q138 0 239 -63.5
t156 -179t55 -270.5v-56h-779v-8q0 -118 42 -203t118 -131.5t180 -46.5q78 0 139.5 25.5t101 69.5t54.5 101z" />
    <glyph glyph-name="f" unicode="f" horiz-adv-x="581" 
d="M166 0v930h-145v110h145v132q0 141 67.5 207.5t198.5 66.5q27 0 53 -2.5t43 -5.5v-109q-16 3 -36 5t-41 2q-75 0 -114 -40t-39 -127v-129h224v-110h-223v-930h-133z" />
    <glyph glyph-name="g" unicode="g" horiz-adv-x="1107" 
d="M524 107q100 0 175.5 52t117.5 145.5t42 218.5t-42 218.5t-117.5 146t-175.5 52.5q-98 0 -171.5 -52t-114.5 -146t-41 -220t41 -219t114.5 -144.5t171.5 -51.5zM537 -385q-114 0 -205 38t-149 103.5t-73 147.5h137q17 -51 58 -90.5t101.5 -62t136.5 -22.5
q98 0 168.5 35.5t109 99t38.5 148.5v209h-3q-28 -67 -80 -119t-122.5 -82t-153.5 -30q-99 0 -179.5 37.5t-138.5 108t-89.5 168.5t-31.5 219t31.5 219.5t90 168.5t139.5 108t181 38q83 0 153.5 -29.5t123.5 -83t83 -124.5h3v220h126v-1023q0 -121 -56 -211.5t-158 -140.5
t-241 -50z" />
    <glyph glyph-name="h" unicode="h" horiz-adv-x="1082" 
d="M122 0v1443h133v-595h3q40 96 129.5 152.5t213.5 56.5q114 0 197.5 -47.5t129 -134.5t45.5 -203v-672h-133v650q0 135 -72.5 212t-204.5 77q-94 0 -163 -41t-107 -114.5t-38 -171.5v-612h-133z" />
    <glyph glyph-name="i" unicode="i" horiz-adv-x="378" 
d="M122 0v1040h132v-1040h-132zM188 1256q-37 0 -63 25.5t-26 62.5t26 62.5t63 25.5t63 -25.5t26 -62.5t-26 -62.5t-63 -25.5z" />
    <glyph glyph-name="j" unicode="j" horiz-adv-x="378" 
d="M255 1040v-1106q0 -149 -72.5 -219t-226.5 -70h-16.5t-15.5 1v112h13.5h13.5q93 0 132.5 40t39.5 134v1108h132zM188 1256q-37 0 -63 25.5t-26 62.5t26 62.5t63 25.5t63 -25.5t26 -62.5t-26 -62.5t-63 -25.5z" />
    <glyph glyph-name="k" unicode="k" horiz-adv-x="957" 
d="M255 548l514 492h164l-467 -449l476 -591h-155l-416 510l-116 -107v-403h-133v1443h133v-895z" />
    <glyph glyph-name="l" unicode="l" horiz-adv-x="378" 
d="M122 0v1443h132v-1443h-132z" />
    <glyph glyph-name="m" unicode="m" horiz-adv-x="1621" 
d="M113 0v1040h125v-192h3q22 61 64.5 108t103 74t135.5 27q114 0 193 -60.5t108 -158.5h3q25 64 72 113.5t112 77.5t144 28q101 0 177 -43t117.5 -120.5t41.5 -182.5v-711h-132v681q0 121 -64 189.5t-177 68.5q-77 0 -135.5 -36.5t-91.5 -100.5t-33 -147v-655h-133v693
q0 75 -30 130t-83.5 85.5t-124.5 30.5q-77 0 -136 -38t-93 -105.5t-34 -156.5v-639h-132z" />
    <glyph glyph-name="n" unicode="n" horiz-adv-x="1062" 
d="M113 0v1040h125v-192h3q40 94 128.5 151.5t214.5 57.5q114 0 196.5 -46.5t127 -132.5t44.5 -204v-674h-132v653q0 137 -71.5 211.5t-202.5 74.5q-90 0 -157.5 -40.5t-105.5 -113.5t-38 -169v-616h-132z" />
    <glyph glyph-name="o" unicode="o" horiz-adv-x="1072" 
d="M535 -17q-106 0 -193 37.5t-150 107.5t-97 169t-34 223t34 223.5t97 169.5t150 107t193 37q142 0 248.5 -65.5t166 -185.5t59.5 -286q0 -124 -34 -223t-97 -169t-150 -107.5t-193 -37.5zM535 100q102 0 178.5 50t119 144t42.5 226t-42.5 226t-119 144t-178.5 50t-178 -50
t-118.5 -144t-42.5 -226t42.5 -226t118.5 -144t178 -50z" />
    <glyph glyph-name="p" unicode="p" horiz-adv-x="1107" 
d="M600 1057q99 0 180 -38t140 -109t91 -170t32 -220q0 -122 -32 -220.5t-90.5 -169.5t-139 -109t-178.5 -38q-84 0 -154 29.5t-121 81.5t-79 120h-4v-558h-132v1384h125v-220h4q29 69 80.5 122.5t122 84t155.5 30.5zM577 100q100 0 174.5 52t115.5 146.5t41 221.5
q0 126 -41 220.5t-115.5 147t-174.5 52.5q-98 0 -173 -53t-117 -147.5t-42 -219.5q0 -126 42 -220.5t117 -147t173 -52.5z" />
    <glyph glyph-name="q" unicode="q" horiz-adv-x="1110" 
d="M504 1057q85 0 156 -30t123 -83.5t82 -123.5h4v220h126v-1384h-133v561h-3q-28 -69 -80.5 -122t-123 -82.5t-153.5 -29.5q-99 0 -180 38t-139.5 109t-90 169.5t-31.5 220.5t32 220.5t90.5 169.5t140 109t180.5 38zM526 100q99 0 174.5 52.5t118.5 147t43 220.5t-43 220.5
t-118.5 147t-174.5 52.5t-173 -52t-115 -146t-41 -222t41 -222t115 -146t173 -52z" />
    <glyph glyph-name="r" unicode="r" horiz-adv-x="615" 
d="M113 0v1040h125v-185h3q28 95 97.5 148.5t165.5 53.5q26 0 48 -4t34 -7v-130q-13 6 -39 10.5t-60 4.5q-74 0 -128.5 -35.5t-84 -99.5t-29.5 -148v-648h-132z" />
    <glyph glyph-name="s" unicode="s" horiz-adv-x="927" 
d="M92 762q0 86 47.5 152.5t130.5 104.5t192 38q111 0 194.5 -40t132.5 -111.5t55 -166.5h-127q-13 97 -80 153t-175 56q-71 0 -125 -23t-84 -63.5t-30 -92.5q0 -64 47 -105t150 -66l157 -37q104 -25 167 -61.5t91 -89t28 -126.5q0 -88 -50.5 -156t-139 -106.5t-202.5 -38.5
q-118 0 -206.5 39t-141 110t-61.5 166h132q15 -98 87.5 -152t189.5 -54q78 0 136 23t90.5 64t32.5 95q0 68 -43 108t-148 66l-156 37q-148 35 -219.5 102t-71.5 175z" />
    <glyph glyph-name="t" unicode="t" horiz-adv-x="582" 
d="M170 1300h132v-260h205v-110h-205v-668q0 -80 33 -116.5t105 -36.5q7 0 23 0.5t30.5 1.5t18.5 2v-113q-7 -2 -25 -3t-38.5 -2t-34.5 -1q-131 0 -187.5 60.5t-56.5 201.5v674h-155v110h155v260z" />
    <glyph glyph-name="u" unicode="u" horiz-adv-x="1062" 
d="M947 1040v-1040h-125v193h-3q-41 -96 -131 -153t-214 -57q-113 0 -195.5 46.5t-127 132t-44.5 202.5v676h133v-653q0 -138 70.5 -212t201.5 -74q91 0 159 40t106 112.5t38 169.5v617h132z" />
    <glyph glyph-name="v" unicode="v" horiz-adv-x="946" 
d="M929 1040l-386 -1040h-141l-387 1040h140l316 -901h3l317 901h138z" />
    <glyph glyph-name="w" unicode="w" horiz-adv-x="1430" 
d="M1409 1040l-295 -1040h-140l-259 863h-3l-258 -863h-140l-296 1040h134l233 -892h3l259 892h134l259 -892h3l233 892h133z" />
    <glyph glyph-name="x" unicode="x" horiz-adv-x="921" 
d="M460 427h-3l-287 -427h-148l365 523l-361 517h150l285 -417h3l284 417h149l-363 -512l360 -528h-149z" />
    <glyph glyph-name="y" unicode="y" horiz-adv-x="951" 
d="M188 -376q-16 0 -35.5 2t-30.5 4v113q12 -3 29 -4.5t33 -1.5q72 0 115.5 40.5t78.5 137.5l27 78l-389 1047h142l316 -908h3l316 908h140l-409 -1103q-34 -92 -67 -152.5t-71 -96t-86 -50t-112 -14.5z" />
    <glyph glyph-name="z" unicode="z" horiz-adv-x="932" 
d="M79 0v98l619 829v3h-619v110h771v-100l-619 -827v-3h621v-110h-773z" />
    <glyph glyph-name="braceleft" unicode="{" horiz-adv-x="626" 
d="M147 569q112 -11 165.5 -67t53.5 -165v-297q0 -127 48.5 -181t154.5 -54h33v-109h-44q-164 0 -241 79.5t-77 249.5v259q0 81 -20.5 128.5t-68.5 68t-129 20.5v157q81 0 129 20.5t68.5 68t20.5 129.5v240q0 170 76.5 248.5t241.5 78.5h44v-109h-33q-107 0 -155 -52.5
t-48 -179.5v-279q0 -109 -53.5 -165t-165.5 -67v-22z" />
    <glyph glyph-name="bar" unicode="|" horiz-adv-x="626" 
d="M369 -304h-114v1747h114v-1747z" />
    <glyph glyph-name="braceright" unicode="}" horiz-adv-x="626" 
d="M477 569v22q-112 11 -165.5 67t-53.5 165v279q0 127 -48 179.5t-155 52.5h-33v109h44q165 0 241.5 -78.5t76.5 -248.5v-240q0 -82 20.5 -129.5t68.5 -68t129 -20.5v-157q-81 0 -129 -20.5t-68.5 -68t-20.5 -128.5v-259q0 -170 -77 -249.5t-241 -79.5h-44v109h33
q106 0 154.5 54t48.5 181v297q0 109 53.5 165t165.5 67z" />
    <glyph glyph-name="asciitilde" unicode="~" horiz-adv-x="1218" 
d="M823 397q-48 0 -88 13t-83 43.5t-99 80.5t-91 69t-73 19q-65 0 -104 -51.5t-43 -144.5h-120q0 109 37.5 179.5t98.5 105t131 34.5q47 0 87 -14t82 -44.5t95 -79.5q39 -35 68 -54t52.5 -26.5t48.5 -7.5q67 0 107.5 53.5t45.5 147.5h119q0 -108 -39 -180t-100.5 -107.5
t-131.5 -35.5z" />
    <glyph glyph-name="uni00A0" unicode="&#xa0;" horiz-adv-x="405" 
 />
    <glyph glyph-name="exclamdown" unicode="&#xa1;" horiz-adv-x="531" 
d="M195 -340l9 986h121l8 -986h-138zM264 927q-39 0 -66 27t-27 67t27 66.5t66 26.5q40 0 67 -26.5t27 -66.5t-27 -67t-67 -27z" />
    <glyph glyph-name="cent" unicode="&#xa2;" horiz-adv-x="1218" 
d="M587 295v854q-94 -12 -163 -66.5t-107 -145.5t-38 -215q0 -126 38 -217.5t107 -144.5t163 -65zM962 524h131q-14 -96 -69.5 -172t-143 -122t-198.5 -54v-176h-95v177q-134 12 -233.5 81t-154 187t-54.5 277q0 157 54.5 275t154 188t233.5 82v176h95v-176
q117 -9 204.5 -59t140 -128t65.5 -168h-130q-20 95 -92 161t-188 77v-856q111 10 185 70t95 160z" />
    <glyph glyph-name="sterling" unicode="&#xa3;" horiz-adv-x="1218" 
d="M309 128h831v-118h-1054v117q97 15 162 67t97.5 127t32.5 157q0 46 -9 93t-22 97h-246v106h218q-14 54 -24 110t-10 112q0 136 58 237t167 156t262 55q100 0 177.5 -17.5t116.5 -36.5v-121q-45 21 -118 37.5t-165 16.5q-115 0 -195 -40.5t-121.5 -112t-41.5 -165.5
q0 -66 11 -122t25 -109h501v-106h-473q10 -43 17 -88t7 -97q0 -87 -27 -160t-73 -123t-104 -68v-4z" />
    <glyph glyph-name="currency" unicode="&#xa4;" horiz-adv-x="1218" 
d="M324 656q0 -59 22 -111t61.5 -91.5t91 -61.5t110.5 -22t111 22.5t91.5 62t61.5 91t22 110.5t-22 110.5t-61.5 91t-91.5 62t-111 22.5t-110.5 -22.5t-91 -62t-61.5 -91t-22 -110.5zM1087 1052l-167 -168q35 -48 55 -106t20 -122t-20 -122.5t-56 -106.5l168 -168l-83 -82
l-167 168q-48 -35 -106 -55t-122 -20t-122 20t-106 55l-169 -168l-82 82l169 169q-35 48 -55 106t-20 122t20 122t55 106l-169 168l82 82l168 -168q48 36 106.5 56t122.5 20t122.5 -20t106.5 -55l166 167z" />
    <glyph glyph-name="yen" unicode="&#xa5;" horiz-adv-x="1218" 
d="M1181 1421l-456 -730h304v-95h-353v-172h353v-95h-353v-326h-134v326h-344v95h344v172h-344v95h295l-457 730h155l415 -684h5l415 684h155z" />
    <glyph glyph-name="brokenbar" unicode="&#xa6;" horiz-adv-x="626" 
d="M369 743h-114v700h114v-700zM369 -304h-114v697h114v-697z" />
    <glyph glyph-name="section" unicode="&#xa7;" horiz-adv-x="1080" 
d="M481 380l79 -17q70 1 125 28t87 74t32 107q0 147 -205 193l-80 18q-70 -1 -125 -28.5t-87.5 -75t-32.5 -106.5q0 -145 207 -193zM544 -250q-109 0 -195.5 36.5t-139 101t-59.5 149.5h134q8 -52 44 -91t93.5 -61t129.5 -22q74 0 130 23t88 64.5t32 94.5q0 66 -52 110
t-165 73l-128 33q-164 43 -240.5 112t-76.5 176q0 98 62.5 168.5t174.5 97.5v11q-226 80 -226 268q0 89 48.5 157t134.5 106t199 38q107 0 190.5 -34t134 -96.5t61.5 -148.5h-131q-8 50 -42.5 87.5t-90 58t-125.5 20.5q-72 0 -128 -23t-87.5 -63.5t-31.5 -93.5
q0 -68 51.5 -112t164.5 -72l127 -34q163 -41 238.5 -109.5t75.5 -172.5q0 -69 -32 -127t-90 -98t-136 -55v-12q250 -60 250 -257q0 -89 -49.5 -157t-137 -107t-200.5 -39z" />
    <glyph glyph-name="dieresis" unicode="&#xa8;" horiz-adv-x="1024" 
d="M340 1256q-36 0 -62 25.5t-26 62.5t26 62.5t62 25.5q37 0 63 -25.5t26 -62.5t-26 -62.5t-63 -25.5zM682 1256q-37 0 -63 25.5t-26 62.5t26 62.5t63 25.5t62.5 -25.5t25.5 -62.5t-25.5 -62.5t-62.5 -25.5z" />
    <glyph glyph-name="copyright" unicode="&#xa9;" horiz-adv-x="1717" 
d="M858 -158q-132 0 -250 38.5t-215.5 109t-168.5 168t-110 216t-39 252.5t39 253t110 216.5t168.5 168t215.5 108.5t250 38t250.5 -38t215.5 -108.5t168.5 -168t110 -216.5t38.5 -253t-38.5 -252.5t-110 -216t-168.5 -168t-215.5 -109t-250.5 -38.5zM858 -49
q114 0 215.5 33t185 93.5t144.5 144.5t94.5 186t33.5 218t-33.5 218.5t-94.5 186.5t-144.5 144.5t-185 93t-215.5 32.5q-113 0 -214.5 -32.5t-185.5 -93t-145.5 -144.5t-95 -186.5t-33.5 -218.5t33.5 -218t95 -186t145.5 -144.5t185.5 -93.5t214.5 -33zM1224 780h-108
q-13 48 -46 88t-84 63.5t-119 23.5q-84 0 -148 -39t-100 -111.5t-36 -174.5q0 -103 36 -177t100 -114t148 -40q100 0 164.5 46t83.5 123h109q-13 -78 -59 -138t-121.5 -94t-176.5 -34q-118 0 -206.5 52t-138.5 147.5t-50 228.5q0 130 50 225t138.5 146.5t206.5 51.5
q101 0 176.5 -37.5t121.5 -99.5t59 -136z" />
    <glyph glyph-name="ordfeminine" unicode="&#xaa;" horiz-adv-x="624" 
d="M279 933q49 0 88.5 19t63 52.5t23.5 74.5v59l-167 -11q-66 -5 -101 -30t-35 -69q0 -43 35 -69t93 -26zM250 850q-60 0 -106.5 22t-73 61t-26.5 92q0 77 59 122t169 52l182 11v46q0 56 -36.5 88t-101.5 32q-62 0 -100.5 -27t-47.5 -74h-100q7 83 74 134.5t178 51.5
q73 0 127 -24t83.5 -68.5t29.5 -103.5v-406h-102v105h-2q-26 -52 -83 -83t-123 -31z" />
    <glyph glyph-name="guillemotleft" unicode="&#xab;" horiz-adv-x="1209" 
d="M300 572v-12l357 -411h-157l-358 414v6l358 414h157zM708 572v-12l358 -411h-157l-359 414v6l359 414h157z" />
    <glyph glyph-name="logicalnot" unicode="&#xac;" horiz-adv-x="1218" 
d="M1054 634v-558h-124v435h-768v123h892z" />
    <glyph glyph-name="registered" unicode="&#xae;" horiz-adv-x="1132" 
d="M565 617q-95 0 -178 34.5t-145.5 96.5t-98 144t-35.5 176t35 176t97.5 143.5t145.5 96t179 34.5t179 -34.5t145.5 -96t97.5 -143.5t35 -176t-35 -176t-97.5 -144t-145.5 -96.5t-179 -34.5zM565 699q78 0 145 28.5t117.5 79t78.5 117.5t28 144t-28 144t-78.5 117.5
t-117.5 79t-145 28.5q-77 0 -144 -28.5t-117.5 -79t-79 -117.5t-28.5 -144t28.5 -144t79 -117.5t117.5 -79t144 -28.5zM469 854h-76v449h202q68 0 111 -38.5t43 -98.5q0 -53 -28 -87.5t-79 -44.5l129 -180h-94l-115 170h-93v-170zM469 1237v-152h110q42 0 65 20.5t23 57.5
q0 74 -87 74h-111z" />
    <glyph glyph-name="macron" unicode="&#xaf;" horiz-adv-x="1024" 
d="M780 1385v-95h-538v95h538z" />
    <glyph glyph-name="degree" unicode="&#xb0;" horiz-adv-x="789" 
d="M394 845q-60 0 -112 22t-91 61t-61 91t-22 111q0 60 22 111.5t61 90.5t91 61t112 22q59 0 111 -22t91 -61t61 -90.5t22 -111.5q0 -59 -22 -111t-61 -91t-91 -61t-111 -22zM394 957q47 0 86 23t61.5 62.5t22.5 87.5q0 49 -22.5 88.5t-61.5 63t-86 23.5t-85.5 -23.5
t-62 -63t-23.5 -88.5q0 -48 23.5 -87.5t62 -62.5t85.5 -23z" />
    <glyph glyph-name="plusminus" unicode="&#xb1;" horiz-adv-x="1218" 
d="M1089 76h-961v114h961v-114zM666 642v-319h-115v319h-423v115h423v311h115v-311h423v-115h-423z" />
    <glyph glyph-name="uni00B2" unicode="&#xb2;" horiz-adv-x="605" 
d="M56 1342q1 64 33 112.5t88.5 76t128.5 27.5q71 0 125 -26t84 -70t30 -100q0 -40 -15 -75t-51 -75.5t-97 -97.5l-175 -161v-3h353v-91h-498v78l255 237q48 46 74 76.5t36 54t10 49.5q0 49 -36 81.5t-95 32.5q-63 0 -105 -35.5t-43 -90.5h-102z" />
    <glyph glyph-name="uni00B3" unicode="&#xb3;" horiz-adv-x="624" 
d="M215 1171v82h81q65 0 105 30.5t40 79.5q0 48 -35.5 76.5t-99.5 28.5q-60 0 -100.5 -29t-44.5 -79h-101q3 60 35.5 104.5t87 69t123.5 24.5q72 0 126 -23t84 -63.5t30 -93.5q0 -64 -42.5 -106t-108.5 -55v-3q81 -7 129.5 -50.5t48.5 -114.5q0 -61 -34 -106.5t-93.5 -71.5
t-136.5 -26q-76 0 -135 25.5t-93 70.5t-37 105h104q4 -48 48 -78t113 -30q68 0 110.5 32t42.5 83q0 56 -43.5 87t-120.5 31h-83z" />
    <glyph glyph-name="acute" unicode="&#xb4;" horiz-adv-x="1024" 
d="M451 1199h-106l186 301h147z" />
    <glyph glyph-name="mu" unicode="&#x3bc;" horiz-adv-x="1168" 
d="M113 -344v1384h132v-646q0 -140 70 -216t199 -76q93 0 161 40.5t105 113t37 169.5v615h132v-800q0 -72 23.5 -103t74.5 -31q16 0 31.5 2t26.5 7l2 -112q-13 -5 -37.5 -8.5t-46.5 -3.5q-85 0 -133.5 38t-63.5 122q-1 6 -2 21t-2 22h-2q-43 -98 -125 -154.5t-185 -56.5
q-62 0 -115 19.5t-91.5 54.5t-56.5 83h-2v-484h-132z" />
    <glyph glyph-name="mu" unicode="&#xb5;" horiz-adv-x="1168" 
d="M113 -344v1384h132v-646q0 -140 70 -216t199 -76q93 0 161 40.5t105 113t37 169.5v615h132v-800q0 -72 23.5 -103t74.5 -31q16 0 31.5 2t26.5 7l2 -112q-13 -5 -37.5 -8.5t-46.5 -3.5q-85 0 -133.5 38t-63.5 122q-1 6 -2 21t-2 22h-2q-43 -98 -125 -154.5t-185 -56.5
q-62 0 -115 19.5t-91.5 54.5t-56.5 83h-2v-484h-132z" />
    <glyph glyph-name="paragraph" unicode="&#xb6;" horiz-adv-x="1080" 
d="M671 -195h-116l-1 899h-17q-87 0 -160.5 27t-128 76t-84.5 115.5t-30 145.5q0 83 30 151.5t84.5 118.5t128 77.5t161.5 27.5h133v-1638zM828 -195v1638h116v-1638h-116z" />
    <glyph glyph-name="periodcentered" unicode="&#xb7;" horiz-adv-x="509" 
d="M254 426q-39 0 -66.5 27.5t-27.5 66.5t27.5 66.5t66.5 27.5t66 -27.5t27 -66.5t-27 -66.5t-66 -27.5z" />
    <glyph glyph-name="cedilla" unicode="&#xb8;" horiz-adv-x="1024" 
d="M409 -215v59l76 163h97v-7l-62 -131q97 -2 154 -43.5t57 -116.5q0 -55 -31 -94t-84 -59.5t-118 -21.5q-40 -1 -80.5 3.5t-59.5 11.5v85q16 -4 47.5 -8.5t67.5 -4.5q38 0 71 9.5t54 28.5t21 47q0 79 -148 79h-62z" />
    <glyph glyph-name="uni00B9" unicode="&#xb9;" horiz-adv-x="468" 
d="M236 859v579h-2q-3 -2 -22 -13.5t-45 -28.5t-52 -33.5t-45.5 -29t-23.5 -14.5v102q4 2 23 14.5t45.5 29.5t52.5 34t45.5 29.5t23.5 15.5h108v-685h-108z" />
    <glyph glyph-name="ordmasculine" unicode="&#xba;" horiz-adv-x="653" 
d="M326 848q-87 0 -152.5 37t-101.5 106t-36 164t36.5 163.5t101.5 105.5t152 37t152 -37t101 -105.5t36 -163.5t-36 -164t-101 -106t-152 -37zM326 935q82 0 132 58t50 162q0 103 -50 161.5t-132 58.5q-83 0 -133 -58.5t-50 -161.5q0 -104 50 -162t133 -58z" />
    <glyph glyph-name="guillemotright" unicode="&#xbb;" horiz-adv-x="1209" 
d="M499 572l-357 411h157l358 -414v-6l-358 -414h-157l357 411v12zM907 572l-357 411h157l359 -414v-6l-359 -414h-157l357 411v12z" />
    <glyph glyph-name="onequarter" unicode="&#xbc;" horiz-adv-x="1347" 
d="M236 759v579h-2q-3 -2 -22 -13.5t-45 -28.5t-52 -33.5t-45.5 -29t-23.5 -14.5v102q4 2 23 14.5t45.5 29.5t52.5 34t45.5 29.5t23.5 15.5h108v-685h-108zM219 0h-125l980 1443h124zM1111 0v139h-361v95q36 62 79.5 127.5t99.5 144t131 179.5h155v-455h102v-91h-102v-139
h-104zM848 230v-3h264v374h-1q-87 -111 -149.5 -199.5t-113.5 -171.5z" />
    <glyph glyph-name="onehalf" unicode="&#xbd;" horiz-adv-x="1406" 
d="M236 759v579h-2q-3 -2 -22 -13.5t-45 -28.5t-52 -33.5t-45.5 -29t-23.5 -14.5v102q4 2 23 14.5t45.5 29.5t52.5 34t45.5 29.5t23.5 15.5h108v-685h-108zM219 0h-125l980 1443h124zM857 483q0 63 32.5 112t89 76.5t128.5 27.5q71 0 125 -26t84 -70.5t30 -99.5
q0 -41 -15 -75.5t-50.5 -75t-97.5 -97.5l-175 -161v-3h353v-91h-498v78l255 237q49 46 74.5 76.5t35.5 54.5t10 49q0 49 -36.5 81.5t-94.5 32.5q-63 0 -105 -35.5t-43 -90.5h-102z" />
    <glyph glyph-name="threequarters" unicode="&#xbe;" horiz-adv-x="1503" 
d="M215 1071v82h81q65 0 105 30.5t40 79.5q0 48 -35.5 76.5t-99.5 28.5q-60 0 -100.5 -29t-44.5 -79h-101q3 60 35.5 104.5t87 69t123.5 24.5q72 0 126 -23t84 -63.5t30 -93.5q0 -64 -42.5 -106t-108.5 -55v-3q81 -7 129.5 -50.5t48.5 -114.5q0 -61 -34 -106.5t-93.5 -71.5
t-136.5 -26q-76 0 -135 25.5t-93 70.5t-37 105h104q4 -48 48 -78t113 -30q68 0 110.5 32t42.5 83q0 56 -43.5 87t-120.5 31h-83zM375 0h-125l980 1443h124zM1267 0v139h-361v95q36 62 79.5 127.5t99.5 144t131 179.5h155v-455h102v-91h-102v-139h-104zM1004 230v-3h264v374
h-1q-87 -111 -149.5 -199.5t-113.5 -171.5z" />
    <glyph glyph-name="questiondown" unicode="&#xbf;" horiz-adv-x="972" 
d="M913 19q-6 -107 -56.5 -192.5t-142 -135.5t-220.5 -50q-90 0 -165.5 27t-130 75.5t-84.5 114t-30 142.5q0 110 54 192t156 149q66 42 102.5 78t51 76.5t14.5 96.5v75h133v-94q0 -66 -19.5 -118t-63 -97.5t-114.5 -91.5q-93 -62 -133 -121t-40 -138q0 -72 35 -127.5
t96.5 -87.5t142.5 -32q80 0 141.5 31.5t99 90t43.5 137.5h130zM518 927q-40 0 -67 27t-27 67t27 66.5t67 26.5t66.5 -26.5t26.5 -66.5t-26.5 -67t-66.5 -27z" />
    <glyph glyph-name="Agrave" unicode="&#xc0;" horiz-adv-x="1262" 
d="M1093 0l-160 442h-606l-160 -442h-145l540 1443h136l539 -1443h-144zM627 1274l-259 -714h524l-259 714h-6zM568 1557l-231 289h150l187 -289h-106z" />
    <glyph glyph-name="Aacute" unicode="&#xc1;" horiz-adv-x="1262" 
d="M1093 0l-160 442h-606l-160 -442h-145l540 1443h136l539 -1443h-144zM627 1274l-259 -714h524l-259 714h-6zM692 1557h-106l187 289h150z" />
    <glyph glyph-name="Acircumflex" unicode="&#xc2;" horiz-adv-x="1262" 
d="M1093 0l-160 442h-606l-160 -442h-145l540 1443h136l539 -1443h-144zM627 1274l-259 -714h524l-259 714h-6zM578 1846h104l268 -294h-128l-190 211h-4l-190 -211h-128z" />
    <glyph glyph-name="Atilde" unicode="&#xc3;" horiz-adv-x="1262" 
d="M1093 0l-160 442h-606l-160 -442h-145l540 1443h136l539 -1443h-144zM627 1274l-259 -714h524l-259 714h-6zM746 1586q-42 0 -71.5 14.5t-51 36t-39.5 43.5t-36.5 36.5t-42.5 14.5q-38 0 -59.5 -34.5t-21.5 -102.5h-93q0 106 47 168.5t133 62.5q41 0 69.5 -14.5t49 -36.5
t38 -43.5t36.5 -36t45 -14.5q41 0 64 35t23 101h93q0 -105 -48 -167.5t-135 -62.5z" />
    <glyph glyph-name="Adieresis" unicode="&#xc4;" horiz-adv-x="1262" 
d="M1093 0l-160 442h-606l-160 -442h-145l540 1443h136l539 -1443h-144zM627 1274l-259 -714h524l-259 714h-6zM459 1623q-36 0 -62 26t-26 62q0 37 26 63t62 26q37 0 63 -26t26 -63q0 -36 -26 -62t-63 -26zM801 1623q-37 0 -63 26t-26 62q0 37 26 63t63 26t62.5 -26
t25.5 -63q0 -36 -25.5 -62t-62.5 -26z" />
    <glyph glyph-name="uni212B" unicode="&#x212b;" horiz-adv-x="1262" 
d="M1093 0l-160 442h-606l-160 -442h-145l540 1443h136l539 -1443h-144zM627 1274l-259 -714h524l-259 714h-6zM630 1516q-50 0 -91.5 25t-66 66.5t-24.5 91.5t24.5 91.5t66 66t91.5 24.5t91.5 -24.5t66 -66t24.5 -91.5t-24.5 -91.5t-66 -66.5t-91.5 -25zM630 1588
q47 0 78.5 32t31.5 79q0 46 -31.5 78t-78.5 32t-78.5 -32t-31.5 -78q0 -47 31.5 -79t78.5 -32z" />
    <glyph glyph-name="uni212B" unicode="&#xc5;" horiz-adv-x="1262" 
d="M1093 0l-160 442h-606l-160 -442h-145l540 1443h136l539 -1443h-144zM627 1274l-259 -714h524l-259 714h-6zM630 1516q-50 0 -91.5 25t-66 66.5t-24.5 91.5t24.5 91.5t66 66t91.5 24.5t91.5 -24.5t66 -66t24.5 -91.5t-24.5 -91.5t-66 -66.5t-91.5 -25zM630 1588
q47 0 78.5 32t31.5 79q0 46 -31.5 78t-78.5 32t-78.5 -32t-31.5 -78q0 -47 31.5 -79t78.5 -32z" />
    <glyph glyph-name="AE" unicode="&#xc6;" horiz-adv-x="1941" 
d="M807 1327l-374 -766h544v766h-170zM977 0v443h-600l-214 -443h-141l702 1443h1091v-124h-702v-526h665v-122h-665v-547h702v-124h-838z" />
    <glyph glyph-name="Ccedilla" unicode="&#xc7;" horiz-adv-x="1371" 
d="M1304 985h-137q-15 78 -55 143t-100 112t-134.5 73t-158.5 26q-115 0 -207.5 -43t-158.5 -123.5t-101.5 -193.5t-35.5 -254q0 -143 35.5 -257.5t101.5 -195.5t159 -124.5t208 -43.5t208 39t155 111.5t84 172.5h137q-24 -131 -94.5 -227.5t-179.5 -153t-250 -67.5
l-52 -110q97 -2 154 -43.5t57 -116.5q0 -55 -31 -94t-84 -59.5t-118 -21.5q-40 -1 -80.5 3.5t-59.5 11.5v85q16 -4 47.5 -8.5t67.5 -4.5q38 0 71 9.5t54 28.5t21 47q0 79 -148 79h-62v59l62 134q-139 7 -250 62.5t-190 153t-121 232t-42 299.5q0 169 45 306t129.5 234
t203 149t265.5 52q114 0 214 -35t178 -99.5t128 -152.5t65 -194z" />
    <glyph glyph-name="Egrave" unicode="&#xc8;" horiz-adv-x="1104" 
d="M1005 124v-124h-871v1443h871v-124h-735v-519h698v-122h-698v-554h735zM508 1557l-231 289h150l187 -289h-106z" />
    <glyph glyph-name="Eacute" unicode="&#xc9;" horiz-adv-x="1104" 
d="M1005 124v-124h-871v1443h871v-124h-735v-519h698v-122h-698v-554h735zM632 1557h-106l187 289h150z" />
    <glyph glyph-name="Ecircumflex" unicode="&#xca;" horiz-adv-x="1104" 
d="M1005 124v-124h-871v1443h871v-124h-735v-519h698v-122h-698v-554h735zM518 1846h104l268 -294h-128l-190 211h-4l-190 -211h-128z" />
    <glyph glyph-name="Edieresis" unicode="&#xcb;" horiz-adv-x="1104" 
d="M1005 124v-124h-871v1443h871v-124h-735v-519h698v-122h-698v-554h735zM399 1623q-36 0 -62 26t-26 62q0 37 26 63t62 26q37 0 63 -26t26 -63q0 -36 -26 -62t-63 -26zM741 1623q-37 0 -63 26t-26 62q0 37 26 63t63 26t62.5 -26t25.5 -63q0 -36 -25.5 -62t-62.5 -26z" />
    <glyph glyph-name="Igrave" unicode="&#xcc;" horiz-adv-x="406" 
d="M271 0h-136v1443h136v-1443zM141 1557l-231 289h150l187 -289h-106z" />
    <glyph glyph-name="Iacute" unicode="&#xcd;" horiz-adv-x="406" 
d="M270 0h-136v1443h136v-1443zM264 1557h-106l187 289h150z" />
    <glyph glyph-name="Icircumflex" unicode="&#xce;" horiz-adv-x="406" 
d="M271 0h-136v1443h136v-1443zM151 1846h104l268 -294h-128l-190 211h-4l-190 -211h-128z" />
    <glyph glyph-name="Idieresis" unicode="&#xcf;" horiz-adv-x="406" 
d="M271 0h-136v1443h136v-1443zM32 1623q-36 0 -62 26t-26 62q0 37 26 63t62 26q37 0 63 -26t26 -63q0 -36 -26 -62t-63 -26zM374 1623q-37 0 -63 26t-26 62q0 37 26 63t63 26t62.5 -26t25.5 -63q0 -36 -25.5 -62t-62.5 -26z" />
    <glyph glyph-name="Eth" unicode="&#xd0;" horiz-adv-x="1364" 
d="M272 124h323q177 0 300.5 69.5t188 203t64.5 324.5q0 192 -64.5 325.5t-188 203t-300.5 69.5h-323v-514h354v-124h-354v-557zM135 1443h468q216 0 369 -85.5t234 -246.5t81 -389q0 -229 -81 -390t-233.5 -246.5t-369.5 -85.5h-468v681h-130v124h130v638z" />
    <glyph glyph-name="Ntilde" unicode="&#xd1;" horiz-adv-x="1393" 
d="M269 0h-135v1443h135l846 -1205h7v1205h135v-1443h-132l-849 1206h-7v-1206zM811 1586q-42 0 -71.5 14.5t-51 36t-39.5 43.5t-36.5 36.5t-42.5 14.5q-38 0 -59.5 -34.5t-21.5 -102.5h-93q0 106 47.5 168.5t132.5 62.5q41 0 69.5 -14.5t49 -36.5t38 -43.5t37 -36
t44.5 -14.5q41 0 64 35t23 101h93q0 -105 -48 -167.5t-135 -62.5z" />
    <glyph glyph-name="Ograve" unicode="&#xd2;" horiz-adv-x="1465" 
d="M731 1466q151 0 272 -52t207 -149.5t131.5 -235t45.5 -308.5t-45.5 -308.5t-131.5 -235t-207 -149t-272 -51.5t-272 51.5t-206.5 149t-131 235t-45.5 308.5t45.5 308.5t131 235t206.5 149.5t272 52zM731 1339q-118 0 -213.5 -43t-162.5 -124t-103 -195t-36 -256
t36 -255.5t103 -194.5t162.5 -124t213.5 -43t213.5 43t163 124t103.5 194.5t36 255.5t-36 256t-103.5 195t-163 124t-213.5 43zM669 1557l-231 289h150l187 -289h-106z" />
    <glyph glyph-name="Oacute" unicode="&#xd3;" horiz-adv-x="1465" 
d="M731 1466q151 0 272 -52t207 -149.5t131.5 -235t45.5 -308.5t-45.5 -308.5t-131.5 -235t-207 -149t-272 -51.5t-272 51.5t-206.5 149t-131 235t-45.5 308.5t45.5 308.5t131 235t206.5 149.5t272 52zM731 1339q-118 0 -213.5 -43t-162.5 -124t-103 -195t-36 -256
t36 -255.5t103 -194.5t162.5 -124t213.5 -43t213.5 43t163 124t103.5 194.5t36 255.5t-36 256t-103.5 195t-163 124t-213.5 43zM793 1557h-106l187 289h150z" />
    <glyph glyph-name="Ocircumflex" unicode="&#xd4;" horiz-adv-x="1465" 
d="M731 1466q151 0 272 -52t207 -149.5t131.5 -235t45.5 -308.5t-45.5 -308.5t-131.5 -235t-207 -149t-272 -51.5t-272 51.5t-206.5 149t-131 235t-45.5 308.5t45.5 308.5t131 235t206.5 149.5t272 52zM731 1339q-118 0 -213.5 -43t-162.5 -124t-103 -195t-36 -256
t36 -255.5t103 -194.5t162.5 -124t213.5 -43t213.5 43t163 124t103.5 194.5t36 255.5t-36 256t-103.5 195t-163 124t-213.5 43zM679 1846h104l268 -294h-128l-190 211h-4l-190 -211h-128z" />
    <glyph glyph-name="Otilde" unicode="&#xd5;" horiz-adv-x="1465" 
d="M731 1466q151 0 272 -52t207 -149.5t131.5 -235t45.5 -308.5t-45.5 -308.5t-131.5 -235t-207 -149t-272 -51.5t-272 51.5t-206.5 149t-131 235t-45.5 308.5t45.5 308.5t131 235t206.5 149.5t272 52zM731 1339q-118 0 -213.5 -43t-162.5 -124t-103 -195t-36 -256
t36 -255.5t103 -194.5t162.5 -124t213.5 -43t213.5 43t163 124t103.5 194.5t36 255.5t-36 256t-103.5 195t-163 124t-213.5 43zM847 1586q-42 0 -71.5 14.5t-51 36t-39.5 43.5t-36.5 36.5t-42.5 14.5q-38 0 -59.5 -34.5t-21.5 -102.5h-93q0 106 47.5 168.5t132.5 62.5
q41 0 69.5 -14.5t49 -36.5t38 -43.5t37 -36t44.5 -14.5q41 0 64 35t23 101h93q0 -105 -48 -167.5t-135 -62.5z" />
    <glyph glyph-name="Odieresis" unicode="&#xd6;" horiz-adv-x="1465" 
d="M731 1466q151 0 272 -52t207 -149.5t131.5 -235t45.5 -308.5t-45.5 -308.5t-131.5 -235t-207 -149t-272 -51.5t-272 51.5t-206.5 149t-131 235t-45.5 308.5t45.5 308.5t131 235t206.5 149.5t272 52zM731 1339q-118 0 -213.5 -43t-162.5 -124t-103 -195t-36 -256
t36 -255.5t103 -194.5t162.5 -124t213.5 -43t213.5 43t163 124t103.5 194.5t36 255.5t-36 256t-103.5 195t-163 124t-213.5 43zM560 1623q-36 0 -62 26t-26 62q0 37 26 63t62 26q37 0 63 -26t26 -63q0 -36 -26 -62t-63 -26zM902 1623q-37 0 -63 26t-26 62q0 37 26 63t63 26
t62.5 -26t25.5 -63q0 -36 -25.5 -62t-62.5 -26z" />
    <glyph glyph-name="multiply" unicode="&#xd7;" horiz-adv-x="1218" 
d="M608 491l-345 -345l-81 80l345 346l-345 346l81 81l345 -346l346 346l80 -80l-344 -347l344 -346l-81 -80z" />
    <glyph glyph-name="Oslash" unicode="&#xd8;" horiz-adv-x="1465" 
d="M1141 1141l-738 -931q64 -56 147 -85.5t181 -29.5q120 0 216.5 43.5t165 125.5t105 197.5t36.5 259.5q0 128 -29 234.5t-84 185.5zM335 283l742 933q-66 64 -153.5 98t-192.5 34q-120 0 -216.5 -43.5t-164.5 -126t-104.5 -198t-36.5 -259.5q0 -136 32.5 -246.5
t93.5 -191.5zM1365 1425l-141 -178q79 -96 121 -229.5t42 -296.5q0 -171 -45.5 -308.5t-131.5 -235t-207 -149t-272 -51.5q-122 0 -224.5 34.5t-182.5 98.5l-118 -149l-79 60l125 157q-85 97 -130.5 234.5t-45.5 308.5t45.5 308.5t131 235t206.5 149.5t272 52
q129 0 236.5 -38.5t189.5 -110.5l130 163z" />
    <glyph glyph-name="Ugrave" unicode="&#xd9;" horiz-adv-x="1386" 
d="M270 1443v-931q0 -121 50.5 -213t145 -143.5t226.5 -51.5q133 0 227 51.5t144.5 143.5t50.5 213v931h137v-939q0 -117 -38.5 -213.5t-111 -166.5t-176 -108.5t-233.5 -38.5t-233.5 38.5t-176 108.5t-110.5 166.5t-38 213.5v939h136zM630 1557l-231 289h150l187 -289h-106
z" />
    <glyph glyph-name="Uacute" unicode="&#xda;" horiz-adv-x="1386" 
d="M270 1443v-931q0 -121 50.5 -213t145 -143.5t226.5 -51.5q133 0 227 51.5t144.5 143.5t50.5 213v931h137v-939q0 -117 -38.5 -213.5t-111 -166.5t-176 -108.5t-233.5 -38.5t-233.5 38.5t-176 108.5t-110.5 166.5t-38 213.5v939h136zM754 1557h-106l187 289h150z" />
    <glyph glyph-name="Ucircumflex" unicode="&#xdb;" horiz-adv-x="1386" 
d="M270 1443v-931q0 -121 50.5 -213t145 -143.5t226.5 -51.5q133 0 227 51.5t144.5 143.5t50.5 213v931h137v-939q0 -117 -38.5 -213.5t-111 -166.5t-176 -108.5t-233.5 -38.5t-233.5 38.5t-176 108.5t-110.5 166.5t-38 213.5v939h136zM640 1846h104l268 -294h-128l-190 211
h-4l-190 -211h-128z" />
    <glyph glyph-name="Udieresis" unicode="&#xdc;" horiz-adv-x="1386" 
d="M270 1443v-931q0 -121 50.5 -213t145 -143.5t226.5 -51.5q133 0 227 51.5t144.5 143.5t50.5 213v931h137v-939q0 -117 -38.5 -213.5t-111 -166.5t-176 -108.5t-233.5 -38.5t-233.5 38.5t-176 108.5t-110.5 166.5t-38 213.5v939h136zM521 1623q-36 0 -62 26t-26 62
q0 37 26 63t62 26q37 0 63 -26t26 -63q0 -36 -26 -62t-63 -26zM863 1623q-37 0 -63 26t-26 62q0 37 26 63t63 26t62.5 -26t25.5 -63q0 -36 -25.5 -62t-62.5 -26z" />
    <glyph glyph-name="Yacute" unicode="&#xdd;" horiz-adv-x="1219" 
d="M677 0h-137v624l-517 819h156l427 -685h5l427 685h156l-517 -819v-624zM670 1557h-106l187 289h150z" />
    <glyph glyph-name="Thorn" unicode="&#xde;" horiz-adv-x="1222" 
d="M160 1443h137v-274h386q89 0 167 -27.5t137.5 -80.5t93 -129t33.5 -173t-33.5 -173.5t-93 -129.5t-138 -80.5t-167.5 -27.5h-385v-348h-137v1443zM297 1046v-576h352q97 0 170 33.5t114 98t41 157.5t-41 157t-114 97t-170 33h-352z" />
    <glyph glyph-name="germandbls" unicode="&#xdf;" horiz-adv-x="1137" 
d="M284 0h-130v1073q0 115 47.5 200.5t135.5 132.5t208 47q86 0 157.5 -26.5t123.5 -74t80.5 -112.5t28.5 -142q0 -81 -29.5 -151.5t-82 -120.5t-121.5 -69v-3q104 -13 180.5 -62.5t118.5 -127.5t42 -177q0 -89 -31.5 -162.5t-89.5 -127.5t-138.5 -83.5t-177.5 -29.5
q-41 0 -78 3.5t-72 10.5v118q27 -8 65 -12t76 -4q92 0 163.5 37t111.5 102t40 150q0 87 -43.5 153t-124 103t-190.5 37h-75v128h68q77 0 135 36.5t90.5 100t32.5 144.5q0 71 -32.5 126.5t-91 87.5t-134.5 32q-82 0 -141 -34t-90.5 -96.5t-31.5 -146.5v-1060z" />
    <glyph glyph-name="agrave" unicode="&#xe0;" horiz-adv-x="1014" 
d="M448 97q68 0 127 22.5t103.5 62.5t69.5 93.5t25 115.5v115l-308 -21q-123 -8 -189 -59.5t-66 -137.5q0 -56 30 -99.5t83.5 -67.5t124.5 -24zM421 -17q-102 0 -180 38.5t-121.5 107t-43.5 159.5q0 134 96.5 212t276.5 90l324 20v90q0 112 -68 176t-189 64q-115 0 -186 -53
t-88 -148h-128q7 93 58.5 165t140 112.5t206.5 40.5t205 -42t134 -119.5t47 -183.5v-712h-126v198h-3q-29 -64 -83 -112.5t-124 -75.5t-148 -27zM457 1199l-226 301h147l186 -301h-107z" />
    <glyph glyph-name="aacute" unicode="&#xe1;" horiz-adv-x="1014" 
d="M448 97q68 0 127 22.5t103.5 62.5t69.5 93.5t25 115.5v115l-308 -21q-123 -8 -189 -59.5t-66 -137.5q0 -56 30 -99.5t83.5 -67.5t124.5 -24zM421 -17q-102 0 -180 38.5t-121.5 107t-43.5 159.5q0 134 96.5 212t276.5 90l324 20v90q0 112 -68 176t-189 64q-115 0 -186 -53
t-88 -148h-128q7 93 58.5 165t140 112.5t206.5 40.5t205 -42t134 -119.5t47 -183.5v-712h-126v198h-3q-29 -64 -83 -112.5t-124 -75.5t-148 -27zM565 1199h-107l186 301h147z" />
    <glyph glyph-name="acircumflex" unicode="&#xe2;" horiz-adv-x="1014" 
d="M448 97q68 0 127 22.5t103.5 62.5t69.5 93.5t25 115.5v115l-308 -21q-123 -8 -189 -59.5t-66 -137.5q0 -56 30 -99.5t83.5 -67.5t124.5 -24zM421 -17q-102 0 -180 38.5t-121.5 107t-43.5 159.5q0 134 96.5 212t276.5 90l324 20v90q0 112 -68 176t-189 64q-115 0 -186 -53
t-88 -148h-128q7 93 58.5 165t140 112.5t206.5 40.5t205 -42t134 -119.5t47 -183.5v-712h-126v198h-3q-29 -64 -83 -112.5t-124 -75.5t-148 -27zM563 1500l254 -301h-124l-180 213h-4l-180 -213h-124l254 301h104z" />
    <glyph glyph-name="atilde" unicode="&#xe3;" horiz-adv-x="1014" 
d="M448 97q68 0 127 22.5t103.5 62.5t69.5 93.5t25 115.5v115l-308 -21q-123 -8 -189 -59.5t-66 -137.5q0 -56 30 -99.5t83.5 -67.5t124.5 -24zM421 -17q-102 0 -180 38.5t-121.5 107t-43.5 159.5q0 134 96.5 212t276.5 90l324 20v90q0 112 -68 176t-189 64q-115 0 -186 -53
t-88 -148h-128q7 93 58.5 165t140 112.5t206.5 40.5t205 -42t134 -119.5t47 -183.5v-712h-126v198h-3q-29 -64 -83 -112.5t-124 -75.5t-148 -27zM627 1218q-42 0 -71.5 14.5t-51 36t-39.5 43.5t-36.5 36.5t-42.5 14.5q-38 0 -59.5 -34.5t-21.5 -101.5h-93q0 105 47.5 167.5
t132.5 62.5q41 0 69.5 -14.5t49 -36.5t38 -43.5t37 -36t44.5 -14.5q41 0 64 35.5t23 100.5h93q0 -104 -48 -167t-135 -63z" />
    <glyph glyph-name="adieresis" unicode="&#xe4;" horiz-adv-x="1014" 
d="M448 97q68 0 127 22.5t103.5 62.5t69.5 93.5t25 115.5v115l-308 -21q-123 -8 -189 -59.5t-66 -137.5q0 -56 30 -99.5t83.5 -67.5t124.5 -24zM421 -17q-102 0 -180 38.5t-121.5 107t-43.5 159.5q0 134 96.5 212t276.5 90l324 20v90q0 112 -68 176t-189 64q-115 0 -186 -53
t-88 -148h-128q7 93 58.5 165t140 112.5t206.5 40.5t205 -42t134 -119.5t47 -183.5v-712h-126v198h-3q-29 -64 -83 -112.5t-124 -75.5t-148 -27zM340 1256q-36 0 -62 25.5t-26 62.5t26 62.5t62 25.5q37 0 63 -25.5t26 -62.5t-26 -62.5t-63 -25.5zM682 1256q-37 0 -63 25.5
t-26 62.5t26 62.5t63 25.5t62.5 -25.5t25.5 -62.5t-25.5 -62.5t-62.5 -25.5z" />
    <glyph glyph-name="aring" unicode="&#xe5;" horiz-adv-x="1014" 
d="M448 97q68 0 127 22.5t103.5 62.5t69.5 93.5t25 115.5v115l-308 -21q-123 -8 -189 -59.5t-66 -137.5q0 -56 30 -99.5t83.5 -67.5t124.5 -24zM421 -17q-102 0 -180 38.5t-121.5 107t-43.5 159.5q0 134 96.5 212t276.5 90l324 20v90q0 112 -68 176t-189 64q-115 0 -186 -53
t-88 -148h-128q7 93 58.5 165t140 112.5t206.5 40.5t205 -42t134 -119.5t47 -183.5v-712h-126v198h-3q-29 -64 -83 -112.5t-124 -75.5t-148 -27zM511 1149q-50 0 -91.5 25t-66 66.5t-24.5 91.5t24.5 91.5t66 66t91.5 24.5t91.5 -24.5t66 -66t24.5 -91.5t-24.5 -91.5
t-66 -66.5t-91.5 -25zM511 1221q46 0 78 32.5t32 78.5t-32 78t-78 32t-78 -32t-32 -78t32 -78.5t78 -32.5z" />
    <glyph glyph-name="ae" unicode="&#xe6;" horiz-adv-x="1734" 
d="M1239 -17q-136 0 -238 66.5t-152 186.5h-8q-54 -118 -159 -185.5t-244 -67.5q-111 0 -193.5 38t-127.5 106t-45 159q0 132 97.5 207.5t282.5 85.5l320 18v94q0 75 -33 131t-93.5 87t-140.5 31q-113 0 -184 -55t-82 -147h-129q7 93 56.5 165t135 113t199.5 41
q92 0 166 -28t124 -80.5t69 -126.5h7q49 109 144.5 172t228.5 63q132 0 228.5 -63.5t149 -178t52.5 -268.5v-56h-766v-10q0 -115 41.5 -200.5t117.5 -133.5t178 -48q113 0 187.5 55t97.5 141h131q-16 -90 -73 -160.5t-145.5 -111t-199.5 -40.5zM1230 941q-93 0 -164 -43.5
t-113.5 -121.5t-48.5 -180h631q-2 104 -40 181.5t-106 120.5t-159 43zM443 97q69 0 129 23t104.5 64t70 94.5t25.5 114.5v100l-305 -19q-127 -8 -193.5 -55.5t-66.5 -130.5q0 -56 29.5 -99t82.5 -67.5t124 -24.5z" />
    <glyph glyph-name="ccedilla" unicode="&#xe7;" horiz-adv-x="1012" 
d="M829 322h131q-13 -90 -62 -161.5t-126 -117t-176 -56.5l-56 -118q97 -2 154 -43.5t57 -116.5q0 -55 -31 -94t-84 -59.5t-118 -21.5q-40 -1 -80.5 3.5t-59.5 11.5v85q16 -4 47.5 -8.5t67.5 -4.5q38 0 71 9.5t54 28.5t21 47q0 79 -148 79h-62v59l65 140q-131 9 -228.5 76
t-151 184t-53.5 276q0 164 58.5 284.5t164 186.5t247.5 66q92 0 166.5 -27.5t129.5 -75.5t88.5 -110.5t43.5 -132.5h-130q-14 64 -53 116t-100.5 82.5t-143.5 30.5q-101 0 -177 -51.5t-117.5 -146t-41.5 -222.5q0 -130 42 -224.5t117.5 -145t177.5 -50.5q118 0 196 60.5
t100 161.5z" />
    <glyph glyph-name="egrave" unicode="&#xe8;" horiz-adv-x="1040" 
d="M524 941q-93 0 -164.5 -44.5t-114 -122.5t-47.5 -181h642q-1 103 -41 181t-110.5 122.5t-164.5 44.5zM832 295h131q-16 -90 -74 -160.5t-149 -111t-206 -40.5q-146 0 -252 64.5t-163.5 184.5t-57.5 285q0 121 33 220.5t94 171t146.5 110t191.5 38.5q138 0 239 -63.5
t156 -179t55 -270.5v-56h-779v-8q0 -118 42 -203t118 -131.5t180 -46.5q78 0 139.5 25.5t101 69.5t54.5 101zM472 1199l-226 301h147l186 -301h-107z" />
    <glyph glyph-name="eacute" unicode="&#xe9;" horiz-adv-x="1040" 
d="M524 941q-93 0 -164.5 -44.5t-114 -122.5t-47.5 -181h642q-1 103 -41 181t-110.5 122.5t-164.5 44.5zM832 295h131q-16 -90 -74 -160.5t-149 -111t-206 -40.5q-146 0 -252 64.5t-163.5 184.5t-57.5 285q0 121 33 220.5t94 171t146.5 110t191.5 38.5q138 0 239 -63.5
t156 -179t55 -270.5v-56h-779v-8q0 -118 42 -203t118 -131.5t180 -46.5q78 0 139.5 25.5t101 69.5t54.5 101zM580 1199h-107l186 301h147z" />
    <glyph glyph-name="ecircumflex" unicode="&#xea;" horiz-adv-x="1040" 
d="M524 941q-93 0 -164.5 -44.5t-114 -122.5t-47.5 -181h642q-1 103 -41 181t-110.5 122.5t-164.5 44.5zM832 295h131q-16 -90 -74 -160.5t-149 -111t-206 -40.5q-146 0 -252 64.5t-163.5 184.5t-57.5 285q0 121 33 220.5t94 171t146.5 110t191.5 38.5q138 0 239 -63.5
t156 -179t55 -270.5v-56h-779v-8q0 -118 42 -203t118 -131.5t180 -46.5q78 0 139.5 25.5t101 69.5t54.5 101zM578 1500l254 -301h-124l-180 213h-4l-180 -213h-124l254 301h104z" />
    <glyph glyph-name="edieresis" unicode="&#xeb;" horiz-adv-x="1040" 
d="M524 941q-93 0 -164.5 -44.5t-114 -122.5t-47.5 -181h642q-1 103 -41 181t-110.5 122.5t-164.5 44.5zM832 295h131q-16 -90 -74 -160.5t-149 -111t-206 -40.5q-146 0 -252 64.5t-163.5 184.5t-57.5 285q0 121 33 220.5t94 171t146.5 110t191.5 38.5q138 0 239 -63.5
t156 -179t55 -270.5v-56h-779v-8q0 -118 42 -203t118 -131.5t180 -46.5q78 0 139.5 25.5t101 69.5t54.5 101zM355 1256q-36 0 -62 25.5t-26 62.5t26 62.5t62 25.5q37 0 63 -25.5t26 -62.5t-26 -62.5t-63 -25.5zM697 1256q-37 0 -63 25.5t-26 62.5t26 62.5t63 25.5
t62.5 -25.5t25.5 -62.5t-25.5 -62.5t-62.5 -25.5z" />
    <glyph glyph-name="igrave" unicode="&#xec;" horiz-adv-x="378" 
d="M123 0v1040h132v-1040h-132zM135 1199l-226 301h147l186 -301h-107z" />
    <glyph glyph-name="iacute" unicode="&#xed;" horiz-adv-x="378" 
d="M122 0v1040h132v-1040h-132zM242 1199h-107l186 301h147z" />
    <glyph glyph-name="icircumflex" unicode="&#xee;" horiz-adv-x="378" 
d="M123 0v1040h132v-1040h-132zM241 1500l254 -301h-124l-180 213h-4l-180 -213h-124l254 301h104z" />
    <glyph glyph-name="idieresis" unicode="&#xef;" horiz-adv-x="378" 
d="M123 0v1040h132v-1040h-132zM18 1256q-36 0 -62 25.5t-26 62.5t26 62.5t62 25.5q37 0 63 -25.5t26 -62.5t-26 -62.5t-63 -25.5zM360 1256q-37 0 -63 25.5t-26 62.5t26 62.5t63 25.5t62.5 -25.5t25.5 -62.5t-25.5 -62.5t-62.5 -25.5z" />
    <glyph glyph-name="eth" unicode="&#xf0;" horiz-adv-x="1090" 
d="M547 101q104 0 178 52.5t113.5 142.5t39.5 202q0 126 -41 216t-115.5 138.5t-175.5 48.5q-97 0 -172.5 -46.5t-119.5 -133.5t-44 -209q0 -126 40.5 -218t115.5 -142.5t181 -50.5zM822 1391l-184 -101q189 -132 278 -313t89 -419q0 -120 -28.5 -224.5t-86 -183.5
t-143 -123.5t-199.5 -44.5q-149 0 -255 65.5t-162.5 184.5t-56.5 280q0 117 35 210t96.5 159t143.5 101t177 35q110 0 190 -51t125 -134h11q-29 110 -114 212t-208 186l-291 -160v106l201 111q-97 54 -205 95v100q179 -59 313 -136l273 151z" />
    <glyph glyph-name="ntilde" unicode="&#xf1;" horiz-adv-x="1062" 
d="M113 0v1040h125v-192h3q40 94 128.5 151.5t214.5 57.5q114 0 196.5 -46.5t127 -132.5t44.5 -204v-674h-132v653q0 137 -71.5 211.5t-202.5 74.5q-90 0 -157.5 -40.5t-105.5 -113.5t-38 -169v-616h-132zM648 1218q-42 0 -71.5 14.5t-51 36t-39.5 43.5t-36.5 36.5
t-42.5 14.5q-38 0 -59.5 -34.5t-21.5 -101.5h-93q0 105 47 167.5t133 62.5q41 0 69.5 -14.5t49 -36.5t38 -43.5t36.5 -36t45 -14.5q41 0 64 35.5t23 100.5h93q0 -104 -48 -167t-135 -63z" />
    <glyph glyph-name="ograve" unicode="&#xf2;" horiz-adv-x="1072" 
d="M535 -17q-106 0 -193 37.5t-150 107.5t-97 169t-34 223t34 223.5t97 169.5t150 107t193 37q142 0 248.5 -65.5t166 -185.5t59.5 -286q0 -124 -34 -223t-97 -169t-150 -107.5t-193 -37.5zM535 100q102 0 178.5 50t119 144t42.5 226t-42.5 226t-119 144t-178.5 50t-178 -50
t-118.5 -144t-42.5 -226t42.5 -226t118.5 -144t178 -50zM482 1199l-226 301h147l186 -301h-107z" />
    <glyph glyph-name="oacute" unicode="&#xf3;" horiz-adv-x="1072" 
d="M535 -17q-106 0 -193 37.5t-150 107.5t-97 169t-34 223t34 223.5t97 169.5t150 107t193 37q142 0 248.5 -65.5t166 -185.5t59.5 -286q0 -124 -34 -223t-97 -169t-150 -107.5t-193 -37.5zM535 100q102 0 178.5 50t119 144t42.5 226t-42.5 226t-119 144t-178.5 50t-178 -50
t-118.5 -144t-42.5 -226t42.5 -226t118.5 -144t178 -50zM590 1199h-107l186 301h147z" />
    <glyph glyph-name="ocircumflex" unicode="&#xf4;" horiz-adv-x="1072" 
d="M535 -17q-106 0 -193 37.5t-150 107.5t-97 169t-34 223t34 223.5t97 169.5t150 107t193 37q142 0 248.5 -65.5t166 -185.5t59.5 -286q0 -124 -34 -223t-97 -169t-150 -107.5t-193 -37.5zM535 100q102 0 178.5 50t119 144t42.5 226t-42.5 226t-119 144t-178.5 50t-178 -50
t-118.5 -144t-42.5 -226t42.5 -226t118.5 -144t178 -50zM588 1500l254 -301h-124l-180 213h-4l-180 -213h-124l254 301h104z" />
    <glyph glyph-name="otilde" unicode="&#xf5;" horiz-adv-x="1072" 
d="M535 -17q-106 0 -193 37.5t-150 107.5t-97 169t-34 223t34 223.5t97 169.5t150 107t193 37q142 0 248.5 -65.5t166 -185.5t59.5 -286q0 -124 -34 -223t-97 -169t-150 -107.5t-193 -37.5zM535 100q102 0 178.5 50t119 144t42.5 226t-42.5 226t-119 144t-178.5 50t-178 -50
t-118.5 -144t-42.5 -226t42.5 -226t118.5 -144t178 -50zM651 1218q-42 0 -71.5 14.5t-51 36t-39.5 43.5t-36.5 36.5t-42.5 14.5q-38 0 -59.5 -34.5t-21.5 -101.5h-93q0 105 47.5 167.5t132.5 62.5q41 0 69.5 -14.5t49 -36.5t38 -43.5t37 -36t44.5 -14.5q41 0 64 35.5
t23 100.5h93q0 -104 -48 -167t-135 -63z" />
    <glyph glyph-name="odieresis" unicode="&#xf6;" horiz-adv-x="1072" 
d="M535 -17q-106 0 -193 37.5t-150 107.5t-97 169t-34 223t34 223.5t97 169.5t150 107t193 37q142 0 248.5 -65.5t166 -185.5t59.5 -286q0 -124 -34 -223t-97 -169t-150 -107.5t-193 -37.5zM535 100q102 0 178.5 50t119 144t42.5 226t-42.5 226t-119 144t-178.5 50t-178 -50
t-118.5 -144t-42.5 -226t42.5 -226t118.5 -144t178 -50zM365 1256q-36 0 -62 25.5t-26 62.5t26 62.5t62 25.5q37 0 63 -25.5t26 -62.5t-26 -62.5t-63 -25.5zM707 1256q-37 0 -63 25.5t-26 62.5t26 62.5t63 25.5t62.5 -25.5t25.5 -62.5t-25.5 -62.5t-62.5 -25.5z" />
    <glyph glyph-name="divide" unicode="&#xf7;" horiz-adv-x="1218" 
d="M609 874q-40 0 -66 26t-26 66t26 66.5t66 26.5q39 0 66 -26.5t27 -66.5t-27 -66t-66 -26zM609 84q-40 0 -66 26t-26 67q0 39 26 65.5t66 26.5q39 0 66 -26.5t27 -65.5q0 -41 -27 -67t-66 -26zM1079 513h-942v117h942v-117z" />
    <glyph glyph-name="oslash" unicode="&#xf8;" horiz-adv-x="1072" 
d="M801 812l-468 -651q82 -67 202 -67q104 0 181 51t120 146.5t43 228.5q0 91 -20 164.5t-58 127.5zM268 231l469 649q-84 66 -202 66q-104 0 -181 -51t-119.5 -146t-42.5 -229q0 -89 19.5 -162t56.5 -127zM960 1034l-85 -118q64 -70 99 -170.5t35 -225.5q0 -124 -34 -223
t-97 -169t-150 -107.5t-193 -37.5q-157 0 -272 81l-69 -96l-78 53l77 106q-63 70 -97.5 169.5t-34.5 223.5t34 223.5t97 169.5t150 107t193 37q157 0 272 -81l78 108z" />
    <glyph glyph-name="ugrave" unicode="&#xf9;" horiz-adv-x="1062" 
d="M947 1040v-1040h-125v193h-3q-41 -96 -131 -153t-214 -57q-113 0 -195.5 46.5t-127 132t-44.5 202.5v676h133v-653q0 -138 70.5 -212t201.5 -74q91 0 159 40t106 112.5t38 169.5v617h132zM474 1199l-226 301h147l186 -301h-107z" />
    <glyph glyph-name="uacute" unicode="&#xfa;" horiz-adv-x="1062" 
d="M947 1040v-1040h-125v193h-3q-41 -96 -131 -153t-214 -57q-113 0 -195.5 46.5t-127 132t-44.5 202.5v676h133v-653q0 -138 70.5 -212t201.5 -74q91 0 159 40t106 112.5t38 169.5v617h132zM582 1199h-107l186 301h147z" />
    <glyph glyph-name="ucircumflex" unicode="&#xfb;" horiz-adv-x="1062" 
d="M947 1040v-1040h-125v193h-3q-41 -96 -131 -153t-214 -57q-113 0 -195.5 46.5t-127 132t-44.5 202.5v676h133v-653q0 -138 70.5 -212t201.5 -74q91 0 159 40t106 112.5t38 169.5v617h132zM580 1500l254 -301h-124l-180 213h-4l-180 -213h-124l254 301h104z" />
    <glyph glyph-name="udieresis" unicode="&#xfc;" horiz-adv-x="1062" 
d="M947 1040v-1040h-125v193h-3q-41 -96 -131 -153t-214 -57q-113 0 -195.5 46.5t-127 132t-44.5 202.5v676h133v-653q0 -138 70.5 -212t201.5 -74q91 0 159 40t106 112.5t38 169.5v617h132zM357 1256q-36 0 -62 25.5t-26 62.5t26 62.5t62 25.5q37 0 63 -25.5t26 -62.5
t-26 -62.5t-63 -25.5zM699 1256q-37 0 -63 25.5t-26 62.5t26 62.5t63 25.5t62.5 -25.5t25.5 -62.5t-25.5 -62.5t-62.5 -25.5z" />
    <glyph glyph-name="yacute" unicode="&#xfd;" horiz-adv-x="951" 
d="M188 -376q-16 0 -35.5 2t-30.5 4v113q12 -3 29 -4.5t33 -1.5q72 0 115.5 40.5t78.5 137.5l27 78l-389 1047h142l316 -908h3l316 908h140l-409 -1103q-34 -92 -67 -152.5t-71 -96t-86 -50t-112 -14.5zM530 1199h-107l186 301h147z" />
    <glyph glyph-name="thorn" unicode="&#xfe;" horiz-adv-x="1115" 
d="M614 1057q99 0 179.5 -38t138 -108.5t88.5 -169.5t31 -221q0 -121 -31 -220t-89 -170t-138 -109t-179 -38q-80 0 -148.5 26t-120.5 73.5t-80 114.5h-12v-554h-131v1800h126v-615h11q32 70 85 121.5t122 79.5t148 28zM584 100q102 0 176.5 51.5t115 146t40.5 222.5
t-40.5 222.5t-114.5 146t-176 51.5q-101 0 -176 -52t-116.5 -146.5t-41.5 -221.5q0 -126 41.5 -220.5t116.5 -147t175 -52.5z" />
    <glyph glyph-name="ydieresis" unicode="&#xff;" horiz-adv-x="951" 
d="M188 -376q-16 0 -35.5 2t-30.5 4v113q12 -3 29 -4.5t33 -1.5q72 0 115.5 40.5t78.5 137.5l27 78l-389 1047h142l316 -908h3l316 908h140l-409 -1103q-34 -92 -67 -152.5t-71 -96t-86 -50t-112 -14.5zM305 1256q-36 0 -62 25.5t-26 62.5t26 62.5t62 25.5q37 0 63 -25.5
t26 -62.5t-26 -62.5t-63 -25.5zM647 1256q-37 0 -63 25.5t-26 62.5t26 62.5t63 25.5t62.5 -25.5t25.5 -62.5t-25.5 -62.5t-62.5 -25.5z" />
    <glyph glyph-name="Amacron" unicode="&#x100;" horiz-adv-x="1262" 
d="M1093 0l-160 442h-606l-160 -442h-145l540 1443h136l539 -1443h-144zM627 1274l-259 -714h524l-259 714h-6zM899 1753v-95h-538v95h538z" />
    <glyph glyph-name="amacron" unicode="&#x101;" horiz-adv-x="1014" 
d="M448 97q68 0 127 22.5t103.5 62.5t69.5 93.5t25 115.5v115l-308 -21q-123 -8 -189 -59.5t-66 -137.5q0 -56 30 -99.5t83.5 -67.5t124.5 -24zM421 -17q-102 0 -180 38.5t-121.5 107t-43.5 159.5q0 134 96.5 212t276.5 90l324 20v90q0 112 -68 176t-189 64q-115 0 -186 -53
t-88 -148h-128q7 93 58.5 165t140 112.5t206.5 40.5t205 -42t134 -119.5t47 -183.5v-712h-126v198h-3q-29 -64 -83 -112.5t-124 -75.5t-148 -27zM780 1385v-95h-538v95h538z" />
    <glyph glyph-name="Abreve" unicode="&#x102;" horiz-adv-x="1262" 
d="M1093 0l-160 442h-606l-160 -442h-145l540 1443h136l539 -1443h-144zM627 1274l-259 -714h524l-259 714h-6zM333 1832h100q6 -86 59 -137t138 -51t138 51t59 137h100q-4 -77 -41 -140t-102 -100t-154 -37t-154 37t-102 100t-41 140z" />
    <glyph glyph-name="abreve" unicode="&#x103;" horiz-adv-x="1014" 
d="M448 97q68 0 127 22.5t103.5 62.5t69.5 93.5t25 115.5v115l-308 -21q-123 -8 -189 -59.5t-66 -137.5q0 -56 30 -99.5t83.5 -67.5t124.5 -24zM421 -17q-102 0 -180 38.5t-121.5 107t-43.5 159.5q0 134 96.5 212t276.5 90l324 20v90q0 112 -68 176t-189 64q-115 0 -186 -53
t-88 -148h-128q7 93 58.5 165t140 112.5t206.5 40.5t205 -42t134 -119.5t47 -183.5v-712h-126v198h-3q-29 -64 -83 -112.5t-124 -75.5t-148 -27zM223 1485h103q0 -90 48 -143t137 -53t137 53t48 143h103q0 -86 -34 -150t-98.5 -99.5t-155.5 -35.5t-155.5 35.5t-98.5 99.5
t-34 150z" />
    <glyph glyph-name="Aogonek" unicode="&#x104;" horiz-adv-x="1262" 
d="M368 560h524l-259 714h-6zM698 1443l539 -1443q-50 -24 -93.5 -53t-70 -65t-26.5 -80q0 -39 17.5 -60.5t44 -30t53.5 -8.5q19 0 39 3.5t31 7.5v-96q-22 -8 -46.5 -12t-49.5 -4q-53 0 -100.5 17.5t-77.5 56t-30 99.5q0 65 38.5 122t124.5 109l-158 436h-606l-160 -442
h-145l540 1443h136z" />
    <glyph glyph-name="aogonek" unicode="&#x105;" horiz-adv-x="1014" 
d="M773 391v115l-308 -21q-123 -8 -189 -59.5t-66 -137.5q0 -56 30 -99.5t83.5 -67.5t124.5 -24q68 0 127 22.5t103.5 62.5t69.5 93.5t25 115.5zM905 712v-712q-50 -24 -93.5 -53t-70 -65t-26.5 -80q0 -39 17 -60.5t43.5 -30t53.5 -8.5q20 0 39.5 3.5t31.5 7.5v-96
q-46 -16 -96 -16q-53 0 -100.5 17.5t-77.5 56t-30 99.5q0 68 43 128.5t140 114.5v180h-3q-29 -64 -83 -112.5t-124 -75.5t-148 -27q-102 0 -180 38.5t-121.5 107t-43.5 159.5q0 134 96.5 212t276.5 90l324 20v90q0 112 -68 176t-189 64q-115 0 -186 -53t-88 -148h-128
q7 93 58.5 165t140 112.5t206.5 40.5t205 -42t134 -119.5t47 -183.5z" />
    <glyph glyph-name="Cacute" unicode="&#x106;" horiz-adv-x="1371" 
d="M719 -23q-147 0 -266 52.5t-203 150.5t-129 236t-45 309q0 169 45 306t129.5 234t203 149t265.5 52q114 0 214 -35t178 -99.5t128 -152.5t65 -194h-137q-15 78 -55 143t-100 112t-134.5 73t-158.5 26q-115 0 -207.5 -43t-158.5 -123.5t-101.5 -193.5t-35.5 -254
q0 -143 35.5 -257.5t101.5 -195.5t159 -124.5t208 -43.5t208 39t155 111.5t84 172.5h137q-25 -141 -104 -241.5t-202 -154.5t-279 -54zM781 1557h-106l187 289h150z" />
    <glyph glyph-name="cacute" unicode="&#x107;" horiz-adv-x="1012" 
d="M959 711h-130q-14 64 -53 116t-100.5 82.5t-143.5 30.5q-101 0 -177 -51.5t-117.5 -146t-41.5 -222.5q0 -130 42 -224.5t117.5 -145t177.5 -50.5q118 0 196 60.5t100 161.5h131q-15 -100 -72.5 -176t-149 -119.5t-206.5 -43.5q-142 0 -248 65t-164.5 185.5t-58.5 286.5
q0 164 58.5 284.5t164 186.5t247.5 66q92 0 166.5 -27.5t129.5 -75.5t88.5 -110.5t43.5 -132.5zM584 1199h-107l186 301h147z" />
    <glyph glyph-name="Ccircumflex" unicode="&#x108;" horiz-adv-x="1371" 
d="M719 -23q-147 0 -266 52.5t-203 150.5t-129 236t-45 309q0 169 45 306t129.5 234t203 149t265.5 52q114 0 214 -35t178 -99.5t128 -152.5t65 -194h-137q-15 78 -55 143t-100 112t-134.5 73t-158.5 26q-115 0 -207.5 -43t-158.5 -123.5t-101.5 -193.5t-35.5 -254
q0 -143 35.5 -257.5t101.5 -195.5t159 -124.5t208 -43.5t208 39t155 111.5t84 172.5h137q-25 -141 -104 -241.5t-202 -154.5t-279 -54zM667 1846h104l268 -294h-128l-190 211h-4l-190 -211h-128z" />
    <glyph glyph-name="ccircumflex" unicode="&#x109;" horiz-adv-x="1012" 
d="M959 711h-130q-14 64 -53 116t-100.5 82.5t-143.5 30.5q-101 0 -177 -51.5t-117.5 -146t-41.5 -222.5q0 -130 42 -224.5t117.5 -145t177.5 -50.5q118 0 196 60.5t100 161.5h131q-15 -100 -72.5 -176t-149 -119.5t-206.5 -43.5q-142 0 -248 65t-164.5 185.5t-58.5 286.5
q0 164 58.5 284.5t164 186.5t247.5 66q92 0 166.5 -27.5t129.5 -75.5t88.5 -110.5t43.5 -132.5zM582 1500l254 -301h-124l-180 213h-4l-180 -213h-124l254 301h104z" />
    <glyph glyph-name="Cdotaccent" unicode="&#x10a;" horiz-adv-x="1371" 
d="M719 -23q-147 0 -266 52.5t-203 150.5t-129 236t-45 309q0 169 45 306t129.5 234t203 149t265.5 52q114 0 214 -35t178 -99.5t128 -152.5t65 -194h-137q-15 78 -55 143t-100 112t-134.5 73t-158.5 26q-115 0 -207.5 -43t-158.5 -123.5t-101.5 -193.5t-35.5 -254
q0 -143 35.5 -257.5t101.5 -195.5t159 -124.5t208 -43.5t208 39t155 111.5t84 172.5h137q-25 -141 -104 -241.5t-202 -154.5t-279 -54zM719 1623q-37 0 -63 26t-26 62q0 37 26 63t63 26t63 -26t26 -63q0 -36 -26 -62t-63 -26z" />
    <glyph glyph-name="cdotaccent" unicode="&#x10b;" horiz-adv-x="1012" 
d="M959 711h-130q-14 64 -53 116t-100.5 82.5t-143.5 30.5q-101 0 -177 -51.5t-117.5 -146t-41.5 -222.5q0 -130 42 -224.5t117.5 -145t177.5 -50.5q118 0 196 60.5t100 161.5h131q-15 -100 -72.5 -176t-149 -119.5t-206.5 -43.5q-142 0 -248 65t-164.5 185.5t-58.5 286.5
q0 164 58.5 284.5t164 186.5t247.5 66q92 0 166.5 -27.5t129.5 -75.5t88.5 -110.5t43.5 -132.5zM530 1256q-37 0 -63 25.5t-26 62.5t26 62.5t63 25.5t63 -25.5t26 -62.5t-26 -62.5t-63 -25.5z" />
    <glyph glyph-name="Ccaron" unicode="&#x10c;" horiz-adv-x="1371" 
d="M719 -23q-147 0 -266 52.5t-203 150.5t-129 236t-45 309q0 169 45 306t129.5 234t203 149t265.5 52q114 0 214 -35t178 -99.5t128 -152.5t65 -194h-137q-15 78 -55 143t-100 112t-134.5 73t-158.5 26q-115 0 -207.5 -43t-158.5 -123.5t-101.5 -193.5t-35.5 -254
q0 -143 35.5 -257.5t101.5 -195.5t159 -124.5t208 -43.5t208 39t155 111.5t84 172.5h137q-25 -141 -104 -241.5t-202 -154.5t-279 -54zM667 1552l-268 294h128l190 -211h4l190 211h128l-268 -294h-104z" />
    <glyph glyph-name="ccaron" unicode="&#x10d;" horiz-adv-x="1012" 
d="M959 711h-130q-14 64 -53 116t-100.5 82.5t-143.5 30.5q-101 0 -177 -51.5t-117.5 -146t-41.5 -222.5q0 -130 42 -224.5t117.5 -145t177.5 -50.5q118 0 196 60.5t100 161.5h131q-15 -100 -72.5 -176t-149 -119.5t-206.5 -43.5q-142 0 -248 65t-164.5 185.5t-58.5 286.5
q0 164 58.5 284.5t164 186.5t247.5 66q92 0 166.5 -27.5t129.5 -75.5t88.5 -110.5t43.5 -132.5zM582 1199h-104l-254 301h124l180 -214h4l180 214h124z" />
    <glyph glyph-name="Dcaron" unicode="&#x10e;" horiz-adv-x="1364" 
d="M134 1443h468q216 0 369 -85.5t234 -246.5t81 -389q0 -229 -81 -390t-233.5 -246.5t-369.5 -85.5h-468v1443zM271 1319v-1195h323q177 0 300.5 69.5t188 203t64.5 324.5q0 192 -64.5 325.5t-188 203t-300.5 69.5h-323zM487 1552l-268 294h128l190 -211h4l190 211h128
l-268 -294h-104z" />
    <glyph glyph-name="dcaron" unicode="&#x10f;" horiz-adv-x="1253" 
d="M1138 1505h115l-23 -431h-92v431zM506 -17q-99 0 -180.5 38t-140.5 109t-91.5 170t-32.5 220q0 122 32 220.5t91 169.5t140 109t179 38q84 0 154.5 -29.5t122 -81.5t79.5 -120h3v617h133v-1443h-126v220h-3q-29 -70 -82 -123.5t-123.5 -83.5t-154.5 -30zM529 940
q-100 0 -174.5 -52t-116 -146.5t-41.5 -221.5t41.5 -221.5t116 -146.5t174.5 -52q99 0 174.5 52.5t117.5 147t42 220.5t-42 220.5t-117.5 147t-174.5 52.5z" />
    <glyph glyph-name="Dcroat" unicode="&#x110;" horiz-adv-x="1364" 
d="M272 124h323q177 0 300.5 69.5t188 203t64.5 324.5q0 192 -64.5 325.5t-188 203t-300.5 69.5h-323v-514h354v-124h-354v-557zM135 1443h468q216 0 369 -85.5t234 -246.5t81 -389q0 -229 -81 -390t-233.5 -246.5t-369.5 -85.5h-468v681h-130v124h130v638z" />
    <glyph glyph-name="dcroat" unicode="&#x111;" horiz-adv-x="1119" 
d="M529 100q99 0 174.5 52.5t117.5 147t42 220.5t-42 220.5t-117.5 147t-174.5 52.5q-100 0 -174.5 -52t-116 -146.5t-41.5 -221.5t41.5 -221.5t116 -146.5t174.5 -52zM1122 1323v-97h-127v-1226h-126v220h-3q-29 -70 -82 -123.5t-123.5 -83.5t-154.5 -30q-99 0 -180.5 38
t-140.5 109t-91.5 170t-32.5 220q0 122 32 220.5t91 169.5t140 109t179 38q84 0 154.5 -29.5t122 -81.5t79.5 -120h3v400h-252v97h252v120h133v-120h127z" />
    <glyph glyph-name="Emacron" unicode="&#x112;" horiz-adv-x="1104" 
d="M1005 124v-124h-871v1443h871v-124h-735v-519h698v-122h-698v-554h735zM839 1753v-95h-538v95h538z" />
    <glyph glyph-name="emacron" unicode="&#x113;" horiz-adv-x="1040" 
d="M524 941q-93 0 -164.5 -44.5t-114 -122.5t-47.5 -181h642q-1 103 -41 181t-110.5 122.5t-164.5 44.5zM832 295h131q-16 -90 -74 -160.5t-149 -111t-206 -40.5q-146 0 -252 64.5t-163.5 184.5t-57.5 285q0 121 33 220.5t94 171t146.5 110t191.5 38.5q138 0 239 -63.5
t156 -179t55 -270.5v-56h-779v-8q0 -118 42 -203t118 -131.5t180 -46.5q78 0 139.5 25.5t101 69.5t54.5 101zM795 1385v-95h-538v95h538z" />
    <glyph glyph-name="Ebreve" unicode="&#x114;" horiz-adv-x="1104" 
d="M1005 124v-124h-871v1443h871v-124h-735v-519h698v-122h-698v-554h735zM273 1832h100q6 -86 59 -137t138 -51t138 51t59 137h100q-4 -77 -41 -140t-102 -100t-154 -37t-154 37t-102 100t-41 140z" />
    <glyph glyph-name="ebreve" unicode="&#x115;" horiz-adv-x="1040" 
d="M524 941q-93 0 -164.5 -44.5t-114 -122.5t-47.5 -181h642q-1 103 -41 181t-110.5 122.5t-164.5 44.5zM832 295h131q-16 -90 -74 -160.5t-149 -111t-206 -40.5q-146 0 -252 64.5t-163.5 184.5t-57.5 285q0 121 33 220.5t94 171t146.5 110t191.5 38.5q138 0 239 -63.5
t156 -179t55 -270.5v-56h-779v-8q0 -118 42 -203t118 -131.5t180 -46.5q78 0 139.5 25.5t101 69.5t54.5 101zM238 1485h103q0 -90 48 -143t137 -53t137 53t48 143h103q0 -86 -34 -150t-98.5 -99.5t-155.5 -35.5t-155.5 35.5t-98.5 99.5t-34 150z" />
    <glyph glyph-name="Edotaccent" unicode="&#x116;" horiz-adv-x="1104" 
d="M1005 124v-124h-871v1443h871v-124h-735v-519h698v-122h-698v-554h735zM570 1623q-37 0 -63 26t-26 62q0 37 26 63t63 26t63 -26t26 -63q0 -36 -26 -62t-63 -26z" />
    <glyph glyph-name="edotaccent" unicode="&#x117;" horiz-adv-x="1040" 
d="M524 941q-93 0 -164.5 -44.5t-114 -122.5t-47.5 -181h642q-1 103 -41 181t-110.5 122.5t-164.5 44.5zM832 295h131q-16 -90 -74 -160.5t-149 -111t-206 -40.5q-146 0 -252 64.5t-163.5 184.5t-57.5 285q0 121 33 220.5t94 171t146.5 110t191.5 38.5q138 0 239 -63.5
t156 -179t55 -270.5v-56h-779v-8q0 -118 42 -203t118 -131.5t180 -46.5q78 0 139.5 25.5t101 69.5t54.5 101zM526 1256q-37 0 -63 25.5t-26 62.5t26 62.5t63 25.5t63 -25.5t26 -62.5t-26 -62.5t-63 -25.5z" />
    <glyph glyph-name="Eogonek" unicode="&#x118;" horiz-adv-x="1104" 
d="M1005 1319h-735v-519h698v-122h-698v-554h735v-124q-50 -24 -93.5 -53t-70 -65t-26.5 -80q0 -39 17 -60.5t43.5 -30t53.5 -8.5q20 0 39.5 3.5t31.5 7.5v-96q-22 -8 -46.5 -12t-49.5 -4q-53 0 -100.5 17.5t-77.5 56t-30 99.5q0 62 36.5 118t115.5 107h-714v1443h871v-124z
" />
    <glyph glyph-name="eogonek" unicode="&#x119;" horiz-adv-x="1040" 
d="M198 593h642q-1 103 -41 181t-110.5 122.5t-164.5 44.5q-93 0 -164.5 -44.5t-114 -122.5t-47.5 -181zM976 488h-779v-8q0 -118 42 -203t118 -131.5t180 -46.5q78 0 139.5 25.5t101 69.5t54.5 101h131q-12 -71 -51 -129.5t-99 -100.5q-50 -43 -91 -86.5t-66 -87t-25 -86.5
q0 -23 9.5 -47t32.5 -39.5t64 -15.5q38 0 80 14v-96q-52 -19 -106 -19t-99.5 18.5t-73.5 56t-28 95.5q0 56 27.5 108.5t92.5 110.5q-23 -4 -47 -6t-49 -2q-146 0 -252 64.5t-163.5 184.5t-57.5 285q0 121 33 220.5t94 171t146.5 110t191.5 38.5q138 0 239 -63.5t156 -179
t55 -270.5v-56z" />
    <glyph glyph-name="Ecaron" unicode="&#x11a;" horiz-adv-x="1104" 
d="M1005 124v-124h-871v1443h871v-124h-735v-519h698v-122h-698v-554h735zM518 1552l-268 294h128l190 -211h4l190 211h128l-268 -294h-104z" />
    <glyph glyph-name="ecaron" unicode="&#x11b;" horiz-adv-x="1040" 
d="M524 941q-93 0 -164.5 -44.5t-114 -122.5t-47.5 -181h642q-1 103 -41 181t-110.5 122.5t-164.5 44.5zM832 295h131q-16 -90 -74 -160.5t-149 -111t-206 -40.5q-146 0 -252 64.5t-163.5 184.5t-57.5 285q0 121 33 220.5t94 171t146.5 110t191.5 38.5q138 0 239 -63.5
t156 -179t55 -270.5v-56h-779v-8q0 -118 42 -203t118 -131.5t180 -46.5q78 0 139.5 25.5t101 69.5t54.5 101zM578 1199h-104l-254 301h124l180 -214h4l180 214h124z" />
    <glyph glyph-name="Gcircumflex" unicode="&#x11c;" horiz-adv-x="1409" 
d="M1323 586q0 -190 -71.5 -326.5t-206 -209.5t-321.5 -73q-147 0 -266 53.5t-204.5 152.5t-131.5 237.5t-46 309.5q0 168 45.5 303.5t130.5 232t204.5 148.5t267.5 52q114 0 212.5 -32.5t176 -92.5t129.5 -144.5t72 -187.5h-142q-29 103 -93 177t-154.5 113.5t-200.5 39.5
q-157 0 -270.5 -74t-175.5 -210.5t-62 -324.5q0 -143 35.5 -258.5t102.5 -197.5t160.5 -126t209.5 -44q139 0 243.5 56t162 157t57.5 237v51h-448v120h584v-139zM672 1846h104l268 -294h-128l-190 211h-4l-190 -211h-128z" />
    <glyph glyph-name="gcircumflex" unicode="&#x11d;" horiz-adv-x="1107" 
d="M524 107q100 0 175.5 52t117.5 145.5t42 218.5t-42 218.5t-117.5 146t-175.5 52.5q-98 0 -171.5 -52t-114.5 -146t-41 -220t41 -219t114.5 -144.5t171.5 -51.5zM537 -385q-114 0 -205 38t-149 103.5t-73 147.5h137q17 -51 58 -90.5t101.5 -62t136.5 -22.5
q98 0 168.5 35.5t109 99t38.5 148.5v209h-3q-28 -67 -80 -119t-122.5 -82t-153.5 -30q-99 0 -179.5 37.5t-138.5 108t-89.5 168.5t-31.5 219t31.5 219.5t90 168.5t139.5 108t181 38q83 0 153.5 -29.5t123.5 -83t83 -124.5h3v220h126v-1023q0 -121 -56 -211.5t-158 -140.5
t-241 -50zM590 1500l254 -301h-124l-180 213h-4l-180 -213h-124l254 301h104z" />
    <glyph glyph-name="Gbreve" unicode="&#x11e;" horiz-adv-x="1409" 
d="M1323 586q0 -190 -71.5 -326.5t-206 -209.5t-321.5 -73q-147 0 -266 53.5t-204.5 152.5t-131.5 237.5t-46 309.5q0 168 45.5 303.5t130.5 232t204.5 148.5t267.5 52q114 0 212.5 -32.5t176 -92.5t129.5 -144.5t72 -187.5h-142q-29 103 -93 177t-154.5 113.5t-200.5 39.5
q-157 0 -270.5 -74t-175.5 -210.5t-62 -324.5q0 -143 35.5 -258.5t102.5 -197.5t160.5 -126t209.5 -44q139 0 243.5 56t162 157t57.5 237v51h-448v120h584v-139zM427 1832h100q6 -86 59 -137t138 -51t138 51t59 137h100q-4 -77 -41 -140t-102 -100t-154 -37t-154 37
t-102 100t-41 140z" />
    <glyph glyph-name="gbreve" unicode="&#x11f;" horiz-adv-x="1107" 
d="M524 107q100 0 175.5 52t117.5 145.5t42 218.5t-42 218.5t-117.5 146t-175.5 52.5q-98 0 -171.5 -52t-114.5 -146t-41 -220t41 -219t114.5 -144.5t171.5 -51.5zM537 -385q-114 0 -205 38t-149 103.5t-73 147.5h137q17 -51 58 -90.5t101.5 -62t136.5 -22.5
q98 0 168.5 35.5t109 99t38.5 148.5v209h-3q-28 -67 -80 -119t-122.5 -82t-153.5 -30q-99 0 -179.5 37.5t-138.5 108t-89.5 168.5t-31.5 219t31.5 219.5t90 168.5t139.5 108t181 38q83 0 153.5 -29.5t123.5 -83t83 -124.5h3v220h126v-1023q0 -121 -56 -211.5t-158 -140.5
t-241 -50zM250 1485h103q0 -90 48 -143t137 -53t137 53t48 143h103q0 -86 -34 -150t-98.5 -99.5t-155.5 -35.5t-155.5 35.5t-98.5 99.5t-34 150z" />
    <glyph glyph-name="Gdotaccent" unicode="&#x120;" horiz-adv-x="1409" 
d="M1323 586q0 -190 -71.5 -326.5t-206 -209.5t-321.5 -73q-147 0 -266 53.5t-204.5 152.5t-131.5 237.5t-46 309.5q0 168 45.5 303.5t130.5 232t204.5 148.5t267.5 52q114 0 212.5 -32.5t176 -92.5t129.5 -144.5t72 -187.5h-142q-29 103 -93 177t-154.5 113.5t-200.5 39.5
q-157 0 -270.5 -74t-175.5 -210.5t-62 -324.5q0 -143 35.5 -258.5t102.5 -197.5t160.5 -126t209.5 -44q139 0 243.5 56t162 157t57.5 237v51h-448v120h584v-139zM724 1623q-37 0 -63 26t-26 62q0 37 26 63t63 26t63 -26t26 -63q0 -36 -26 -62t-63 -26z" />
    <glyph glyph-name="gdotaccent" unicode="&#x121;" horiz-adv-x="1107" 
d="M524 107q100 0 175.5 52t117.5 145.5t42 218.5t-42 218.5t-117.5 146t-175.5 52.5q-98 0 -171.5 -52t-114.5 -146t-41 -220t41 -219t114.5 -144.5t171.5 -51.5zM537 -385q-114 0 -205 38t-149 103.5t-73 147.5h137q17 -51 58 -90.5t101.5 -62t136.5 -22.5
q98 0 168.5 35.5t109 99t38.5 148.5v209h-3q-28 -67 -80 -119t-122.5 -82t-153.5 -30q-99 0 -179.5 37.5t-138.5 108t-89.5 168.5t-31.5 219t31.5 219.5t90 168.5t139.5 108t181 38q83 0 153.5 -29.5t123.5 -83t83 -124.5h3v220h126v-1023q0 -121 -56 -211.5t-158 -140.5
t-241 -50zM538 1256q-37 0 -63 25.5t-26 62.5t26 62.5t63 25.5t63 -25.5t26 -62.5t-26 -62.5t-63 -25.5z" />
    <glyph glyph-name="Gcommaaccent" unicode="&#x122;" horiz-adv-x="1409" 
d="M1323 586q0 -190 -71.5 -326.5t-206 -209.5t-321.5 -73q-147 0 -266 53.5t-204.5 152.5t-131.5 237.5t-46 309.5q0 168 45.5 303.5t130.5 232t204.5 148.5t267.5 52q114 0 212.5 -32.5t176 -92.5t129.5 -144.5t72 -187.5h-142q-29 103 -93 177t-154.5 113.5t-200.5 39.5
q-157 0 -270.5 -74t-175.5 -210.5t-62 -324.5q0 -143 35.5 -258.5t102.5 -197.5t160.5 -126t209.5 -44q139 0 243.5 56t162 157t57.5 237v51h-448v120h584v-139zM658 -483h-103l106 352h124z" />
    <glyph glyph-name="gcommaaccent" unicode="&#x123;" horiz-adv-x="1107" 
d="M524 107q100 0 175.5 52t117.5 145.5t42 218.5t-42 218.5t-117.5 146t-175.5 52.5q-98 0 -171.5 -52t-114.5 -146t-41 -220t41 -219t114.5 -144.5t171.5 -51.5zM537 -385q-114 0 -205 38t-149 103.5t-73 147.5h137q17 -51 58 -90.5t101.5 -62t136.5 -22.5
q98 0 168.5 35.5t109 99t38.5 148.5v209h-3q-28 -67 -80 -119t-122.5 -82t-153.5 -30q-99 0 -179.5 37.5t-138.5 108t-89.5 168.5t-31.5 219t31.5 219.5t90 168.5t139.5 108t181 38q83 0 153.5 -29.5t123.5 -83t83 -124.5h3v220h126v-1023q0 -121 -56 -211.5t-158 -140.5
t-241 -50zM604 1551h103l-106 -352h-124z" />
    <glyph glyph-name="Hcircumflex" unicode="&#x124;" horiz-adv-x="1387" 
d="M1251 0h-137v677h-844v-677h-136v1443h136v-642h844v642h137v-1443zM640 1846h104l268 -294h-128l-190 211h-4l-190 -211h-128z" />
    <glyph glyph-name="hcircumflex" unicode="&#x125;" horiz-adv-x="1082" 
d="M123 0v1443h133v-595h3q40 96 129.5 152.5t213.5 56.5q114 0 197.5 -47.5t129 -134.5t45.5 -203v-672h-133v650q0 135 -72.5 212t-204.5 77q-94 0 -163 -41t-107 -114.5t-38 -171.5v-612h-133zM138 1846h104l268 -294h-128l-190 211h-4l-190 -211h-128z" />
    <glyph glyph-name="Hbar" unicode="&#x126;" horiz-adv-x="1387" 
d="M1115 801v290h-844v-290h844zM1392 1201v-110h-140v-1091h-137v677h-844v-677h-136v1091h-140v110h140v242h136v-242h844v242h137v-242h140z" />
    <glyph glyph-name="hbar" unicode="&#x127;" horiz-adv-x="1082" 
d="M256 848h3q40 96 129.5 152.5t213.5 56.5q114 0 197.5 -47.5t129 -134.5t45.5 -203v-672h-133v650q0 135 -72.5 212t-204.5 77q-94 0 -163 -41t-107 -114.5t-38 -171.5v-612h-133v1226h-127v97h127v120h133v-120h251v-97h-251v-378z" />
    <glyph glyph-name="Itilde" unicode="&#x128;" horiz-adv-x="406" 
d="M271 0h-136v1443h136v-1443zM319 1586q-42 0 -71.5 14.5t-51 36t-39.5 43.5t-36.5 36.5t-42.5 14.5q-38 0 -59.5 -34.5t-21.5 -102.5h-93q0 106 47 168.5t133 62.5q41 0 69.5 -14.5t49 -36.5t38 -43.5t36.5 -36t45 -14.5q41 0 64 35t23 101h93q0 -105 -48 -167.5
t-135 -62.5z" />
    <glyph glyph-name="itilde" unicode="&#x129;" horiz-adv-x="378" 
d="M123 0v1040h132v-1040h-132zM305 1218q-42 0 -71.5 14.5t-51 36t-39.5 43.5t-36.5 36.5t-42.5 14.5q-38 0 -59.5 -34.5t-21.5 -101.5h-93q0 105 47 167.5t133 62.5q41 0 69.5 -14.5t49 -36.5t38 -43.5t36.5 -36t45 -14.5q41 0 64 35.5t23 100.5h93q0 -104 -48 -167
t-135 -63z" />
    <glyph glyph-name="Imacron" unicode="&#x12a;" horiz-adv-x="406" 
d="M271 0h-136v1443h136v-1443zM472 1753v-95h-538v95h538z" />
    <glyph glyph-name="imacron" unicode="&#x12b;" horiz-adv-x="378" 
d="M123 0v1040h132v-1040h-132zM418 1385v-95h-458v95h458z" />
    <glyph glyph-name="Ibreve" unicode="&#x12c;" horiz-adv-x="406" 
d="M271 0h-136v1443h136v-1443zM-94 1832h100q6 -86 59 -137t138 -51t138 51t59 137h100q-4 -77 -41 -140t-102 -100t-154 -37t-154 37t-102 100t-41 140z" />
    <glyph glyph-name="ibreve" unicode="&#x12d;" horiz-adv-x="378" 
d="M123 0v1040h132v-1040h-132zM-99 1485h103q0 -90 48 -143t137 -53t137 53t48 143h103q0 -86 -34 -150t-98.5 -99.5t-155.5 -35.5t-155.5 35.5t-98.5 99.5t-34 150z" />
    <glyph glyph-name="Iogonek" unicode="&#x12e;" horiz-adv-x="406" 
d="M271 1443v-1443q-51 -24 -94 -53t-69.5 -65t-26.5 -80q0 -39 17.5 -60.5t43.5 -30t54 -8.5q20 0 39.5 3.5t30.5 7.5v-96q-22 -8 -46 -12t-50 -4q-52 0 -100 17.5t-78 56t-30 99.5q0 66 41 125t132 113v1430h136z" />
    <glyph glyph-name="iogonek" unicode="&#x12f;" horiz-adv-x="378" 
d="M189 1256q-37 0 -63 25.5t-26 62.5t26 62.5t63 25.5t63 -25.5t26 -62.5t-26 -62.5t-63 -25.5zM123 15v1025h132v-1040q-51 -24 -94 -53t-69.5 -65t-26.5 -80q0 -39 17.5 -60.5t43.5 -30t54 -8.5q20 0 39.5 3.5t30.5 7.5v-96q-22 -8 -46 -12t-50 -4q-52 0 -100 17.5
t-78 56t-30 99.5q0 67 42 126.5t135 113.5z" />
    <glyph glyph-name="Idotaccent" unicode="&#x130;" horiz-adv-x="406" 
d="M270 0h-136v1443h136v-1443zM202 1623q-37 0 -63 26t-26 62q0 37 26 63t63 26t63 -26t26 -63q0 -36 -26 -62t-63 -26z" />
    <glyph glyph-name="dotlessi" unicode="&#x131;" horiz-adv-x="378" 
d="M122 0v1040h132v-1040h-132z" />
    <glyph glyph-name="IJ" unicode="&#x132;" horiz-adv-x="1393" 
d="M270 0h-136v1443h136v-1443zM447 331h135q3 -69 37 -122t92 -82.5t133 -29.5q132 0 204.5 77.5t72.5 222.5v1046h136v-1048q0 -133 -49.5 -228t-142 -146t-221.5 -51q-87 0 -159 26.5t-125 74.5t-82.5 114.5t-30.5 145.5z" />
    <glyph glyph-name="ij" unicode="&#x133;" horiz-adv-x="757" 
d="M122 0v1040h132v-1040h-132zM188 1256q-37 0 -63 25.5t-26 62.5t26 62.5t63 25.5t63 -25.5t26 -62.5t-26 -62.5t-63 -25.5zM632 1040v-1106q0 -149 -72.5 -219t-226.5 -70h-16.5t-15.5 1v112h13.5h13.5q93 0 132.5 40t39.5 134v1108h132zM565 1256q-37 0 -63 25.5
t-26 62.5t26 62.5t63 25.5t63 -25.5t26 -62.5t-26 -62.5t-63 -25.5z" />
    <glyph glyph-name="Jcircumflex" unicode="&#x134;" horiz-adv-x="987" 
d="M41 331h135q3 -69 37 -122t92 -82.5t133 -29.5q132 0 204.5 77.5t72.5 222.5v1046h136v-1048q0 -133 -49.5 -228t-142 -146t-221.5 -51q-87 0 -159 26.5t-125 74.5t-82.5 114.5t-30.5 145.5zM731 1846h104l268 -294h-128l-190 211h-4l-190 -211h-128z" />
    <glyph glyph-name="jcircumflex" unicode="&#x135;" horiz-adv-x="378" 
d="M255 1040v-1106q0 -149 -72.5 -219t-226.5 -70h-16.5t-15.5 1v112h13.5h13.5q93 0 132.5 40t39.5 134v1108h132zM240 1500l254 -301h-124l-180 213h-4l-180 -213h-124l254 301h104z" />
    <glyph glyph-name="Kcommaaccent" unicode="&#x136;" horiz-adv-x="1209" 
d="M270 0h-136v1443h136v-748h8l686 748h173l-593 -638l652 -805h-175l-573 708l-178 -193v-515zM514 -483h-103l106 352h124z" />
    <glyph glyph-name="kcommaaccent" unicode="&#x137;" horiz-adv-x="957" 
d="M255 548l514 492h164l-467 -449l476 -591h-155l-416 510l-116 -107v-403h-133v1443h133v-895zM442 -483h-103l106 352h124z" />
    <glyph glyph-name="Lacute" unicode="&#x139;" horiz-adv-x="1052" 
d="M993 124v-124h-859v1443h136v-1319h723zM264 1557h-106l187 289h150z" />
    <glyph glyph-name="lacute" unicode="&#x13a;" horiz-adv-x="378" 
d="M122 0v1443h132v-1443h-132zM250 1557h-106l187 289h150z" />
    <glyph glyph-name="Lcommaaccent" unicode="&#x13b;" horiz-adv-x="1052" 
d="M993 124v-124h-859v1443h136v-1319h723zM497 -483h-103l106 352h124z" />
    <glyph glyph-name="lcommaaccent" unicode="&#x13c;" horiz-adv-x="378" 
d="M122 0v1443h132v-1443h-132zM122 -483h-103l106 352h124z" />
    <glyph glyph-name="Lcaron" unicode="&#x13d;" horiz-adv-x="1052" 
d="M993 124v-124h-859v1443h136v-1319h723zM539 1500h131l-39 -470h-92v470z" />
    <glyph glyph-name="lcaron" unicode="&#x13e;" horiz-adv-x="512" 
d="M122 0v1443h132v-1443h-132zM398 1500h115l-23 -432h-92v432z" />
    <glyph glyph-name="Lslash" unicode="&#x141;" horiz-adv-x="1061" 
d="M279 124h723v-124h-859v702l-124 -61v110l124 61v631h136v-563l357 176v-111l-357 -176v-645z" />
    <glyph glyph-name="lslash" unicode="&#x142;" horiz-adv-x="378" 
d="M374 931v-110l-119 -62v-759h-132v691l-118 -61v111l118 61v641h132v-573z" />
    <glyph glyph-name="Nacute" unicode="&#x143;" horiz-adv-x="1393" 
d="M269 0h-135v1443h135l846 -1205h7v1205h135v-1443h-132l-849 1206h-7v-1206zM757 1557h-106l187 289h150z" />
    <glyph glyph-name="nacute" unicode="&#x144;" horiz-adv-x="1062" 
d="M113 0v1040h125v-192h3q40 94 128.5 151.5t214.5 57.5q114 0 196.5 -46.5t127 -132.5t44.5 -204v-674h-132v653q0 137 -71.5 211.5t-202.5 74.5q-90 0 -157.5 -40.5t-105.5 -113.5t-38 -169v-616h-132zM587 1199h-107l186 301h147z" />
    <glyph glyph-name="Ncommaaccent" unicode="&#x145;" horiz-adv-x="1393" 
d="M269 0h-135v1443h135l846 -1205h7v1205h135v-1443h-132l-849 1206h-7v-1206zM629 -483h-103l106 352h124z" />
    <glyph glyph-name="ncommaaccent" unicode="&#x146;" horiz-adv-x="1062" 
d="M113 0v1040h125v-192h3q40 94 128.5 151.5t214.5 57.5q114 0 196.5 -46.5t127 -132.5t44.5 -204v-674h-132v653q0 137 -71.5 211.5t-202.5 74.5q-90 0 -157.5 -40.5t-105.5 -113.5t-38 -169v-616h-132zM467 -483h-103l106 352h124z" />
    <glyph glyph-name="Ncaron" unicode="&#x147;" horiz-adv-x="1393" 
d="M269 0h-135v1443h135l846 -1205h7v1205h135v-1443h-132l-849 1206h-7v-1206zM643 1552l-268 294h128l190 -211h4l190 211h128l-268 -294h-104z" />
    <glyph glyph-name="ncaron" unicode="&#x148;" horiz-adv-x="1062" 
d="M113 0v1040h125v-192h3q40 94 128.5 151.5t214.5 57.5q114 0 196.5 -46.5t127 -132.5t44.5 -204v-674h-132v653q0 137 -71.5 211.5t-202.5 74.5q-90 0 -157.5 -40.5t-105.5 -113.5t-38 -169v-616h-132zM585 1199h-104l-254 301h124l180 -214h4l180 214h124z" />
    <glyph glyph-name="Omacron" unicode="&#x14c;" horiz-adv-x="1465" 
d="M731 1466q151 0 272 -52t207 -149.5t131.5 -235t45.5 -308.5t-45.5 -308.5t-131.5 -235t-207 -149t-272 -51.5t-272 51.5t-206.5 149t-131 235t-45.5 308.5t45.5 308.5t131 235t206.5 149.5t272 52zM731 1339q-118 0 -213.5 -43t-162.5 -124t-103 -195t-36 -256
t36 -255.5t103 -194.5t162.5 -124t213.5 -43t213.5 43t163 124t103.5 194.5t36 255.5t-36 256t-103.5 195t-163 124t-213.5 43zM1000 1753v-95h-538v95h538z" />
    <glyph glyph-name="omacron" unicode="&#x14d;" horiz-adv-x="1072" 
d="M535 -17q-106 0 -193 37.5t-150 107.5t-97 169t-34 223t34 223.5t97 169.5t150 107t193 37q142 0 248.5 -65.5t166 -185.5t59.5 -286q0 -124 -34 -223t-97 -169t-150 -107.5t-193 -37.5zM535 100q102 0 178.5 50t119 144t42.5 226t-42.5 226t-119 144t-178.5 50t-178 -50
t-118.5 -144t-42.5 -226t42.5 -226t118.5 -144t178 -50zM805 1385v-95h-538v95h538z" />
    <glyph glyph-name="Obreve" unicode="&#x14e;" horiz-adv-x="1465" 
d="M731 1466q151 0 272 -52t207 -149.5t131.5 -235t45.5 -308.5t-45.5 -308.5t-131.5 -235t-207 -149t-272 -51.5t-272 51.5t-206.5 149t-131 235t-45.5 308.5t45.5 308.5t131 235t206.5 149.5t272 52zM731 1339q-118 0 -213.5 -43t-162.5 -124t-103 -195t-36 -256
t36 -255.5t103 -194.5t162.5 -124t213.5 -43t213.5 43t163 124t103.5 194.5t36 255.5t-36 256t-103.5 195t-163 124t-213.5 43zM434 1832h100q6 -86 59 -137t138 -51t138 51t59 137h100q-5 -77 -42 -140t-102 -100t-153 -37t-153 37t-102 100t-42 140z" />
    </font>
</defs>
</svg>
